<svg width="400" height="400" viewBox="0 0 400 400" fill="none" xmlns="http://www.w3.org/2000/svg">
<rect width="400" height="400" rx="41" fill="url(#paint0_linear)"/>
<path d="M208.76 152.58C193.8 154.62 181.56 161.42 172.72 170.26V72C172.72 72 169.32 72 163.54 72C142.8 90.36 108.46 98.52 88.4 98.52C88.4 102.26 88.4 103.96 88.4 108.04C114.58 108.04 117.64 125.72 117.64 147.14V310H126.14L168.64 287.56C178.16 300.14 192.1 310.34 211.82 313.06C263.5 320.54 297.16 280.76 297.16 232.82C297.16 184.88 260.44 145.44 208.76 152.58ZM220.66 301.16C199.92 304.56 183.6 280.42 176.46 239.96C169.32 199.16 176.46 170.94 197.2 167.2C217.94 163.8 233.92 187.94 241.06 228.4C248.2 269.2 241.4 297.42 220.66 301.16Z" fill="white"/>
<defs>
<linearGradient id="paint0_linear" x1="200" y1="0" x2="200" y2="436" gradientUnits="userSpaceOnUse">
<stop/>
<stop offset="0.526042" stop-color="#33344E"/>
</linearGradient>
</defs>
</svg>