<svg width="1439" height="290" viewBox="0 0 1439 290" fill="none" xmlns="http://www.w3.org/2000/svg">
<path d="M106.2 74.1C93 75.9 82.2 81.9 74.4 89.7V2.99999C74.4 2.99999 71.4 2.99999 66.3 2.99999C48 19.2 17.7 26.4 2.12342e-07 26.4C2.12342e-07 29.7 2.12342e-07 31.2 2.12342e-07 34.8C23.1 34.8 25.8 50.4 25.8 69.3V213H33.3L70.8 193.2C79.2 204.3 91.5 213.3 108.9 215.7C154.5 222.3 184.2 187.2 184.2 144.9C184.2 102.6 151.8 67.8 106.2 74.1ZM116.7 205.2C98.4 208.2 84 186.9 77.7 151.2C71.4 115.2 77.7 90.3 96 87C114.3 84 128.4 105.3 134.7 141C141 177 135 201.9 116.7 205.2ZM313.737 74.1C291.537 70.5 277.137 82.8 267.537 101.1V74.1C267.537 74.1 264.537 74.1 259.437 74.1C241.137 90 210.837 97.5 193.137 97.5C193.137 100.8 193.137 102 193.137 105.6C216.237 105.6 218.937 121.2 218.937 140.1V170.4C218.937 189.3 216.237 204.9 193.137 204.9C193.137 208.5 193.137 213 193.137 213H292.137C292.137 213 292.137 211.2 292.137 204.9C269.337 204.9 267.537 189.3 267.537 170.4V120.6C268.737 107.1 279.537 99.6 293.037 103.8C304.737 107.7 304.737 120.6 301.737 131.1C311.637 134.7 329.937 132 337.137 114.6C343.737 97.5 335.337 77.7 313.737 74.1ZM425.733 170.4V74.1C425.733 74.1 423.033 74.1 417.633 74.1C399.633 90.3 369.033 97.5 351.633 97.5C351.633 100.8 351.633 102 351.633 105.6C374.433 105.6 377.433 121.2 377.433 140.1V170.4C377.433 189.3 374.433 204.9 351.633 204.9C351.633 208.5 351.633 213 351.633 213H450.633C450.633 213 450.633 211.2 450.633 204.9C427.533 204.9 425.733 189.3 425.733 170.4ZM396.633 60C413.133 60 426.633 47.1 426.633 31.5C426.633 15.9 413.133 2.99999 396.633 2.99999C380.133 2.99999 366.633 15.9 366.633 31.5C366.633 47.1 380.133 60 396.633 60ZM595.938 165.9C569.538 194.4 511.638 189.6 504.438 150.9L597.138 135.3C598.638 95.7 571.638 74.1 531.438 74.1C486.438 74.1 450.138 102.3 454.338 150.6C457.338 186.6 487.338 215.7 532.638 215.7C569.538 215.7 591.138 192.6 601.038 170.1C601.038 169.8 595.938 165.9 595.938 165.9ZM526.038 84.9C546.738 83.1 553.338 102 551.838 130.8L502.638 139.2C499.038 110.7 507.138 86.7 526.038 84.9ZM696.872 45.6C708.572 49.8 731.072 50.7 733.472 31.8C735.872 10.5 711.872 0.299985 685.772 0.299985C641.672 0.299985 629.972 32.4 629.972 75.3V76.8H605.072V88.8H629.972V170.1C629.972 189 626.972 204.6 604.172 204.6C604.172 208.2 604.172 213 604.172 213H709.172C709.172 213 709.172 208.2 709.172 204.6C686.072 204.6 678.572 189 678.572 170.1V88.8H720.572V76.8H678.272C677.372 63.9 674.072 54.3 670.172 42.9C664.172 26.4 668.672 11.1 683.972 11.1C704.672 11.1 700.772 36.9 696.872 45.6ZM804.614 124.2C783.914 112.8 770.714 107.4 772.214 95.7C773.114 87.3 780.614 83.7 791.114 85.2C806.714 87 813.614 96.3 818.714 120.6H825.914L822.914 74.1C822.914 74.1 819.614 74.1 817.814 74.1C815.114 85.5 810.614 76.5 791.114 74.1C764.714 71.1 735.014 77.7 731.414 106.8C728.114 135.6 755.114 148.8 774.914 159C795.914 169.8 809.414 174.6 807.314 190.2C806.114 199.8 793.214 205.8 777.014 204.9C765.014 204 751.214 200.4 749.414 192.3C747.614 183.3 753.614 177 762.314 177.6C762.014 165.6 755.714 154.5 740.414 152.4C722.114 149.7 708.314 166.5 712.814 184.8C717.614 204.6 751.214 214.5 776.114 215.7C806.714 217.5 844.814 210.3 850.814 180.9C857.714 147.3 825.614 135.9 804.614 124.2ZM952.146 179.7C947.646 187.2 941.346 190.8 933.546 189.6C926.346 188.1 921.246 184.2 921.246 170.1V88.8H953.046V77.1H921.246V26.4C921.246 26.4 917.046 26.4 911.946 26.4C905.646 58.8 878.946 75.6 849.246 77.1C849.246 80.7 849.246 88.8 849.246 88.8H872.646C872.646 98.1 872.646 167.7 872.646 167.7C872.646 199.8 892.146 215.7 916.146 215.7C938.346 215.7 950.046 201.3 957.846 182.7L952.146 179.7ZM1038.87 74.1C993.567 74.1 960.867 102.6 960.867 144.9C960.867 187.2 993.567 215.7 1038.87 215.7C1083.87 215.7 1116.57 187.2 1116.57 144.9C1116.57 102.6 1083.87 74.1 1038.87 74.1ZM1049.07 204C1031.07 207 1016.67 185.7 1010.37 150C1004.07 114 1010.07 89.1 1028.37 85.8C1046.67 82.5 1061.07 103.8 1067.37 139.8C1073.67 175.8 1067.37 200.7 1049.07 204ZM1246.26 74.1C1224.06 70.5 1209.66 82.8 1200.06 101.1V74.1C1200.06 74.1 1197.06 74.1 1191.96 74.1C1173.66 90 1143.36 97.5 1125.66 97.5C1125.66 100.8 1125.66 102 1125.66 105.6C1148.76 105.6 1151.46 121.2 1151.46 140.1V170.4C1151.46 189.3 1148.76 204.9 1125.66 204.9C1125.66 208.5 1125.66 213 1125.66 213H1224.66C1224.66 213 1224.66 211.2 1224.66 204.9C1201.86 204.9 1200.06 189.3 1200.06 170.4V120.6C1201.26 107.1 1212.06 99.6 1225.56 103.8C1237.26 107.7 1237.26 120.6 1234.26 131.1C1244.16 134.7 1262.46 132 1269.66 114.6C1276.26 97.5 1267.86 77.7 1246.26 74.1ZM1385.85 77.1C1385.85 77.1 1385.85 81 1385.85 85.2C1401.45 85.2 1408.35 88.2 1401.75 104.7L1378.65 162.3L1351.95 104.7C1345.95 90 1349.55 85.2 1362.75 85.2C1362.75 82.8 1362.75 77.1 1362.75 77.1H1275.15C1275.15 77.1 1275.15 81 1275.15 85.2C1288.05 85.2 1294.05 90.6 1299.15 99.9L1357.95 215.7C1348.05 239.7 1336.65 249.3 1323.45 250.8C1311.15 251.7 1302.15 247.2 1296.75 237.6C1287.15 242.1 1274.55 256.5 1281.15 274.2C1285.35 285 1297.05 289.5 1307.55 289.5C1339.95 289.5 1356.75 244.5 1369.05 213L1412.55 104.7C1417.35 92.7 1423.65 85.2 1438.65 85.2C1438.65 82.8 1438.65 77.1 1438.65 77.1H1385.85Z" fill="#33344E"/>
</svg>
