<svg width="692px" fill="#faefe7" height="590px" viewBox="0 0 692 590" version="1.1" xmlns="http://www.w3.org/2000/svg" xmlns:xlink="http://www.w3.org/1999/xlink">    <defs>
        <linearGradient x1="50.0173316%" y1="0.698886848%" x2="50.0173316%" y2="93.0501876%" id="linearGradient-1">
            <stop stop-color="#C0DDFC" offset="0%"></stop>
            <stop stop-color="#FFFFFF" offset="100%"></stop>
        </linearGradient>
        <linearGradient x1="50.0327838%" y1="0.551401355%" x2="50.0327838%" y2="92.9348712%" id="linearGradient-2">
            <stop stop-color="#C0DDFC" offset="0%"></stop>
            <stop stop-color="#FFFFFF" offset="100%"></stop>
        </linearGradient>
        <linearGradient x1="50.0328102%" y1="17.9217148%" x2="50.0328102%" y2="96.7224178%" id="linearGradient-3">
            <stop stop-color="#FFD8A1" offset="0%"></stop>
            <stop stop-color="#FFFFFF" offset="100%"></stop>
        </linearGradient>
        <linearGradient x1="49.9787553%" y1="33.7186481%" x2="49.9787553%" y2="73.2261404%" id="linearGradient-4">
            <stop stop-color="#F8809A" offset="0%"></stop>
            <stop stop-color="#FFD02D" offset="100%"></stop>
        </linearGradient>
        <linearGradient x1="49.9906455%" y1="99.6912787%" x2="49.9906455%" y2="9.01096667%" id="linearGradient-5">
            <stop stop-color="#F8809A" offset="0%"></stop>
            <stop stop-color="#FFD02D" offset="100%"></stop>
        </linearGradient>
        <linearGradient x1="49.9917428%" y1="-36.0506305%" x2="49.9917428%" y2="45.014452%" id="linearGradient-6">
            <stop stop-color="#F8809A" offset="0%"></stop>
            <stop stop-color="#FFD02D" offset="100%"></stop>
        </linearGradient>
        <linearGradient x1="49.9380851%" y1="99.5204662%" x2="49.9380851%" y2="-32.0129928%" id="linearGradient-7">
            <stop stop-color="#F8809A" offset="0%"></stop>
            <stop stop-color="#FFD02D" offset="100%"></stop>
        </linearGradient>
        <linearGradient x1="50.0072269%" y1="-5.94380924%" x2="50.0072269%" y2="146.578281%" id="linearGradient-8">
            <stop stop-color="#EA979A" offset="0%"></stop>
            <stop stop-color="#F2D38B" offset="41%"></stop>
            <stop stop-color="#7E9DAE" offset="50%"></stop>
            <stop stop-color="#90979D" offset="60%"></stop>
            <stop stop-color="#7EBDDB" offset="100%"></stop>
        </linearGradient>
        <linearGradient x1="49.9905723%" y1="57.8663303%" x2="49.9905723%" y2="22.116025%" id="linearGradient-9">
            <stop stop-color="#77879D" offset="0%"></stop>
            <stop stop-color="#A1978E" offset="9%"></stop>
            <stop stop-color="#C9A780" offset="19%"></stop>
            <stop stop-color="#E5B275" offset="28%"></stop>
            <stop stop-color="#F7B96F" offset="36%"></stop>
            <stop stop-color="#FDBB6D" offset="42%"></stop>
            <stop stop-color="#FDBB9F" offset="50%"></stop>
            <stop stop-color="#D1D2D1" offset="60%"></stop>
            <stop stop-color="#FECEAA" offset="100%"></stop>
        </linearGradient>
        <linearGradient x1="50.0224674%" y1="920.121553%" x2="50.0224674%" y2="12.019935%" id="linearGradient-10">
            <stop stop-color="#77879D" offset="0%"></stop>
            <stop stop-color="#A1978E" offset="9%"></stop>
            <stop stop-color="#C9A780" offset="19%"></stop>
            <stop stop-color="#E5B275" offset="28%"></stop>
            <stop stop-color="#F7B96F" offset="36%"></stop>
            <stop stop-color="#FDBB6D" offset="42%"></stop>
            <stop stop-color="#FDBB9F" offset="50%"></stop>
            <stop stop-color="#D1D2D1" offset="60%"></stop>
            <stop stop-color="#FECEAA" offset="100%"></stop>
        </linearGradient>
        <linearGradient x1="50.0077246%" y1="108.934925%" x2="50.0077246%" y2="5.04597544%" id="linearGradient-11">
            <stop stop-color="#9774AC" offset="0%"></stop>
            <stop stop-color="#47A6D3" offset="40%"></stop>
            <stop stop-color="#A7A7AE" offset="50%"></stop>
            <stop stop-color="#E89AC0" offset="59%"></stop>
            <stop stop-color="#BFE7D1" offset="100%"></stop>
        </linearGradient>
        <linearGradient x1="50.0036442%" y1="0.905283452%" x2="50.0036442%" y2="92.1526747%" id="linearGradient-12">
            <stop stop-color="#9774AC" offset="0%"></stop>
            <stop stop-color="#47A6D3" offset="40%"></stop>
            <stop stop-color="#A7A7AE" offset="50%"></stop>
            <stop stop-color="#E89AC0" offset="59%"></stop>
            <stop stop-color="#BFE7D1" offset="100%"></stop>
        </linearGradient>
        <linearGradient x1="49.9862666%" y1="8.53503937%" x2="49.9862666%" y2="93.4143701%" id="linearGradient-13">
            <stop stop-color="#9774AC" offset="0%"></stop>
            <stop stop-color="#47A6D3" offset="40%"></stop>
            <stop stop-color="#A7A7AE" offset="50%"></stop>
            <stop stop-color="#E89AC0" offset="59%"></stop>
            <stop stop-color="#BFE7D1" offset="100%"></stop>
        </linearGradient>
        <linearGradient x1="-0.0309952257%" y1="50.1556293%" x2="99.7977569%" y2="50.1556293%" id="linearGradient-14">
            <stop stop-color="#9774AC" offset="0%"></stop>
            <stop stop-color="#47A6D3" offset="40%"></stop>
            <stop stop-color="#A7A7AE" offset="50%"></stop>
            <stop stop-color="#E89AC0" offset="59%"></stop>
            <stop stop-color="#BFE7D1" offset="100%"></stop>
        </linearGradient>
        <linearGradient x1="0.272360644%" y1="50.1997936%" x2="100.10095%" y2="50.1997936%" id="linearGradient-15">
            <stop stop-color="#9774AC" offset="0%"></stop>
            <stop stop-color="#47A6D3" offset="40%"></stop>
            <stop stop-color="#A7A7AE" offset="50%"></stop>
            <stop stop-color="#E89AC0" offset="59%"></stop>
            <stop stop-color="#BFE7D1" offset="100%"></stop>
        </linearGradient>
        <linearGradient x1="0.425093589%" y1="49.8296297%" x2="100.253683%" y2="49.8296297%" id="linearGradient-16">
            <stop stop-color="#9774AC" offset="0%"></stop>
            <stop stop-color="#47A6D3" offset="40%"></stop>
            <stop stop-color="#A7A7AE" offset="50%"></stop>
            <stop stop-color="#E89AC0" offset="59%"></stop>
            <stop stop-color="#BFE7D1" offset="100%"></stop>
        </linearGradient>
        <linearGradient x1="49.950461%" y1="8.84620647%" x2="49.950461%" y2="90.6861344%" id="linearGradient-17">
            <stop stop-color="#9774AC" offset="0%"></stop>
            <stop stop-color="#47A6D3" offset="40%"></stop>
            <stop stop-color="#A7A7AE" offset="50%"></stop>
            <stop stop-color="#E89AC0" offset="59%"></stop>
            <stop stop-color="#BFE7D1" offset="100%"></stop>
        </linearGradient>
        <linearGradient x1="50.0084587%" y1="-3.96750312%" x2="50.0084587%" y2="128.003764%" id="linearGradient-18">
            <stop stop-color="#EA979A" offset="0%"></stop>
            <stop stop-color="#F2D38B" offset="41%"></stop>
            <stop stop-color="#7E9DAE" offset="50%"></stop>
            <stop stop-color="#90979D" offset="60%"></stop>
            <stop stop-color="#7EBDDB" offset="100%"></stop>
        </linearGradient>
        <linearGradient x1="49.9872983%" y1="91.4159051%" x2="49.9872983%" y2="5.24224174%" id="linearGradient-19">
            <stop stop-color="#77879D" offset="0%"></stop>
            <stop stop-color="#A1978E" offset="9%"></stop>
            <stop stop-color="#C9A780" offset="19%"></stop>
            <stop stop-color="#E5B275" offset="28%"></stop>
            <stop stop-color="#F7B96F" offset="36%"></stop>
            <stop stop-color="#FDBB6D" offset="42%"></stop>
            <stop stop-color="#FDBB9F" offset="50%"></stop>
            <stop stop-color="#D1D2D1" offset="60%"></stop>
            <stop stop-color="#FECEAA" offset="100%"></stop>
        </linearGradient>
        <linearGradient x1="50.0099412%" y1="96.6156444%" x2="50.0099412%" y2="39.0152309%" id="linearGradient-20">
            <stop stop-color="#F8809A" offset="0%"></stop>
            <stop stop-color="#FFD02D" offset="100%"></stop>
        </linearGradient>
        <linearGradient x1="50.009%" y1="99.5497415%" x2="50.009%" y2="-32.7066184%" id="linearGradient-21">
            <stop stop-color="#F8809A" offset="0%"></stop>
            <stop stop-color="#FFD02D" offset="100%"></stop>
        </linearGradient>
        <linearGradient x1="56.2851732%" y1="-12.9049369%" x2="42.753607%" y2="98.1295179%" id="linearGradient-22">
            <stop stop-color="#EA979A" offset="0%"></stop>
            <stop stop-color="#F2D38B" offset="41%"></stop>
            <stop stop-color="#7E9DAE" offset="50%"></stop>
            <stop stop-color="#90979D" offset="60%"></stop>
            <stop stop-color="#7EBDDB" offset="100%"></stop>
        </linearGradient>
        <linearGradient x1="50.0730269%" y1="77.6560841%" x2="50.0730269%" y2="7.88129245%" id="linearGradient-23">
            <stop stop-color="#9774AC" offset="0%"></stop>
            <stop stop-color="#47A6D3" offset="40%"></stop>
            <stop stop-color="#A7A7AE" offset="50%"></stop>
            <stop stop-color="#E89AC0" offset="59%"></stop>
            <stop stop-color="#BFE7D1" offset="100%"></stop>
        </linearGradient>
        <linearGradient x1="93.7563657%" y1="49.9466907%" x2="57.8697581%" y2="49.9466907%" id="linearGradient-24">
            <stop stop-color="#9774AC" offset="0%"></stop>
            <stop stop-color="#47A6D3" offset="40%"></stop>
            <stop stop-color="#A7A7AE" offset="50%"></stop>
            <stop stop-color="#E89AC0" offset="59%"></stop>
            <stop stop-color="#BFE7D1" offset="100%"></stop>
        </linearGradient>
        <linearGradient x1="0.0497593754%" y1="49.9634615%" x2="100.064541%" y2="49.9634615%" id="linearGradient-25">
            <stop stop-color="#9774AC" offset="0%"></stop>
            <stop stop-color="#47A6D3" offset="40%"></stop>
            <stop stop-color="#A7A7AE" offset="50%"></stop>
            <stop stop-color="#E89AC0" offset="59%"></stop>
            <stop stop-color="#BFE7D1" offset="100%"></stop>
        </linearGradient>
        <linearGradient x1="49.9276705%" y1="105.82789%" x2="49.9276705%" y2="-9.84134676%" id="linearGradient-26">
            <stop stop-color="#9774AC" offset="0%"></stop>
            <stop stop-color="#47A6D3" offset="40%"></stop>
            <stop stop-color="#A7A7AE" offset="50%"></stop>
            <stop stop-color="#E89AC0" offset="59%"></stop>
            <stop stop-color="#BFE7D1" offset="100%"></stop>
        </linearGradient>
        <linearGradient x1="50.0016187%" y1="7.2923821%" x2="50.0016187%" y2="103.135187%" id="linearGradient-27">
            <stop stop-color="#9774AC" offset="0%"></stop>
            <stop stop-color="#47A6D3" offset="40%"></stop>
            <stop stop-color="#A7A7AE" offset="50%"></stop>
            <stop stop-color="#E89AC0" offset="59%"></stop>
            <stop stop-color="#BFE7D1" offset="100%"></stop>
        </linearGradient>
        <linearGradient x1="50.0823286%" y1="73.2087561%" x2="50.0823286%" y2="7.47306685%" id="linearGradient-28">
            <stop stop-color="#9774AC" offset="0%"></stop>
            <stop stop-color="#47A6D3" offset="40%"></stop>
            <stop stop-color="#A7A7AE" offset="50%"></stop>
            <stop stop-color="#E89AC0" offset="59%"></stop>
            <stop stop-color="#BFE7D1" offset="100%"></stop>
        </linearGradient>
        <linearGradient x1="50.0121311%" y1="130.72008%" x2="50.0121311%" y2="-67.6417671%" id="linearGradient-29">
            <stop stop-color="#9774AC" offset="0%"></stop>
            <stop stop-color="#47A6D3" offset="40%"></stop>
            <stop stop-color="#A7A7AE" offset="50%"></stop>
            <stop stop-color="#E89AC0" offset="59%"></stop>
            <stop stop-color="#BFE7D1" offset="100%"></stop>
        </linearGradient>
        <linearGradient x1="49.9797513%" y1="17.928007%" x2="49.9797513%" y2="96.7453466%" id="linearGradient-30">
            <stop stop-color="#FFD8A1" offset="0%"></stop>
            <stop stop-color="#FFFFFF" offset="100%"></stop>
        </linearGradient>
        <linearGradient x1="49.9868536%" y1="17.9173418%" x2="49.9868536%" y2="96.6057815%" id="linearGradient-31">
            <stop stop-color="#FFD8A1" offset="0%"></stop>
            <stop stop-color="#FFFFFF" offset="100%"></stop>
        </linearGradient>
    </defs>
    <g id="Page-1" stroke="none" stroke-width="1" fill="none" fill-rule="evenodd">
        <g id="marginalia-virtual-reality-1-copy" transform="translate(-289.000000, -56.000000)">
            <rect id="Rectangle-path" fill-opacity="0" fill="#FFFFFF" fill-rule="nonzero" x="0" y="0" width="1280" height="720"></rect>
            <g id="Group" opacity="0.3" transform="translate(289.000000, 56.000000)" fill="#C4ECFE" fill-rule="nonzero">
                <path d="M689,2.4 L689,584.4 L3,584.4 L3,2.4 L689,2.4 Z M691.2,0.2 L0.8,0.2 L0.8,586.7 L691.2,586.7 L691.2,0.2 Z" id="Shape"></path>
                <g transform="translate(0.000000, 415.000000)" id="Rectangle-path">
                    <rect x="0.8" y="0.9" width="690.4" height="2.1"></rect>
                </g>
                <g transform="translate(0.000000, 332.000000)" id="Rectangle-path">
                    <rect x="0.8" y="0" width="690.4" height="2.1"></rect>
                </g>
                <g transform="translate(0.000000, 415.000000)" id="Rectangle-path">
                    <rect x="0.8" y="0.9" width="690.4" height="2.1"></rect>
                </g>
                <g transform="translate(0.000000, 499.000000)" id="Rectangle-path">
                    <rect x="0.8" y="0.9" width="690.4" height="2.1"></rect>
                </g>
                <g transform="translate(0.000000, 248.000000)" id="Rectangle-path">
                    <rect x="0.8" y="0" width="690.4" height="2.1"></rect>
                </g>
                <g transform="translate(0.000000, 164.000000)" id="Rectangle-path">
                    <rect x="0.8" y="0" width="690.4" height="2.1"></rect>
                </g>
                <g transform="translate(0.000000, 80.000000)" id="Rectangle-path">
                    <rect x="0.8" y="0" width="690.4" height="2.1"></rect>
                </g>
            </g>
            <path d="M370,362.4 C356.7,362.4 345.5,351.6 333.7,340.2 C320.7,327.5 307.1,314.5 289.7,314.5 L289.7,307.3 C310.1,307.3 325.3,322.1 338.8,335.1 C349.5,345.4 359.6,355.2 370,355.2 L370,362.4 Z" id="Shape" fill="#F9D5FF" fill-rule="nonzero"></path>
            <path d="M876.6,111.6 L876.6,104.4 C887,104.4 897.1,94.6 907.8,84.3 C921.3,71.3 936.5,56.5 956.9,56.5 L956.9,63.7 C939.4,63.7 925.9,76.8 912.8,89.5 C901.1,100.8 890,111.6 876.6,111.6 Z" id="Shape" fill="#F9D5FF" fill-rule="nonzero"></path>
            <path d="M291.7,120 C291.7,86.6 321.2,51.7 358.7,73.5 C396.1,95.2 382.8,129.4 444.6,138 L291.7,138 L291.7,120 Z" id="Shape" fill="url(#linearGradient-1)" fill-rule="nonzero"></path>
            <path d="M412.9,188.6 C412.9,165.7 441.3,154.8 456.4,172 C464,180.6 472.3,186.9 485.4,183.7 C537.4,171 527.8,223.8 570.6,225.1 L442.6,225.1 C426.2,225.1 412.9,211.8 412.9,195.4 L412.9,188.6 Z" id="Shape" fill="url(#linearGradient-2)" fill-rule="nonzero"></path>
            <path d="M423.6,642.6 C385.5,642.6 386.7,584.9 353.6,577.2 C340.4,574.2 333.2,564.4 327,553.7 C316.8,536 289.8,543.1 289.8,563.6 L289.8,642.6 L423.6,642.6 Z" id="Shape" fill="url(#linearGradient-3)" fill-rule="nonzero"></path>
            <path d="M797.2,219.5 L892.4,219.5 C925.1,219.5 951.7,246.1 951.7,278.8 L951.7,642.6 L738,642.6 L738,278.7 C738,246 764.5,219.5 797.2,219.5 Z" id="Shape" fill="url(#linearGradient-4)" fill-rule="nonzero"></path>
            <path d="M913.7,278.7 L913.7,642.5 L699.9,642.5 L699.9,278.7 C699.9,246 726.4,219.4 759.1,219.4 C759.2,219.4 759.2,219.4 759.2,219.4 L854.4,219.4 C887.1,219.5 913.7,246 913.7,278.7 Z" id="Shape" fill="url(#linearGradient-5)" fill-rule="nonzero"></path>
            <path d="M821.7,320.3 C821,355.4 819.5,360.5 819.5,360.5 L781.9,358.5 L750.4,269.9 L743.5,225.9 L744.4,221.3 C749.2,220.1 754.2,219.5 759.1,219.5 L781.2,219.5 C784.9,219.5 787.9,222.3 788.2,226 L788.5,229.7 C788.8,233.4 791.3,236.5 794.9,237.4 C797.9,238.2 801.5,239.6 803.6,241.8 C820.2,259.3 822.4,285.2 821.7,320.3 Z" id="Shape" fill="#2B2B2B" fill-rule="nonzero"></path>
            <rect id="Rectangle-path" fill="url(#linearGradient-6)" fill-rule="nonzero" x="618.6" y="436.5" width="262.8" height="206.2"></rect>
            <path d="M595.5,350.9 L596.7,350.9 C609.4,350.9 619.6,361.2 619.6,373.8 L619.6,642.6 L572.6,642.6 L572.6,373.8 C572.6,361.1 582.8,350.9 595.5,350.9 C595.4,350.9 595.5,350.9 595.5,350.9 Z" id="Shape" fill="url(#linearGradient-7)" fill-rule="nonzero"></path>
            <rect id="Rectangle-path" fill="#2B2B2B" fill-rule="nonzero" x="289.8" y="639.4" width="419.5" height="3.2"></rect>
            <path d="M480.2,263.3 L581.3,267.1 L706.3,241 C722.5,237.1 738.8,247.1 742.6,263.3 C746.4,279.5 736.5,295.8 720.3,299.6 L586.6,327.8 L585.2,328.2 C579.4,329.6 573.3,329 568,326.4 L468.4,311 L480.2,263.3 Z" id="Shape" fill="url(#linearGradient-8)" fill-rule="nonzero"></path>
            <path d="M468.4,311 L448.4,305.9 C435.8,302.7 428.1,290 431.3,277.4 C434.3,265.7 445.6,258.1 457.6,259.9 L480.2,263.3 L468.4,311 Z" id="Shape" fill="#FDC068" fill-rule="nonzero"></path>
            <path d="M645.3,570.7 L719.5,519.8 C723.4,517.1 724.4,511.8 721.9,507.9 L715.7,498.3 L669.1,531 L639.6,564.1 C636.1,568 641,573.6 645.3,570.7 Z" id="Shape" fill="#2B2B2B" fill-rule="nonzero"></path>
            <path d="M706.6,488.4 C707.2,488.7 683.7,538 681.2,543.3 L676.2,541.3 L671.5,539.4 C668.4,538.1 665.3,536.9 662.2,535.5 C630.5,521.8 594,505.9 568.3,482.1 C545.2,460.7 529.7,428.2 537.1,397.6 C544.6,366.6 573.9,344.6 604.8,336.5 C615.5,333.8 626.5,332.2 637.6,331.7 C648.9,331.2 660.2,331.4 671.5,332.2 C679,332.7 686.8,332.4 694.7,332.4 C701.2,332.3 707.7,332.7 714.2,333.6 C712,344.5 697.9,444.2 694.3,444.8 C694.2,444.7 694.2,444.7 694.1,444.7 C674.3,438.5 653.4,439.1 633,436.2 C651.9,459 682.9,475.4 706.6,488.4 Z" id="Shape" fill="url(#linearGradient-9)" fill-rule="nonzero"></path>
            <path d="M796.8,354.5 C795.2,372.4 774.1,397.6 742.8,395.2 L717.6,392.4 C689.1,390.2 668.4,362.7 670.1,343.4 L765.7,353.3 L796.8,354.5 Z" id="Shape" fill="url(#linearGradient-10)" fill-rule="nonzero"></path>
            <path d="M694.6,332.5 L694.6,357.2 C694.6,357.2 642,385.5 651.2,368.2 C660.2,351.3 647.4,336.2 637.6,331.7 C648.9,331.2 660.2,331.4 671.5,332.2 C679,332.8 686.8,332.5 694.6,332.5 Z" id="Shape" fill="#2B2B2B" fill-rule="nonzero"></path>
            <path d="M616.6,557.9 L567.6,557.9 C543.8,557.9 522.2,543.6 513,521.7 L494,478.1 C490.7,470.5 494.1,461.6 501.8,458.3 C509.5,455 518.3,458.4 521.6,466.1 L540.7,509.7 C540.7,509.8 540.8,509.8 540.8,509.8 C545.4,520.7 555.9,527.7 567.7,527.7 L616.7,527.7 C625,527.7 631.8,534.4 631.8,542.8 C631.9,551.2 625,557.9 616.6,557.9 Z" id="Shape" fill="#2B2B2B" fill-rule="nonzero"></path>
            <path d="M708.5,465.8 L708.5,534.5 L568.5,534.5 C565.3,534.5 562.1,534.2 558.9,533.6 C535.2,529 518.2,508.3 518.2,484.2 L518.2,461.2 L536.2,461.6 L558.3,462.1 L708.5,465.8 Z" id="Shape" fill="url(#linearGradient-11)" fill-rule="nonzero"></path>
            <path d="M708.5,380.4 L708.5,468.2 L536,468.2 C534.8,468.2 533.7,468.2 532.5,468.1 C527.7,468 522.5,468.3 518.1,467.1 C492.8,460.2 475.3,435.6 476.1,408.2 C476.5,392.9 478.6,370.2 484.4,357.3 C496,331.5 519.2,351.3 536,351.8 L610.5,351.8 C645.3,351.7 679.3,361.6 708.5,380.4 Z" id="Shape" fill="url(#linearGradient-12)" fill-rule="nonzero"></path>
            <polygon id="Shape" fill="#2B2B2B" fill-rule="nonzero" points="557.7 468.2 499.1 467.1 499.1 445.9 535.3 403.4 553.7 404.5"></polygon>
            <polygon id="Shape" fill="#2B2B2B" fill-rule="nonzero" points="610.5 351.7 481.8 346.6 470.9 387.6 557.7 388.1"></polygon>
            <path d="M528,402.3 L476.6,402.3 C476.6,402.3 472.3,428 489.6,447.9 L528,402.3 Z" id="Shape" fill="#2B2B2B" fill-rule="nonzero"></path>
            <path d="M654.1,523.7 L607.6,523.7 C598.1,523.7 589.4,518.2 585,509.4 L578.5,496.4 C573.1,485.7 580.5,472.9 592,472.9 L637.2,472.9 C642.9,473 648.2,476.3 650.7,481.4 L663.7,507.2 C667.3,514.7 662.1,523.7 654.1,523.7 Z" id="Shape" fill="url(#linearGradient-13)" fill-rule="nonzero"></path>
            <path d="M644.3,489.8 L588.8,489.8 C587.1,489.7 585.8,488.3 585.9,486.6 C586,485.1 587.2,483.8 588.8,483.7 L644.3,483.7 C646,483.6 647.4,484.9 647.5,486.6 C647.6,488.3 646.3,489.7 644.6,489.8 C644.6,489.8 644.5,489.8 644.3,489.8 Z" id="Shape" fill="url(#linearGradient-14)" fill-rule="nonzero"></path>
            <path d="M649.5,501.3 L594,501.3 C592.3,501.4 590.9,500.1 590.8,498.4 C590.7,496.7 592,495.3 593.7,495.2 C593.8,495.2 593.9,495.2 594,495.2 L649.5,495.2 C651.2,495.3 652.5,496.7 652.4,498.4 C652.2,500 651,501.2 649.5,501.3 Z" id="Shape" fill="url(#linearGradient-15)" fill-rule="nonzero"></path>
            <path d="M654.5,512.9 L599,512.9 C597.3,513 595.9,511.7 595.8,510 C595.7,508.3 597,506.9 598.7,506.8 C598.8,506.8 598.9,506.8 599,506.8 L654.5,506.8 C656.2,506.9 657.5,508.3 657.4,510 C657.4,511.6 656.1,512.8 654.5,512.9 Z" id="Shape" fill="url(#linearGradient-16)" fill-rule="nonzero"></path>
            <path d="M665.7,360.3 L649.3,369.3 L620.7,468.6 L689.7,534.5 L585.9,538.9 L557.7,468.1 C542.5,448.6 538.8,425.6 538.5,420.3 C534.6,365.5 591.7,351.6 610.6,351.6 C629.2,351.7 647.8,354.6 665.7,360.3 Z" id="Shape" fill="#2B2B2B" fill-rule="nonzero"></path>
            <path d="M708.5,469.2 L518.1,469.2 C517.5,469.2 517,468.7 517,468.1 C517,467.5 517.5,467 518.1,467 L708.5,467 C709.1,467 709.6,467.5 709.6,468.1 C709.6,468.7 709.1,469.2 708.5,469.2 Z" id="Shape" fill="#2B2B2B" fill-rule="nonzero"></path>
            <path d="M606.9,527.8 L708.6,527.8 L708.6,557.9 L606.9,557.9 C583.1,557.9 561.5,543.6 552.3,521.7 L533.3,478.1 C531.9,474.9 531.6,471.4 532.6,468 C534.8,460 543.2,455.3 551.2,457.7 C555.5,458.9 559.1,462 560.9,466.2 L561.8,468.2 L580,509.9 C580,510 580.1,510 580.1,510 C584.5,520.8 595.1,527.8 606.9,527.8 Z" id="Shape" fill="url(#linearGradient-17)" fill-rule="nonzero"></path>
            <polygon id="Shape" fill="#2B2B2B" fill-rule="nonzero" points="652.4 527.9 690.7 558.2 704 534.9 674.9 526"></polygon>
            <path d="M670.1,343.3 C673.1,309.3 696.1,315 689.1,291.4 C682.1,267.8 695.3,236.7 721.4,238.9 C741.5,240.7 743,240 751.4,240.7 C772.7,242.6 791.7,238.9 798.2,284.6 C799.9,296.3 795.9,340.3 796.6,354.4 L764.8,357.1 L670.1,343.3 Z" id="Shape" fill="url(#linearGradient-18)" fill-rule="nonzero"></path>
            <path d="M688.4,308.7 C688.3,308.7 688.3,308.7 688.3,308.7 C687.7,308.6 687.3,308.1 687.4,307.5 C688.3,299.2 686.4,276.3 686.4,276.1 C686.3,275.5 686.8,274.9 687.4,274.9 C688,274.8 688.6,275.3 688.6,275.9 C688.7,276.8 690.6,299.2 689.6,307.7 C689.4,308.2 689,308.7 688.4,308.7 Z" id="Shape" fill="#2B2B2B" fill-rule="nonzero"></path>
            <path d="M717.1,238.9 C717.1,238.9 709.8,238.9 697.7,243.6 L719.3,258.2 L717.1,238.9 Z" id="Shape" fill="#2B2B2B" fill-rule="nonzero"></path>
            <path d="M729.5,260.3 L760.2,250.2 L755.9,219.1 L721.5,203.9 L715.9,249.4 C715.4,255.2 719.7,260.3 725.5,260.8 C726.8,260.9 728.1,260.7 729.5,260.3 Z" id="Shape" fill="#FDC068" fill-rule="nonzero"></path>
            <polygon id="Shape" fill="#2B2B2B" fill-rule="nonzero" points="715.3 229.7 734.6 230.7 715.8 249.4"></polygon>
            <path d="M757,177.4 L755.7,213 C755.3,225.2 745,234.7 732.8,234.3 L709.2,233.4 C695.4,232.9 684.6,221.2 685.1,207.4 L685.8,188.9 L686.1,181.1 L686.3,174.8 C687,155.7 702.7,140.7 721.6,140.7 C722,140.7 722.5,140.7 722.9,140.7 C742.5,141.5 757.7,157.9 757,177.4 Z" id="Shape" fill="#FDC068" fill-rule="nonzero"></path>
            <path d="M709.2,233.4 L732.8,234.3 C745,234.7 755.2,225.2 755.7,213 L757,177.4 C757.7,157.9 742.5,141.4 722.9,140.7 C703.4,140 686.9,155.2 686.2,174.8 L685,207.4 C684.6,221.3 695.3,232.9 709.2,233.4 C709.2,233.4 709.2,233.4 709.2,233.4 Z" id="Shape"></path>
            <path d="M689.1,185 C689.1,187 687.7,188.6 685.8,189 L686.1,181.2 C687.8,181.6 689.1,183.1 689.1,185 Z" id="Shape" fill="#2B2B2B" fill-rule="nonzero"></path>
            <path d="M694.5,197.5 C694.3,197.5 694.1,197.4 693.9,197.4 L690.5,195.2 C689.7,194.5 689.3,193.6 689.3,192.5 C689.3,191.4 689.6,190.5 690.3,189.8 L695.5,184 C695.9,183.6 696.6,183.5 697,183.9 C697.4,184.3 697.5,185 697.1,185.4 L691.9,191.2 C691.3,191.9 691.3,192.9 692,193.5 L695.1,195.5 C695.6,195.8 695.8,196.5 695.4,197 C695.1,197.3 694.8,197.5 694.5,197.5 Z" id="Shape" fill="#2B2B2B" fill-rule="nonzero"></path>
            <path d="M693.7,210.6 C693.4,210.6 693,210.6 692.8,210.5 C690.6,210.1 688.8,208.6 687.5,206 C687.2,205.5 687.4,204.8 688,204.6 C688.5,204.3 689.2,204.5 689.4,205.1 C690.4,207.1 691.6,208.2 693.1,208.4 C696,208.8 699.1,205.8 699.1,205.7 C699.5,205.3 700.2,205.3 700.6,205.7 C701,206.1 701,206.8 700.6,207.2 C700.5,207.4 697.3,210.6 693.7,210.6 Z" id="Shape" fill="#2B2B2B" fill-rule="nonzero"></path>
            <circle id="Oval" fill="#2B2B2B" fill-rule="nonzero" cx="708.1" cy="186" r="4"></circle>
            <path d="M691.2,158.2 C689,163.7 696.5,164.9 705.3,164 C716.2,162.8 726.1,170.7 727.3,181.5 C727.3,181.7 727.4,182 727.4,182.2 C727.6,185.4 729.5,188.1 732.4,189.5 L739.3,192.8 L742.6,209.5 C743.9,216.2 749.8,221.1 756.6,221.1 C756.6,221.1 757.2,187.7 757.2,173.3 C757.2,158.9 745.3,142 723,140.7 C700.7,139.4 691.2,158.2 691.2,158.2 Z" id="Shape" fill="#565656" fill-rule="nonzero"></path>
            <rect id="Rectangle-path" fill="#2B2B2B" fill-rule="nonzero" x="717.9" y="177.4" width="22.2" height="11.9"></rect>
            <path d="M739.6,177.4 C742.9,177.5 745.5,180.2 745.5,183.6 L745.2,193.9 C745.1,197.2 742.4,199.8 739,199.8 C735.7,199.7 733.1,197 733.1,193.6 L733.4,183.3 C733.5,179.9 736.2,177.2 739.6,177.4 Z" id="Shape" fill="#FDC068" fill-rule="nonzero"></path>
            <path d="M710.5,421.6 L712.7,470.3 C691.2,468.8 668.7,437.7 668.7,437.7 L710.5,421.6 Z" id="Shape" fill="#2B2B2B" fill-rule="nonzero"></path>
            <path d="M796.8,354.5 L795.7,380.6 C794.5,410.3 770.5,434.1 740.8,435.2 L675.7,437.7 L741.1,495.4 L698.9,540.4 C698.9,540.4 557.4,486.7 561.9,423.5 C566.4,360.3 649.6,348.9 796.8,354.5 Z" id="Shape" fill="url(#linearGradient-19)" fill-rule="nonzero"></path>
            <path d="M687.3,585.1 L744,515.3 C747,511.6 746.5,506.3 742.9,503.2 L734.1,491.1 L698.8,540.3 L679.8,580.5 C677.8,585.2 684.1,589.1 687.3,585.1 Z" id="Shape" fill="#2B2B2B" fill-rule="nonzero"></path>
            <path d="M712.7,438.8 L655.8,438.8 C655.2,438.8 654.7,438.3 654.7,437.7 C654.7,437.1 655.2,436.6 655.8,436.6 L712.7,436.6 C713.3,436.6 713.8,437.1 713.8,437.7 C713.8,438.3 713.3,438.8 712.7,438.8 Z" id="Shape" fill="#2B2B2B" fill-rule="nonzero"></path>
            <path d="M723,140.8 C726.2,140.7 731.5,141.1 744.9,141.1 C758.3,141.1 752.8,164.3 770.7,164.3 C782.8,164.3 799.6,186.6 780.8,199.8 C768.1,208.7 773.6,221.2 756.8,221.2 L749.5,175 L725.3,145.8 L723,140.8 Z" id="Shape" fill="#565656" fill-rule="nonzero"></path>
            <path d="M713.3,196.4 L712,196.4 C709.8,196.4 707.6,195.7 705.8,194.4 L703.7,192.9 C700,190.2 689.7,190.2 686,192.8 L683.6,194.5 C681.8,195.8 679.6,196.5 677.4,196.5 L677.2,196.5 C669.5,196.5 668.5,190.2 668.5,182.5 L668.5,182.4 C668.5,174.7 674.8,168.4 682.5,168.4 L713.3,168.4 C721,168.4 727.3,174.7 727.3,182.4 C727.3,190.1 721,196.4 713.3,196.4 Z" id="Shape" fill="#5E5E5E" fill-rule="nonzero"></path>
            <path d="M703.7,196.4 L702.4,196.4 C700.2,196.4 698,195.7 696.2,194.4 L694.1,192.9 C690.4,190.2 685.4,190.2 681.7,192.8 L679.3,194.5 C677.5,195.8 675.3,196.5 673.1,196.5 L672.9,196.5 C665.2,196.4 658.9,190.2 658.9,182.5 L658.9,182.4 C658.9,174.7 665.2,168.4 672.9,168.4 L703.7,168.4 C711.4,168.4 717.7,174.7 717.7,182.4 C717.9,190.1 711.5,196.4 703.7,196.4 Z" id="Shape" fill="#2B2B2B" fill-rule="nonzero"></path>
            <path d="M933.1,352.4 L933.1,642.6 L728.9,642.6 L728.9,389.7 C728.9,369.2 745.5,352.5 766,352.4 C766.1,352.4 766.1,352.4 766.1,352.4 L933.1,352.4 Z" id="Shape" fill="url(#linearGradient-20)" fill-rule="nonzero"></path>
            <path d="M769.3,378.2 L769.3,642.5 L709.3,642.5 L709.3,378.2 C709.3,363.9 720.9,352.4 735.1,352.4 L743.4,352.4 C756.9,352.4 768.1,362.7 769.2,376.1 C769.2,376.8 769.3,377.5 769.3,378.2 Z" id="Shape" fill="url(#linearGradient-21)" fill-rule="nonzero"></path>
            <path d="M779.1,352.4 L769.2,375.6 C769.2,375.6 769.2,375.7 769.1,376 C768.4,379.6 763.1,403.5 746.2,406.8 C740.3,408 734.3,406.7 728.8,404.3 C717.7,399.5 709.1,390.6 709.1,390.6 L709.1,378.1 C709.1,363.8 720.7,352.3 734.9,352.3 L735,352.3 L779.1,352.4 Z" id="Shape" fill="#2B2B2B" fill-rule="nonzero"></path>
            <path d="M678.3,284.4 L719.8,312.8 L741.3,269.3 C748.4,254.2 766.4,247.8 781.5,254.9 C796.6,262 803,280 795.9,295.1 C795.8,295.4 795.6,295.7 795.5,296 L758.7,370.6 L758,372.1 C751,386.4 733.7,392.2 719.4,385.2 C717.2,384.1 715.1,382.7 713.2,381.1 L651.5,327.2 L678.3,284.4 Z" id="Shape" fill="url(#linearGradient-22)" fill-rule="nonzero"></path>
            <path d="M651.2,327.2 L626.6,305.8 C616.7,297.5 615.4,282.6 623.7,272.7 C631.6,263.3 645.4,261.6 655.4,268.7 L678.3,284.4 L651.2,327.2 Z" id="Shape" fill="#FDC068" fill-rule="nonzero"></path>
            <path d="M768.6,353.7 C768.5,353.7 768.3,353.7 768.2,353.6 C767.7,353.3 767.4,352.7 767.7,352.2 L788.4,308.9 C788.7,308.4 789.3,308.1 789.8,308.4 C790.3,308.7 790.6,309.3 790.3,309.8 L769.6,353.1 C769.4,353.5 769,353.7 768.6,353.7 Z" id="Shape" fill="#2B2B2B" fill-rule="nonzero"></path>
            <path d="M720.2,314.4 L677.7,285.3 C677.2,284.9 677,284.3 677.4,283.8 C677.8,283.3 678.4,283.1 678.9,283.5 L719.3,311.2 L738.3,272.8 C738.6,272.3 739.2,272.1 739.7,272.3 C740.2,272.6 740.4,273.2 740.2,273.7 L720.2,314.4 Z" id="Shape" fill="#2B2B2B" fill-rule="nonzero"></path>
            <path d="M382,545 C373.7,545 366.9,538.2 366.9,529.9 C366.9,527.4 367.5,525.1 368.6,522.9 L478.4,315.1 C482.3,307.7 491.4,304.9 498.7,308.8 C506,312.7 508.9,321.8 505,329.1 L395.3,537 C392.7,541.9 387.6,545 382,545 Z" id="Shape" fill="url(#linearGradient-23)" fill-rule="nonzero"></path>
            <polygon id="Shape" fill="#2B2B2B" fill-rule="nonzero" points="444 400.7 453.2 427.6 467.3 400.7"></polygon>
            <path d="M498.1,310.1 C494.9,310.1 491.9,308.8 489.7,306.4 L483.4,299.5 C479.3,295.1 473.6,292.6 467.6,292.6 L411.5,292.6 C405.3,292.4 400.4,287.2 400.6,280.9 C400.8,275 405.6,270.2 411.5,270 L467.7,270 C480.1,270 491.9,275.2 500.2,284.4 L506.5,291.3 C510.7,295.9 510.3,303.1 505.7,307.3 C503.6,309 500.9,310.1 498.1,310.1 Z" id="Shape" fill="#2B2B2B" fill-rule="nonzero"></path>
            <path d="M561.9,310.1 C555.7,310.1 550.6,305 550.6,298.8 C550.6,296 551.6,293.3 553.6,291.2 L559.9,284.3 C568.2,275.2 580,270 592.4,269.9 L648.6,269.9 C654.8,269.9 659.9,275 659.9,281.2 C659.9,287.4 654.8,292.5 648.6,292.5 L592.4,292.5 C586.4,292.5 580.7,295 576.6,299.4 L570.3,306.3 C568.1,308.8 565.1,310.1 561.9,310.1 Z" id="Shape" fill="#2B2B2B" fill-rule="nonzero"></path>
            <path d="M534.9,363.7 L522,363.7 C499.1,363.4 480.7,344.5 481,321.6 C481.3,299.1 499.5,280.9 522,280.6 L534.8,280.6 C557.7,280.9 576.1,299.8 575.8,322.7 C575.6,345.2 557.4,363.4 534.9,363.7 Z M522,303.2 C511.5,303.2 503,311.7 503,322.2 C503,332.7 511.5,341.2 522,341.2 L534.8,341.2 C545.3,341.2 553.8,332.7 553.8,322.2 C553.8,311.7 545.3,303.2 534.8,303.2 L522,303.2 Z" id="Shape" fill="url(#linearGradient-24)" fill-rule="nonzero"></path>
            <circle id="Oval" fill="#FFFFFF" fill-rule="nonzero" cx="522" cy="322.1" r="30.2"></circle>
            <path d="M522,363.7 C499.1,363.7 480.4,345.1 480.4,322.1 C480.4,299.2 499,280.5 522,280.5 C544.9,280.5 563.6,299.1 563.6,322.1 C563.7,345.1 545.1,363.7 522,363.7 Z M522,303.2 C511.5,303.2 503,311.7 503,322.2 C503,332.7 511.5,341.2 522,341.2 C532.5,341.2 541,332.7 541,322.2 C541.1,311.6 532.5,303.2 522,303.2 Z" id="Shape" fill="url(#linearGradient-25)" fill-rule="nonzero"></path>
            <path d="M462.4,546.9 C462.4,598.3 470.1,640.2 432.2,642.5 C431.1,642.6 392.1,642.6 391,642.6 C351.6,642.6 319.6,599.8 319.6,546.9 C319.6,494 351.6,451.2 391,451.2 C391.9,451.2 436.9,451.2 437.9,451.3 C476,453.2 462.4,495.3 462.4,546.9 Z" id="Shape" fill="#2B2B2B" fill-rule="nonzero"></path>
            <ellipse id="Oval" fill="#5E5E5E" fill-rule="nonzero" cx="435.1" cy="546.9" rx="71.4" ry="95.7"></ellipse>
            <path d="M481.8,546.9 C481.8,581.5 460.9,609.5 435.1,609.5 C421.2,609.5 408.8,601.4 400.2,588.4 C393,577.4 388.5,562.8 388.5,546.9 C388.5,531 392.9,516.4 400.3,505.4 C408.8,492.5 421.4,484.3 435.2,484.3 C460.9,484.3 481.8,512.3 481.8,546.9 Z" id="Shape" fill="#FFFFFF" fill-rule="nonzero"></path>
            <path d="M466.2,546.9 C466.2,569.9 452.3,588.5 435.2,588.5 C434.8,588.5 416.8,588.5 400.3,588.5 C393,577.4 388.5,562.8 388.5,546.9 C388.5,531 392.9,516.4 400.3,505.4 C416.4,505.4 434.8,505.4 435.2,505.4 C452.3,505.3 466.2,523.9 466.2,546.9 Z" id="Shape" fill="url(#linearGradient-26)" fill-rule="nonzero"></path>
            <path d="M466.2,547.2 C466.2,549.3 466.1,551.4 465.9,553.4 C465,561.9 462.4,569.5 458.7,575.5 C453.6,583.5 446.4,588.5 438.4,588.5 C423.1,588.5 410.6,570 410.6,547.2 C410.6,524.4 423,505.8 438.3,505.8 C453.6,505.8 466.2,524.3 466.2,547.2 Z" id="Shape" fill="url(#linearGradient-27)" fill-rule="nonzero"></path>
            <path d="M465.8,553.4 C464.9,561.9 462.3,569.5 458.6,575.5 C436.9,573.3 439.2,543.4 439.2,543.4 L462.4,545.1 C463.7,547.8 464.9,550.5 465.8,553.4 Z" id="Shape" fill="#2B2B2B" fill-rule="nonzero"></path>
            <path d="M518.6,365.5 C510.9,365.5 505.1,363.1 501.2,360.7 C495.6,357.2 492.7,353.2 492.7,353 C492.3,352.5 492.5,351.8 493,351.5 C493.5,351.2 494.2,351.3 494.5,351.8 C494.5,351.9 497.2,355.7 502.5,359 C509.6,363.3 517.7,364.5 526.7,362.5 C527.3,362.4 527.9,362.7 528,363.3 C528.1,363.9 527.8,364.5 527.2,364.6 C524.1,365.2 521.3,365.5 518.6,365.5 Z" id="Shape" fill="#2B2B2B" fill-rule="nonzero"></path>
            <path d="M454.2,559.5 C445.9,559.5 439.1,552.8 439.1,544.4 C439.1,542.1 439.7,539.8 440.7,537.7 L551.6,315.5 C555.2,308 564.2,304.8 571.7,308.4 C579.2,312 582.4,321 578.8,328.5 C578.7,328.6 578.7,328.8 578.6,329 L467.6,551.1 C465.2,556.2 460,559.4 454.2,559.5 Z" id="Shape" fill="url(#linearGradient-28)" fill-rule="nonzero"></path>
            <polygon id="Shape" fill="url(#linearGradient-29)" fill-rule="nonzero" points="445 378.5 553.8 378.5 541.4 403.4 431.8 403.4"></polygon>
            <path d="M435.4,259.7 L457.8,259.7 C460.8,259.7 463.3,262.2 463.3,265.2 C463.3,276.3 454.3,285.3 443.2,285.3 L436.5,285.3 C429.1,285.3 423.1,279.3 423.1,271.9 C423.1,265.2 428.6,259.7 435.4,259.7 Z" id="Shape" fill="#FDC068" fill-rule="nonzero"></path>
            <path d="M623.9,264.5 L646.3,264.5 C649.3,264.5 651.8,267 651.8,270 C651.8,281.1 642.8,290.1 631.7,290.1 L625,290.1 C617.6,290.1 611.6,284.1 611.6,276.7 C611.6,270 617.1,264.5 623.9,264.5 Z" id="Shape" fill="#FDC068" fill-rule="nonzero"></path>
            <path d="M708.2,530.2 C707.6,530.2 707.1,529.7 707.1,529.1 L707.1,463.5 C707.1,462.9 707.6,462.4 708.2,462.4 C708.8,462.4 709.3,462.9 709.3,463.5 L709.3,529.1 C709.3,529.7 708.8,530.2 708.2,530.2 Z" id="Shape" fill="#2B2B2B" fill-rule="nonzero"></path>
            <path d="M519.7,404.5 L507.8,404.5 C507.2,404.5 506.7,404 506.7,403.4 C506.7,402.8 507.2,402.3 507.8,402.3 L519.7,402.3 C520.3,402.3 520.8,402.8 520.8,403.4 C520.8,404 520.2,404.5 519.7,404.5 Z" id="Shape" fill="#2B2B2B" fill-rule="nonzero"></path>
            <circle id="Oval" fill="#BFD9FF" fill-rule="nonzero" cx="400.1" cy="128.1" r="3"></circle>
            <circle id="Oval" fill="#BFD9FF" fill-rule="nonzero" cx="964.7" cy="428.1" r="3"></circle>
            <circle id="Oval" fill="#BFD9FF" fill-rule="nonzero" cx="902" cy="156.8" r="3"></circle>
            <circle id="Oval" fill="#BFD9FF" fill-rule="nonzero" cx="593.1" cy="91.2" r="3"></circle>
            <circle id="Oval" fill="#BFD9FF" fill-rule="nonzero" cx="322.6" cy="426.9" r="3"></circle>
            <path d="M980.2,490.7 L980.2,646 L722.9,642.6 C770.5,642.6 786.2,595.7 808.8,558.8 C821,538.9 835.2,521.9 857.5,516.8 C882,511.2 895.7,493.6 907.1,474.1 C907.6,473.3 908,472.4 908.5,471.6 C928.2,437.6 980.2,451.4 980.2,490.7 Z" id="Shape" fill="url(#linearGradient-30)" fill-rule="nonzero"></path>
            <path d="M739.3,633.9 L742.5,633.8 C741.4,633.9 740.4,633.9 739.3,633.9 Z" id="Shape" fill="#2B2B2B" fill-rule="nonzero"></path>
            <path d="M545.9,575.3 C545.8,582.1 542.9,588.6 537.7,593.1 C520.7,608.2 516.9,642.7 489.8,642.7 L431.8,642.7 C464.3,642.7 463.2,593.5 491.5,586.9 C502.8,584.3 508.9,576 514.1,566.9 C522.8,551.7 545.9,557.8 545.9,575.3 Z" id="Shape" fill="url(#linearGradient-31)" fill-rule="nonzero"></path>
        </g>
    </g>
</svg>