<svg width="698px" height="588px" viewBox="0 0 698 588" version="1.1" xmlns="http://www.w3.org/2000/svg" xmlns:xlink="http://www.w3.org/1999/xlink">

    <defs>
        <linearGradient x1="50.0774757%" y1="27.4608242%" x2="50.0774757%" y2="167.280232%" id="linearGradient-1">
            <stop stop-color="#F48B94" offset="0%"></stop>
            <stop stop-color="#F4A9A6" offset="41%"></stop>
            <stop stop-color="#FED3B5" offset="50%"></stop>
            <stop stop-color="#DBECC2" offset="60%"></stop>
            <stop stop-color="#ADDCC8" offset="100%"></stop>
        </linearGradient>
        <linearGradient x1="50.0541261%" y1="1.95285614%" x2="50.0541261%" y2="210.37282%" id="linearGradient-2">
            <stop stop-color="#F48B94" offset="0%"></stop>
            <stop stop-color="#F4A9A6" offset="41%"></stop>
            <stop stop-color="#FED3B5" offset="50%"></stop>
            <stop stop-color="#DBECC2" offset="60%"></stop>
            <stop stop-color="#ADDCC8" offset="100%"></stop>
        </linearGradient>
        <linearGradient x1="50.0238977%" y1="100.791706%" x2="50.0238977%" y2="2.85562692%" id="linearGradient-3">
            <stop stop-color="#EA979A" offset="0%"></stop>
            <stop stop-color="#F2D38B" offset="41%"></stop>
            <stop stop-color="#7E9DAE" offset="50%"></stop>
            <stop stop-color="#90979D" offset="60%"></stop>
            <stop stop-color="#7EBDDB" offset="100%"></stop>
        </linearGradient>
        <linearGradient x1="49.9899644%" y1="104.520159%" x2="49.9899644%" y2="3.42930153%" id="linearGradient-4">
            <stop stop-color="#EA979A" offset="0%"></stop>
            <stop stop-color="#F2D38B" offset="41%"></stop>
            <stop stop-color="#7E9DAE" offset="50%"></stop>
            <stop stop-color="#90979D" offset="60%"></stop>
            <stop stop-color="#7EBDDB" offset="100%"></stop>
        </linearGradient>
        <linearGradient x1="50.0355427%" y1="-1.86980746%" x2="50.0355427%" y2="94.1580817%" id="linearGradient-5">
            <stop stop-color="#F48B94" offset="0%"></stop>
            <stop stop-color="#F4A9A6" offset="41%"></stop>
            <stop stop-color="#FED3B5" offset="50%"></stop>
            <stop stop-color="#DBECC2" offset="60%"></stop>
            <stop stop-color="#ADDCC8" offset="100%"></stop>
        </linearGradient>
        <linearGradient x1="50.0133615%" y1="246.770248%" x2="50.0133615%" y2="10.9961433%" id="linearGradient-6">
            <stop stop-color="#6B9C83" offset="0%"></stop>
            <stop stop-color="#A6A6A4" offset="40%"></stop>
            <stop stop-color="#9F9FC8" offset="50%"></stop>
            <stop stop-color="#9FCCEC" offset="59%"></stop>
            <stop stop-color="#FFE7B0" offset="100%"></stop>
        </linearGradient>
        <linearGradient x1="93.4606497%" y1="26.4048086%" x2="-109.908226%" y2="108.839378%" id="linearGradient-7">
            <stop stop-color="#F8809A" offset="0%"></stop>
            <stop stop-color="#FFE651" offset="76%"></stop>
            <stop stop-color="#FFEEC3" offset="100%"></stop>
        </linearGradient>
        <linearGradient x1="87.1326749%" y1="17.038526%" x2="10.0634861%" y2="63.2350068%" id="linearGradient-8">
            <stop stop-color="#F8809A" offset="0%"></stop>
            <stop stop-color="#FFE651" offset="76%"></stop>
            <stop stop-color="#FFEEC3" offset="100%"></stop>
        </linearGradient>
        <linearGradient x1="152.713734%" y1="8.13182131%" x2="-60.5101813%" y2="106.822563%" id="linearGradient-9">
            <stop stop-color="#F8809A" offset="0%"></stop>
            <stop stop-color="#FFE651" offset="76%"></stop>
            <stop stop-color="#FFEEC3" offset="100%"></stop>
        </linearGradient>
    </defs>
    <g id="Page-1" stroke="none" stroke-width="1" fill="none" fill-rule="evenodd">
        <g id="marginalia-teamwork-copy-2" transform="translate(-47.000000, -56.000000)">
            <rect id="Rectangle-path" fill-opacity="0" fill="#FFFFFF" fill-rule="nonzero" x="0.8" y="0.9" width="800" height="781.5"></rect>
            <g id="Group" opacity="0.3" transform="translate(54.000000, 57.000000)">
                <path d="M688.5,2.4 L688.5,584.4 L2.5,584.4 L2.5,2.4 L688.5,2.4 Z M690.6,0.1 L0.3,0.1 L0.3,586.6 L690.7,586.6 L690.6,0.1 Z" id="Shape" fill="#C4ECFE" fill-rule="nonzero"></path>
                <path d="M0.3,417 L690.6,417" id="Shape" stroke="#C4ECFE" stroke-width="2.91"></path>
                <path d="M0.3,333 L690.6,333" id="Shape" stroke="#C4ECFE" stroke-width="2.91"></path>
                <path d="M0.3,417 L690.6,417" id="Shape" stroke="#C4ECFE" stroke-width="2.91"></path>
                <path d="M0.3,500.9 L690.6,500.9" id="Shape" stroke="#C4ECFE" stroke-width="2.91"></path>
                <path d="M0.3,249 L690.6,249" id="Shape" stroke="#C4ECFE" stroke-width="2.91"></path>
                <path d="M0.3,165 L690.6,165" id="Shape" stroke="#C4ECFE" stroke-width="2.91"></path>
                <path d="M0.3,81.1 L690.6,81.1" id="Shape" stroke="#C4ECFE" stroke-width="2.91"></path>
            </g>
            <rect id="Rectangle-path" fill="#2B2B2B" fill-rule="nonzero" x="561.1" y="640.4" width="183.6" height="3.2"></rect>
            <path d="M635.6,237.9 L557.3,264.6 L554.8,265.4 C545.6,268.5 535.5,265.5 529.5,257.9 L501.7,223.4 L489.5,208.2 L506.6,190.1 L517.9,178.2 L554.1,209.5 L618.4,187.6 C632.2,182.7 647.4,189.9 652.3,203.7 C657.2,217.5 650,232.7 636.2,237.6 C636.1,237.7 635.9,237.8 635.6,237.9 Z" id="Shape" fill="url(#linearGradient-1)" fill-rule="nonzero"></path>
            <path d="M518,178.2 L506.7,190.1 L489.6,208.2 L478.5,194.5 C472,186.1 473.6,174 482,167.5 C489.1,162 499.1,162.1 506,167.9 L506.6,168.4 L518,178.2 Z" id="Shape" fill="#FDC068" fill-rule="nonzero"></path>
            <path d="M593.3,267.6 C595.7,240.8 613.9,243.6 608.5,225.1 C603.1,206.6 613.3,182 634,183.8 C649.8,185.2 651,184.7 657.7,185.2 C674,186.6 691.5,200.3 692.2,215.6 C692.8,228.7 682.1,268.6 681.6,274.9 L593.3,267.6 Z" id="Shape" fill="url(#linearGradient-2)" fill-rule="nonzero"></path>
            <path d="M669,291.9 C655.5,401.7 625.9,625.1 625.9,625.1 L573.8,625.8 C568.2,566 570.2,495 574.2,435.1 C575.1,421.6 593.3,267.7 593.3,267.7 L669,291.9 Z" id="_Path_" fill="url(#linearGradient-3)" fill-rule="nonzero"></path>
            <path d="M626,343.7 C629.5,366.6 632.4,401.6 623.3,422.5 C614.7,442.1 635,459.5 627.9,481.2 C620.7,502.9 637.7,539.2 635.5,556.2 L651.9,432.5 L626,343.7 Z" id="Shape" fill="#2B2B2B" fill-rule="nonzero"></path>
            <path d="M700.1,416.1 L686,274.8 L593.5,266 C592.6,277.1 600.8,291.4 614,299.1 C614,299.1 621.9,381 641.2,445.5 C666,528.1 693.6,617.9 693.1,618.2 L739.6,594.6 L700.1,416.1 Z" id="_Path_2" fill="url(#linearGradient-4)" fill-rule="nonzero"></path>
            <circle id="Oval" fill="#FFEAE0" fill-rule="nonzero" cx="669" cy="93.4" r="23.1"></circle>
            <circle id="Oval" fill="#2B2B2B" fill-rule="nonzero" cx="647" cy="113.6" r="19.5"></circle>
            <path d="M664.3,124 L663.3,152.1 C662.9,161.7 654.9,169.2 645.3,168.9 L626.7,168.2 C615.8,167.8 607.2,158.6 607.7,147.7 L608.2,133.2 L608.4,127 L608.5,122 C609,106.9 621.5,95.1 636.4,95.1 C636.8,95.1 637.1,95.1 637.4,95.1 C652.8,95.7 664.9,108.6 664.3,124 Z" id="Shape" fill="#FDC068" fill-rule="nonzero"></path>
            <path d="M626.8,168.2 L645.4,168.9 C655,169.3 663.1,161.7 663.4,152.1 L664.4,124 C664.9,108.6 652.9,95.7 637.5,95.1 C622.1,94.6 609.2,106.6 608.6,122 L607.7,147.7 C607.3,158.6 615.9,167.8 626.8,168.2 Z" id="Shape"></path>
            <path d="M610.9,130.1 C610.9,131.7 609.7,133 608.3,133.2 L608.5,127 C609.8,127.4 610.9,128.6 610.9,130.1 Z" id="Shape" fill="#2B2B2B" fill-rule="nonzero"></path>
            <path d="M654.9,195.7 L675.2,191.1 C675.2,191.1 665.6,185 657.8,185.2 L654.9,195.7 Z" id="Shape" fill="#2B2B2B" fill-rule="nonzero"></path>
            <path d="M640.3,200.5 L662.5,193.2 C663.7,192.8 664.5,191.7 664.5,190.5 L663.8,139.5 L634.1,138.5 L629.4,192 C629,196.6 632.4,200.5 636.9,200.9 C638.1,201 639.2,200.8 640.3,200.5 Z" id="Shape" fill="#FDC068" fill-rule="nonzero"></path>
            <path d="M615.1,140 C615,140 614.7,139.9 614.6,139.9 L611.9,138.2 C610.7,137 610.5,135.2 611.7,133.9 L615.8,129.3 C616.2,128.9 616.7,128.9 617.1,129.2 C617.5,129.6 617.5,130.1 617.2,130.5 L613,135 C612.6,135.5 612.6,136.3 613.1,136.8 L615.6,138.4 C616,138.7 616.1,139.2 615.9,139.6 C615.6,139.8 615.3,140 615.1,140 Z" id="Shape" fill="#2B2B2B" fill-rule="nonzero"></path>
            <path d="M617.8,150.4 C617.5,150.4 617.1,150.4 616.9,150.3 C614.4,149.8 613.1,147.5 613.1,147.4 C612.9,147 613,146.4 613.5,146.2 C613.9,146 614.5,146.1 614.7,146.6 C614.7,146.6 615.6,148.3 617.3,148.6 C618.5,148.8 619.9,148.3 621.4,147.1 C621.8,146.8 622.3,146.8 622.7,147.2 C623,147.6 623,148.1 622.6,148.5 C620.8,149.7 619.3,150.4 617.8,150.4 Z" id="Shape" fill="#2B2B2B" fill-rule="nonzero"></path>
            <polygon id="Shape" fill="#2B2B2B" fill-rule="nonzero" points="631.6 168.3 643.6 168.8 630.5 180.4"></polygon>
            <circle id="Oval" fill="#2B2B2B" fill-rule="nonzero" cx="625.8" cy="130.9" r="3.2"></circle>
            <path d="M535.4,643.6 L617.8,643.2 C622.1,643.2 625.6,639.7 625.7,635.4 L625.9,625 L573.8,625.7 L534.4,635.6 C529.8,636.8 530.7,643.6 535.4,643.6 Z" id="Shape" fill="#2B2B2B" fill-rule="nonzero"></path>
            <path d="M664.6,643.6 L682,643.5 L740.2,614.6 C744,612.6 745.7,608 743.9,604.1 L739.5,594.6 L693,618.2 L678.9,631.8 L663.6,635.6 C659,636.8 659.8,643.6 664.6,643.6 Z" id="Shape" fill="#2B2B2B" fill-rule="nonzero"></path>
            <path d="M706.3,393.4 L704.2,407.4 C702.6,417.9 692.9,425.1 682.4,423.5 C673,422.1 666,414 666,404.5 L666,385.8 L706.3,393.4 Z" id="Shape" fill="#FDC068" fill-rule="nonzero"></path>
            <polygon id="Shape" fill="#FFFFFF" fill-rule="nonzero" points="593.5 266 673.1 273.5 676.5 282.7 592.6 272.6"></polygon>
            <path d="M666.1,385.8 L666,310.5 L643.4,228 C639.3,213.9 647.5,199.2 661.6,195.1 C675.7,191 690.4,199.2 694.5,213.3 C694.6,213.5 694.6,213.8 694.7,214 L718.1,299.9 L718.5,301.5 C719.2,303.9 719.3,306.4 718.9,308.9 L706.2,393.5 L666.1,385.8 Z" id="Shape" fill="url(#linearGradient-5)" fill-rule="nonzero"></path>
            <path d="M608.6,122 L619.1,110.4 L625.3,116 C630.5,120.8 634.3,127 636.2,133.9 C638.3,141.4 640.8,150.4 640.9,150.8 C646,165.1 654.2,169.8 666.7,169.8 L673.1,169.8 L664.6,122 C664.6,106.9 651.7,94.8 636.7,94.8 L635.8,94.8 C620.8,94.8 608.6,107 608.6,122 Z" id="Shape" fill="#FFEAE0" fill-rule="nonzero"></path>
            <path d="M630,406.4 C629.6,406.4 629.2,406.1 629.1,405.7 C625.2,388.3 621.2,362.6 618.6,344.2 C618.5,343.7 618.9,343.3 619.4,343.2 C619.9,343.1 620.3,343.5 620.4,344 C623,362.5 626.9,388.1 630.8,405.4 C630.9,405.9 630.6,406.3 630.1,406.5 C630.2,406.4 630.1,406.4 630,406.4 Z" id="Shape" fill="#2B2B2B" fill-rule="nonzero"></path>
            <path d="M654.9,272.2 C654.5,272.2 654.2,271.9 654,271.5 L647.8,248.8 C647.7,248.3 647.9,247.9 648.5,247.7 C649,247.6 649.4,247.8 649.6,248.4 L655.8,271.1 C655.9,271.6 655.7,272 655.1,272.2 C655,272.2 654.9,272.2 654.9,272.2 Z" id="Shape" fill="#2B2B2B" fill-rule="nonzero"></path>
            <path d="M598.4,251.5 C598.3,251.5 598.2,251.5 598,251.4 C597.6,251.3 597.3,250.7 597.5,250.2 C599.1,246.1 601.2,243.5 603.1,241.3 C606.2,237.5 608.7,234.6 607.7,226.8 C607.6,226.3 608,225.9 608.5,225.8 C609,225.7 609.4,226.1 609.5,226.6 C610.7,235.1 607.7,238.7 604.6,242.5 C602.7,244.8 600.8,247.2 599.3,250.9 C599.1,251.3 598.8,251.5 598.4,251.5 Z" id="Shape" fill="#2B2B2B" fill-rule="nonzero"></path>
            <path d="M559.9,216.7 C559.7,216.7 559.4,216.6 559.2,216.4 L553.5,210 C553.1,209.6 553.2,209.1 553.6,208.7 C554,208.3 554.5,208.4 554.9,208.8 L560.6,215.2 C561,215.6 560.9,216.1 560.5,216.5 C560.4,216.7 560.1,216.7 559.9,216.7 Z" id="Shape" fill="#2B2B2B" fill-rule="nonzero"></path>
            <path d="M670.9,326 C670.5,326 670.2,325.8 670,325.4 L665.1,310.9 C665,310.4 665.2,309.9 665.7,309.7 C666.2,309.5 666.7,309.8 666.9,310.3 L671.8,324.8 C671.9,325.3 671.7,325.8 671.2,326 C671.1,326 671,326 670.9,326 Z" id="Shape" fill="#2B2B2B" fill-rule="nonzero"></path>
            <path d="M499.9,164.4 C489.8,161.1 478.9,166.5 475.6,176.6 C473.6,182.7 474.7,189.4 478.7,194.5 L489.8,208.2 L502,223.4 C505,221.7 506.8,218.6 506.8,215.1 L506.8,175.6 C502.9,173 500.4,168.9 499.9,164.4 Z" id="Shape" fill="#2B2B2B" fill-rule="nonzero"></path>
            <path d="M382.6,56.4 L488.2,56.4 C494.6,56.4 499.8,61.6 499.8,68 L499.8,210 C499.8,216.4 494.6,221.6 488.2,221.6 L382.6,221.6 C376.2,221.6 371,216.4 371,210 L371,68 C371.1,61.6 376.3,56.4 382.6,56.4 Z" id="Shape" fill="#F9D5FF" fill-rule="nonzero"></path>
            <rect id="Rectangle-path" fill="#FFFFFF" fill-rule="nonzero" x="382" y="69.6" width="113.7" height="130.6"></rect>
            <circle id="Oval" fill="#FFFFFF" fill-rule="nonzero" cx="440.7" cy="210.5" r="5.2"></circle>
            <path d="M455.4,83.2 C455.4,93.8 446.8,102.4 436.1,102.4 C425.4,102.4 416.9,93.8 416.9,83.1 C416.9,78 418.9,73 422.6,69.4 L449.8,69.4 C453.3,73.2 455.4,78.1 455.4,83.2 Z" id="Shape" fill="#EA7068" fill-rule="nonzero"></path>
            <circle id="Oval" fill="#2B2B2B" fill-rule="nonzero" cx="436.1" cy="106.4" r="19.3"></circle>
            <path d="M495.7,162.8 L495.7,200.2 L382,200.2 L382,159.1 C392.4,154.8 394.1,150.6 399.4,143.2 C399.5,142.4 399.8,141.6 399.9,140.9 C400.6,137.7 401.5,134.8 402.4,132.1 C403.5,128.8 404.8,125.7 406.3,122.7 C407.1,121.2 407.9,119.7 408.7,118.4 C410.9,114.7 413.7,111.3 416.8,108.3 C420.1,105.1 424,102.7 428.4,101.1 C429.6,100.7 430.8,100.4 432,100.2 C432,100.2 435.5,100.1 440.6,102.1 C445.9,104.3 450.7,107.5 454.6,111.7 C458.2,115.5 461.3,119.7 463.9,124.3 C464,124.5 464.2,124.8 464.3,125 C464.5,125.3 464.7,125.7 464.8,125.9 C473.8,151.9 494.4,160.8 495.7,162.8 Z" id="Shape" fill="#EA7068" fill-rule="nonzero"></path>
            <circle id="Oval" fill="#FDC068" fill-rule="nonzero" cx="463" cy="141.1" r="10.8"></circle>
            <path d="M469.3,200.2 L398.2,200.2 C400.4,198.5 402.8,197 405.3,195.7 L405.4,195.6 C409.5,193.6 413.7,192.3 418.2,191.6 C419.4,191.4 420.7,191.3 422,191.2 C423.3,191.1 424.5,191.1 425.9,191.2 L447,192.6 C448.9,192.7 450.7,192.9 452.5,193.2 C458.5,194.3 464.3,196.7 469.3,200.2 Z" id="Shape" fill="url(#linearGradient-6)" fill-rule="nonzero"></path>
            <polygon id="Shape" fill="#FFFFFF" fill-rule="nonzero" points="452.5 195.1 451.4 200.2 419.3 200.2 417.9 194.2 417.9 194 418 194 425.5 194.2"></polygon>
            <circle id="Oval" fill="#FDC068" fill-rule="nonzero" cx="410.6" cy="139.1" r="10.8"></circle>
            <path d="M425.9,191.3 L425.5,194.3 L424.8,200.2 L412,200.2 L405.3,195.7 L405.4,195.6 C406.1,195.2 410.7,192.6 418.2,191.6 C419.4,191.5 420.7,191.3 422,191.2 C423.4,191.2 424.5,191.2 425.9,191.3 Z" id="Shape" fill="#2B2B2B" fill-rule="nonzero"></path>
            <path d="M452.5,195.1 C452.5,196.8 452.3,198.5 451.8,200.2 L418.7,200.2 C418.1,198.2 417.9,196.2 418,194.2 C418,194.1 418,194.1 418,194 L418.1,191.7 L419.6,168.6 L421.3,143.3 L435.3,143.8 L451.9,144.4 L452.1,167.1 L452.1,168.9 L452.2,178.9 L452.3,193.4 L452.5,195.1 Z" id="Shape" fill="#FDC068" fill-rule="nonzero"></path>
            <polygon id="Shape" fill="#2B2B2B" fill-rule="nonzero" points="425.9 172.2 452.2 187.1 452.5 167"></polygon>
            <path d="M436.2,174.3 C449.7,174.3 460.9,164.1 462.4,150.7 L464.9,127.3 C464.9,111.4 451.9,98.5 436.1,98.6 C420.2,98.6 407.3,111.6 407.4,127.4 L410,150.8 C411.4,164.1 422.7,174.3 436.2,174.3 Z" id="_Path_3" fill="#FDC068" fill-rule="nonzero"></path>
            <path d="M435.3,144.6 C434.9,144.6 434.6,144.5 434.5,144.1 C434.3,143.7 434.4,143.1 434.9,142.9 L437.6,141.5 C438.2,141.1 438.3,140.3 437.9,139.7 C436.2,137.5 435.4,134.9 435.7,132.2 L435.8,131.4 C435.9,130.9 436.3,130.5 436.8,130.6 C437.3,130.7 437.7,131.1 437.6,131.6 L437.5,132.4 C437.3,134.6 437.9,136.9 439.3,138.6 L439.4,138.7 C440.4,140.1 440.1,142.1 438.6,143 L438.5,143.1 L435.8,144.5 C435.6,144.6 435.5,144.6 435.3,144.6 Z" id="Shape" fill="#2B2B2B" fill-rule="nonzero"></path>
            <path d="M440.7,152.3 C440,159.6 431.9,157.6 431.9,152.3 L440.7,152.3 Z" id="Shape" fill="#FFFFFF" fill-rule="nonzero"></path>
            <circle id="Oval" fill="#2B2B2B" fill-rule="nonzero" cx="449.4" cy="133.9" r="2.9"></circle>
            <circle id="Oval" fill="#2B2B2B" fill-rule="nonzero" cx="424.3" cy="133.9" r="3"></circle>
            <path d="M406.3,124.1 L466.6,124.1 C466.6,107.5 453.1,94 436.5,94 C419.8,94 406.3,107.5 406.3,124.1 Z" id="Shape" fill="#EA7068" fill-rule="nonzero"></path>
            <path d="M510.6,171.7 L501.2,163.7 C498.4,161.3 494.1,161.6 491.6,164.4 C488.9,167.3 489,171.8 491.8,174.5 L507.1,189.3 L510.6,171.7 Z" id="Shape" fill="#FDC068" fill-rule="nonzero"></path>
            <circle id="Oval" fill="#BFD9FF" fill-rule="nonzero" cx="330.1" cy="414.1" r="3"></circle>
            <circle id="Oval" fill="#BFD9FF" fill-rule="nonzero" cx="540.3" cy="489.2" r="3"></circle>
            <circle id="Oval" fill="#BFD9FF" fill-rule="nonzero" cx="554.2" cy="86.1" r="3"></circle>
            <circle id="Oval" fill="#BFD9FF" fill-rule="nonzero" cx="719.2" cy="168.3" r="3"></circle>
            <circle id="Oval" fill="#BFD9FF" fill-rule="nonzero" cx="103.7" cy="117.7" r="3"></circle>
            <circle id="Oval" fill="#BFD9FF" fill-rule="nonzero" cx="371.1" cy="261.6" r="2.7"></circle>
            <path d="M455.4,516.1 C440.1,542.8 479.6,570.9 453.4,585.4 C434.7,595.7 416.9,614.4 395.2,612 C373.5,609.5 377.8,557.9 377.8,557.9 L431.6,503.2 L455.4,516.1 Z" id="Shape" fill="#2B2B2B" fill-rule="nonzero"></path>
            <path d="M246.6,424.5 C245.8,421.7 245.8,418.6 246.5,415.8 C247.7,411.2 244.9,406.4 240.3,405.2 L151.9,381.1 C146.8,379.7 143.9,386.7 148.6,389.3 L188.1,411.3 L191.6,431.9 L249.9,436.5 L246.6,424.5 Z" id="Shape" fill="#FDC068" fill-rule="nonzero"></path>
            <path d="M320.2,626.2 C320.3,630 320.9,633.7 321.7,637.4 L225.5,633.7 L201.5,491.2 L198,470.1 L191.6,431.9 L249.9,436.5 L252.4,445.5 L259.3,471.5 L280.5,550.7 L325.9,547.1 C323.6,551 321.8,555.2 320.5,559.5 C318.5,572.8 317.2,585.3 318.2,598.6 C318.7,607.9 319.8,617 320.2,626.2 Z" id="Shape" fill="#4C7DE0" fill-rule="nonzero"></path>
            <circle id="Oval" fill="#94B1EC" fill-rule="nonzero" cx="247.3" cy="516.1" r="14.1"></circle>
            <path d="M222.8,479.1 C222.8,486.8 216.5,493.2 208.7,493.2 C206.2,493.2 203.6,492.5 201.5,491.2 L198,470.1 C203,464.2 211.9,463.4 217.8,468.4 C221,471 222.8,475 222.8,479.1 Z" id="Shape" fill="#94B1EC" fill-rule="nonzero"></path>
            <path d="M259.2,471.6 C252.6,475.7 243.9,473.6 239.8,467 C235.7,460.4 237.8,451.7 244.4,447.6 C246.6,446.2 249.2,445.5 251.9,445.5 L252.3,445.5 L259.2,471.6 Z" id="Shape" fill="#94B1EC" fill-rule="nonzero"></path>
            <path d="M393.8,582.3 L383.3,544.7 C378.6,529.9 386.8,514.1 401.5,509.4 C416.3,504.7 432.1,512.9 436.8,527.6 C436.9,527.8 436.9,528 436.9,528.2 L446.7,563.3 L393.8,582.3 Z" id="Shape" fill="url(#linearGradient-7)" fill-rule="nonzero"></path>
            <path d="M446.7,563.3 L454,589 L533.7,605.5 C544,607.1 551.1,616.7 549.5,627.1 C548.1,636.3 540.2,643 530.9,643.1 L434.1,643.5 C423.4,644.2 402.1,638.6 398,628.7 L397.2,626.7 L393.8,582.3 L446.7,563.3 Z" id="Shape" fill="#FDC068" fill-rule="nonzero"></path>
            <path d="M317.4,547.9 C283,537.2 250.8,559 283,614.6 C296.5,637.9 330.7,639.9 330.7,639.9 L317.4,547.9 Z" id="Shape" fill="#4C7DE0" fill-rule="nonzero"></path>
            <path d="M330.1,640 L328.6,640.4 C318.6,642.6 308.3,643.8 298.1,643.8 L244.1,643.7 L216.1,643.7 L196.1,643.7 C184.7,643.7 174.5,636.6 170.6,626 C168.7,620.9 166.4,615 163.9,608.5 C160.8,600.5 157.3,591.6 153.7,582.2 C143.4,555.8 131.3,525.8 121.9,502 C118.4,493.2 115.2,485.3 112.6,478.8 C107.9,467.1 104.9,459.8 104.9,459.8 L162.2,450.7 L176.5,475.3 L188.7,496.1 L220.8,551.1 L318.2,553.1 L330.1,640 Z" id="Shape" fill="#4C7DE0" fill-rule="nonzero"></path>
            <path d="M154.8,437.9 C153.4,435.4 152.5,432.5 152.4,429.6 C152.3,424.8 148.3,421 143.6,421 L52,421 C46.7,421 45.8,428.5 50.9,429.8 L94.8,440.6 L104.9,459.6 L162.2,450.5 L154.8,437.9 Z" id="Shape" fill="#FDC068" fill-rule="nonzero"></path>
            <path d="M416.3,503.2 C418.1,505.2 420.1,507 421.7,509.4 C425.9,515.6 426,517 436,531.6 C448.9,550.6 430.6,573.9 409.6,578.6 C402.6,580.2 398.5,583.3 396.2,588 C383,615.5 365.1,623.5 353.8,630.7 C346.6,635.2 338.5,638.3 330.2,639.9 L317.5,547.9 C334.9,536.5 343.5,511.5 364.5,500.2 C378.7,492.4 406.2,492.1 416.3,503.2 Z" id="Shape" fill="url(#linearGradient-8)" fill-rule="nonzero"></path>
            <path d="M397.3,533.3 L394.8,527.7 C391.5,520.2 393.6,511.3 399.8,506 L436.3,484.1 L446.7,515.4 L421.3,537.5 C415.7,543.4 406.5,543.6 400.5,538 C399.2,536.7 398.1,535.1 397.3,533.3 Z" id="Shape" fill="#FDC068" fill-rule="nonzero"></path>
            <polygon id="Shape" fill="#2B2B2B" fill-rule="nonzero" points="419.5 507.9 426.3 533 443.6 518"></polygon>
            <path d="M451.8,521.7 L451.4,521.7 C429.5,522.7 411,505.8 410,483.9 L409.5,473 C408.7,455.9 421.9,441.4 439,440.7 C439.5,440.7 439.9,440.7 440.4,440.7 C457,440.7 470.6,453.7 471.4,470.3 L471.6,475.8 L471.9,482.7 L472.6,498.9 C473.3,510.9 464,521.2 451.8,521.7 Z" id="Shape" fill="#FDC068" fill-rule="nonzero"></path>
            <path d="M472,482.6 C470.1,482.3 468.8,480.5 469.1,478.5 C469.3,477.1 470.3,476 471.7,475.7 L472,482.6 Z" id="Shape" fill="#2B2B2B" fill-rule="nonzero"></path>
            <path d="M464.5,490.3 C464.1,490.3 463.8,490.2 463.6,489.8 C463.2,489.3 463.4,488.6 463.9,488.3 L466.6,486.5 C466.9,486.2 467,485.9 467,485.6 C467,485.2 466.9,484.9 466.6,484.7 L462,479.6 C461.6,479.2 461.6,478.4 462.1,478.1 C462.5,477.7 463.3,477.7 463.6,478.2 L468.2,483.3 C468.9,484 469.1,484.9 469.1,485.8 C469,486.7 468.7,487.6 468,488.2 L467.8,488.3 L465.1,490.1 C464.9,490.2 464.7,490.3 464.5,490.3 Z" id="Shape" fill="#2B2B2B" fill-rule="nonzero"></path>
            <path d="M461.5,501.8 C459.8,501.8 458.1,501.1 456.4,499.6 C456,499.2 455.9,498.5 456.3,498.1 C456.7,497.7 457.4,497.6 457.8,498 C459.5,499.4 461,499.9 462.3,499.6 C464.1,499.2 465,497.4 465.1,497.4 C465.4,496.9 466,496.7 466.5,497 C467,497.3 467.2,497.9 466.9,498.4 C466.8,498.5 465.5,501.1 462.6,501.7 C462.2,501.8 461.9,501.8 461.5,501.8 Z" id="Shape" fill="#2B2B2B" fill-rule="nonzero"></path>
            <circle id="Oval" fill="#2B2B2B" fill-rule="nonzero" cx="452.5" cy="480.1" r="3.5"></circle>
            <path d="M439.2,437.7 C439.3,451.1 459.5,466.9 471.8,466.8 C471.7,466.7 471,436.9 439.2,437.7 Z" id="Shape" fill="#2B2B2B" fill-rule="nonzero"></path>
            <path d="M444.4,437.6 C444.4,437.6 453.3,497.8 411.8,502 C411.8,502 409.3,482.5 409.2,468.2 C409.1,453.9 418.7,436.1 444.4,437.6 Z" id="Shape" fill="#2B2B2B" fill-rule="nonzero"></path>
            <rect id="Rectangle-path" fill="#F9D5FF" fill-rule="nonzero" x="400.1" y="632.4" width="87.3" height="10.9"></rect>
            <path d="M342.9,580.1 L339.1,532.5 C338.7,517.2 350.9,504.4 366.3,504.1 C381.6,503.7 394.4,515.9 394.7,531.3 C394.7,531.4 394.7,531.7 394.7,531.8 L395.6,576.4 L342.9,580.1 Z" id="Shape" fill="url(#linearGradient-9)" fill-rule="nonzero"></path>
            <path d="M395.7,576.4 L395.7,600.7 L462,606.8 C472.2,607.2 480.2,615.7 479.9,625.8 C479.6,634.8 472.7,642.4 463.8,643.5 L362.6,643.5 C352.5,640.2 345.5,630.9 345.4,620.3 L345.4,618.2 L343,580.1 L395.7,576.4 Z" id="Shape" fill="#FDC068" fill-rule="nonzero"></path>
            <path d="M479.6,623.2 C479.1,623.2 478.6,622.8 478.5,622.3 C477.1,614.2 470.2,608.1 461.9,607.8 L396,601.2 C395.4,601.1 395,600.6 395.1,600 C395.2,599.4 395.7,599 396.3,599.1 L462.1,605.7 C471.3,606 479.1,612.9 480.6,621.9 C480.7,622.5 480.3,623.1 479.7,623.1 C479.7,623.2 479.6,623.2 479.6,623.2 Z" id="Shape" fill="#2B2B2B" fill-rule="nonzero"></path>
            <path d="M495.5,542.1 L590.4,542.1 C593.8,542 596.6,544.7 596.6,548 C596.6,548.4 596.6,548.7 596.5,549 L586.4,636.5 C585.9,640.4 582.6,643.4 578.6,643.4 L476.9,643.4 L487.8,549 C488.3,545.2 491.6,542.3 495.5,542.1 Z" id="Shape" fill="#F9D5FF" fill-rule="nonzero"></path>
            <ellipse id="Oval" fill="#FFFFFF" fill-rule="nonzero" transform="translate(540.327810, 592.829900) rotate(-43.359026) translate(-540.327810, -592.829900) " cx="540.32781" cy="592.8299" rx="9.50044635" ry="8.50039936"></ellipse>
            <path d="M275.8,553.1 L220,553.1 L209.6,534.1 C209.3,533.6 209.5,532.9 210,532.7 C210.5,532.4 211.2,532.6 211.4,533.1 L221.2,550.9 L275.6,550.9 C276.2,550.9 276.7,551.4 276.7,552 C276.7,552.6 276.3,553.1 275.8,553.1 Z" id="Shape" fill="#2B2B2B" fill-rule="nonzero"></path>
            <path d="M432.1,554.3 C431.6,554 430.9,554.3 430.7,554.8 C425.9,564.8 416.7,577.6 400.2,581.6 L395.7,582.5 C395.7,582.7 395.7,582.9 395.8,583.1 C395.8,583.6 395.8,584.2 395.8,584.7 C395.9,584.7 395.9,584.7 396,584.7 L400.7,583.7 C418,579.4 427.6,566.1 432.7,555.7 C432.9,555.2 432.6,554.6 432.1,554.3 Z" id="Shape" fill="#2B2B2B" fill-rule="nonzero"></path>
            <path d="M396.1,601.3 C395.5,601.3 395,600.9 395,600.2 L394.1,552.8 C394.1,552.2 394.5,551.7 395.2,551.7 C395.8,551.7 396.3,552.1 396.3,552.8 L397.2,600.2 C397.3,600.8 396.7,601.3 396.1,601.3 C396.2,601.3 396.1,601.3 396.1,601.3 Z" id="Shape" fill="#2B2B2B" fill-rule="nonzero"></path>
            <path d="M413.3,452.2 C403.6,467.4 397.1,471.9 367.4,470.9 C291.4,468.6 264.7,534.6 303.9,572.1 C343,609.7 372.9,577.9 382.3,546 C391.8,514.1 407.9,505.9 422.3,499.3 C433.9,494 420,454.5 420,454.5 L413.3,452.2 Z" id="Shape" fill="#2B2B2B" fill-rule="nonzero"></path>
            <path d="M388.1,602.6 C387.6,602.6 387.1,602.2 387,601.7 C386.9,601.1 387.3,600.5 387.9,600.5 L395.4,599.4 C396,599.3 396.6,599.7 396.6,600.3 C396.7,600.9 396.3,601.5 395.7,601.5 L388.2,602.6 C388.3,602.6 388.2,602.6 388.1,602.6 Z" id="Shape" fill="#2B2B2B" fill-rule="nonzero"></path>
            <path d="M193.1,432 L249.8,436.3 C251.1,436.4 252.3,437.3 252.6,438.6 L255.2,447.9 C255.7,449.6 254.7,451.3 253,451.8 C252.6,451.9 252.3,451.9 252,451.9 L194.1,449.3 C192.6,449.2 191.3,448.1 191.1,446.6 L189.7,435.6 C189.5,433.9 190.7,432.3 192.4,432.1 C192.6,432 192.9,432 193.1,432 Z" id="Shape" fill="#4C7DE0" fill-rule="nonzero"></path>
            <path d="M106.9,459.3 L161.8,449.7 C163.8,449.3 165.7,450.4 166.6,452.1 L170.1,458.9 C171.3,461.1 170.4,463.8 168.1,465 C167.7,465.2 167.3,465.4 166.9,465.4 L111.5,476 C109.3,476.4 107.2,475.2 106.4,473.2 L103.4,465.4 C102.5,463.1 103.7,460.5 106.1,459.5 C106.4,459.4 106.6,459.4 106.9,459.3 Z" id="Shape" fill="#4C7DE0" fill-rule="nonzero"></path>
            <path d="M172.9,595.3 C172.9,601.1 169.4,606.3 163.9,608.4 C160.8,600.4 157.3,591.5 153.7,582.1 C160.9,579.3 169.1,582.9 171.9,590.1 C172.6,591.8 172.9,593.5 172.9,595.3 Z" id="Shape" fill="#94B1EC" fill-rule="nonzero"></path>
            <circle id="Oval" fill="#94B1EC" fill-rule="nonzero" cx="162.2" cy="537.9" r="14.1"></circle>
            <path d="M137.2,487.9 C137.2,495.6 130.9,502 123.2,502 C122.8,502 122.3,502 121.9,501.9 C118.4,493.1 115.2,485.2 112.6,478.7 C117.7,472.8 126.6,472.2 132.4,477.3 C135.4,480 137.2,483.9 137.2,487.9 Z" id="Shape" fill="#94B1EC" fill-rule="nonzero"></path>
            <path d="M188.6,495.8 C184.9,502.6 176.4,505.1 169.5,501.4 C162.6,497.7 160.2,489.2 163.9,482.3 C166.4,477.7 171.1,474.9 176.3,474.9 L176.6,474.9 L188.6,495.8 Z" id="Shape" fill="#94B1EC" fill-rule="nonzero"></path>
            <circle id="Oval" fill="#94B1EC" fill-rule="nonzero" cx="208.8" cy="578.5" r="14.1"></circle>
            <path d="M244.2,641.9 C244.2,642.5 244.2,643 244.1,643.6 L216.1,643.6 C216,643.1 216,642.5 216,642 C216,634.3 222.3,627.9 230.1,627.9 C237.9,627.9 244.2,634.2 244.2,641.9 Z" id="Shape" fill="#94B1EC" fill-rule="nonzero"></path>
            <circle id="Oval" fill="#94B1EC" fill-rule="nonzero" cx="265.9" cy="573.8" r="14.1"></circle>
            <circle id="Oval" fill="#94B1EC" fill-rule="nonzero" cx="300.1" cy="619.9" r="14.1"></circle>
            <path d="M254,453.3 L194.4,450.5 C193.8,450.5 193.3,450 193.4,449.3 C193.4,448.7 193.9,448.2 194.6,448.3 L254.2,451.1 C254.8,451.1 255.3,451.6 255.2,452.3 C255.1,452.8 254.6,453.3 254,453.3 Z" id="Shape" fill="#2B2B2B" fill-rule="nonzero"></path>
            <path d="M111.5,477.2 C111,477.2 110.6,476.8 110.4,476.3 C110.3,475.7 110.7,475.1 111.3,475 L169.6,464 C170.2,463.9 170.8,464.3 170.9,464.9 C171,465.5 170.6,466.1 170,466.2 L111.7,477.1 C111.7,477.2 111.6,477.2 111.5,477.2 Z" id="Shape" fill="#2B2B2B" fill-rule="nonzero"></path>
            <path d="M433.8,415.2 C433.5,415.2 433.2,415.1 433,414.9 C431.9,413.8 430.9,412.7 430,411.8 C429.6,411.4 429.6,410.6 430.1,410.3 C430.5,409.9 431.3,409.9 431.6,410.4 C432.5,411.4 433.6,412.4 434.6,413.5 C435,413.9 435,414.6 434.6,415 C434.3,415.2 434,415.2 433.8,415.2 Z" id="Shape" fill="#2B2B2B" fill-rule="nonzero"></path>
            <path d="M425.1,405.7 C424.8,405.7 424.4,405.6 424.2,405.3 C422.3,403.1 420.6,400.7 419,398.4 C418.6,397.9 418.8,397.2 419.3,396.9 C419.8,396.5 420.5,396.7 420.8,397.2 C422.4,399.4 424.1,401.7 425.9,403.9 C426.3,404.3 426.2,405.1 425.8,405.4 C425.5,405.6 425.3,405.7 425.1,405.7 Z M415.3,391.7 C414.9,391.7 414.6,391.5 414.4,391.1 C413,388.5 411.7,385.9 410.5,383.4 C410.3,382.8 410.5,382.2 411.1,382 C411.7,381.8 412.3,382 412.5,382.6 C413.6,385.1 414.8,387.7 416.3,390.1 C416.6,390.6 416.4,391.3 415.9,391.5 C415.6,391.6 415.5,391.7 415.3,391.7 Z M408.6,376 C408.1,376 407.7,375.7 407.6,375.2 C406.8,372.4 406.2,369.5 405.9,366.7 C405.8,366.1 406.3,365.5 406.8,365.5 C407.3,365.5 408,365.9 408,366.4 C408.3,369.1 408.9,371.8 409.7,374.6 C409.8,375.2 409.6,375.8 409,376 C408.8,376 408.7,376 408.6,376 Z M406.6,359.1 C405.9,359.1 405.5,358.5 405.5,357.9 C405.6,355 406.1,352 406.8,349.3 C406.9,348.7 407.5,348.4 408.1,348.5 C408.7,348.6 409,349.2 408.9,349.8 C408.2,352.5 407.8,355.2 407.7,358 C407.7,358.6 407.2,359.1 406.6,359.1 Z M410.6,342.6 C410.5,342.6 410.3,342.6 410.2,342.5 C409.6,342.3 409.4,341.6 409.6,341.1 C410.8,338.5 412.2,335.9 413.9,333.5 C414.3,333 414.9,332.8 415.4,333.2 C415.9,333.6 416.1,334.2 415.7,334.7 C414.1,337 412.7,339.5 411.6,342 C411.4,342.4 411,342.6 410.6,342.6 Z M474.2,334 C473.6,334 473.2,333.6 473.1,333.1 C473,332.5 473.5,331.9 474,331.9 C477,331.6 479.6,330.7 481.6,329.4 C482.1,329.1 482.8,329.3 483.1,329.7 C483.4,330.2 483.2,330.9 482.8,331.2 C480.6,332.6 477.6,333.6 474.3,333.9 C474.3,334 474.2,334 474.2,334 Z M465.7,333.6 C465.6,333.6 465.6,333.6 465.5,333.6 C462.7,333.1 459.9,332.2 457.1,331.1 C456.5,330.9 456.3,330.2 456.5,329.7 C456.7,329.2 457.4,328.9 457.9,329.1 C460.5,330.3 463.2,331.1 465.8,331.5 C466.4,331.6 466.8,332.2 466.7,332.7 C466.7,333.2 466.2,333.6 465.7,333.6 Z M420.1,328.5 C419.8,328.5 419.6,328.4 419.4,328.2 C419,327.8 419,327.1 419.3,326.7 C421.3,324.6 423.4,322.6 425.7,320.8 C426.1,320.4 426.9,320.5 427.2,320.9 C427.6,321.3 427.5,322.1 427.1,322.4 C424.9,324.1 422.8,326.1 420.9,328 C420.7,328.3 420.4,328.5 420.1,328.5 Z M450.1,326.9 C449.9,326.9 449.7,326.8 449.4,326.7 C447.1,325 444.8,323.1 442.8,320.9 C442.4,320.5 442.4,319.7 442.9,319.4 C443.3,319 444.1,319 444.4,319.5 C446.4,321.5 448.5,323.4 450.6,325 C451.1,325.4 451.2,326 450.8,326.5 C450.8,326.7 450.5,326.9 450.1,326.9 Z M486.1,324.3 C485.6,324.3 485.1,323.9 485,323.4 C484.7,321.4 483.3,319.1 480.9,317 C480.5,316.6 480.4,315.9 480.8,315.5 C481.2,315.1 481.9,315 482.3,315.4 C485.1,317.9 486.8,320.5 487.1,323.1 C487.2,323.7 486.7,324.3 486.2,324.3 C486.3,324.3 486.2,324.3 486.1,324.3 Z M433.5,317.8 C433.1,317.8 432.8,317.6 432.6,317.3 C432.3,316.8 432.5,316.1 433,315.8 C434.4,315 435.8,314.2 437.3,313.6 C435.9,311.4 434.6,309 433.3,306.5 C433,306 433.3,305.3 433.8,305.1 C434.3,304.8 435,305.1 435.2,305.6 C436.4,308.1 437.7,310.5 439.2,312.7 C439.7,312.5 440.2,312.3 440.8,312 C441.4,311.7 442,312.1 442.2,312.6 C442.4,313.2 442.1,313.8 441.6,314 C439,315.1 436.5,316.3 434.1,317.7 C433.9,317.8 433.7,317.8 433.5,317.8 Z M474.5,312.6 C474.4,312.6 474.2,312.6 474.1,312.5 C471.6,311.5 469,310.8 466.1,310.3 C465.5,310.2 465.1,309.6 465.2,309.1 C465.3,308.5 465.9,308.1 466.4,308.2 C469.4,308.6 472.3,309.4 474.9,310.5 C475.5,310.7 475.7,311.4 475.5,311.9 C475.3,312.3 474.9,312.6 474.5,312.6 Z M449.3,311.5 C448.8,311.5 448.4,311.1 448.2,310.7 C448.1,310.1 448.4,309.5 449,309.4 C451.9,308.7 454.8,308.2 457.6,308 C458.2,307.9 458.7,308.4 458.8,309 C458.9,309.6 458.4,310.1 457.8,310.2 C455.1,310.4 452.3,310.9 449.6,311.5 C449.4,311.4 449.4,311.5 449.3,311.5 Z M431,299.2 C430.6,299.2 430.1,298.9 430,298.5 C429.1,295.8 428.3,293.1 427.7,290.2 C427.6,289.6 427.9,289 428.5,288.9 C429.1,288.8 429.7,289.1 429.8,289.7 C430.5,292.5 431.2,295.3 432.1,297.8 C432.3,298.4 432,299 431.4,299.2 C431.3,299.2 431.1,299.2 431,299.2 Z M427.1,282.6 C426.6,282.6 426.1,282.2 426,281.7 C425.6,279 425.3,276.1 425.1,273.2 C425,272.6 425.5,272.1 426.1,272 C426.7,271.9 427.2,272.4 427.3,273 C427.5,275.9 427.8,278.7 428.2,281.4 C428.2,281.9 427.8,282.5 427.1,282.6 C427.2,282.6 427.2,282.6 427.1,282.6 Z M425.8,265.6 C425.2,265.6 424.7,265.1 424.7,264.5 C424.7,263.8 424.7,263.3 424.7,262.6 C424.7,260.4 424.8,258.1 424.8,255.9 C424.8,255.3 425.3,254.8 426,254.9 C426.6,254.9 427.1,255.4 427,256.1 C426.9,258.3 426.9,260.6 426.9,262.8 C426.9,263.5 426.9,264 426.9,264.7 C427,265.1 426.5,265.5 425.8,265.6 C425.9,265.6 425.8,265.6 425.8,265.6 Z" id="Shape" fill="#2B2B2B" fill-rule="nonzero"></path>
            <path d="M426.6,248.4 C425.9,248.3 425.5,247.8 425.5,247.2 C425.6,245.8 425.8,244.3 425.9,242.9 C426,242.3 426.5,241.9 427.1,242 C427.7,242.1 428.1,242.6 428,243.2 C427.9,244.6 427.7,246.1 427.6,247.5 C427.6,248 427.1,248.4 426.6,248.4 Z" id="Shape" fill="#2B2B2B" fill-rule="nonzero"></path>
            <polygon id="Shape" fill="#F9D5FF" fill-rule="nonzero" points="172.3 216 272.7 164.6 230 256.3"></polygon>
            <polygon id="Shape" fill="#F3ADFF" fill-rule="nonzero" points="272.7 164.6 193.1 229.7 206.1 239.6"></polygon>
            <polygon id="Shape" fill="#F3ADFF" fill-rule="nonzero" points="193.1 229.7 198.6 256.3 206.1 239.6"></polygon>
        </g>
    </g>
</svg>