<?xml version="1.0" encoding="UTF-8"?>
<svg width="698px" height="588px" viewBox="0 0 698 588" version="1.1" xmlns="http://www.w3.org/2000/svg" xmlns:xlink="http://www.w3.org/1999/xlink">
    <defs>
        <linearGradient x1="68.4357455%" y1="24.3144548%" x2="21.0255562%" y2="99.5267579%" id="linearGradient-1">
            <stop stop-color="#FFD8A1" offset="0%"></stop>
            <stop stop-color="#FFFFFF" offset="100%"></stop>
        </linearGradient>
        <linearGradient x1="49.9941594%" y1="17.9044917%" x2="49.9941594%" y2="96.7125991%" id="linearGradient-2">
            <stop stop-color="#C0DDFC" offset="0%"></stop>
            <stop stop-color="#D3E7FD" offset="19%"></stop>
            <stop stop-color="#EBF4FE" offset="49%"></stop>
            <stop stop-color="#FAFCFF" offset="77%"></stop>
            <stop stop-color="#FFFFFF" offset="100%"></stop>
        </linearGradient>
        <linearGradient x1="50.0774757%" y1="27.4608242%" x2="50.0774757%" y2="167.280232%" id="linearGradient-3">
            <stop stop-color="#F48B94" offset="0%"></stop>
            <stop stop-color="#F4A9A6" offset="41%"></stop>
            <stop stop-color="#FED3B5" offset="50%"></stop>
            <stop stop-color="#DBECC2" offset="60%"></stop>
            <stop stop-color="#ADDCC8" offset="100%"></stop>
        </linearGradient>
        <linearGradient x1="50.0541261%" y1="1.95285614%" x2="50.0541261%" y2="210.37282%" id="linearGradient-4">
            <stop stop-color="#F48B94" offset="0%"></stop>
            <stop stop-color="#F4A9A6" offset="41%"></stop>
            <stop stop-color="#FED3B5" offset="50%"></stop>
            <stop stop-color="#DBECC2" offset="60%"></stop>
            <stop stop-color="#ADDCC8" offset="100%"></stop>
        </linearGradient>
        <linearGradient x1="50.0238977%" y1="100.791706%" x2="50.0238977%" y2="2.85562692%" id="linearGradient-5">
            <stop stop-color="#EA979A" offset="0%"></stop>
            <stop stop-color="#F2D38B" offset="41%"></stop>
            <stop stop-color="#7E9DAE" offset="50%"></stop>
            <stop stop-color="#90979D" offset="60%"></stop>
            <stop stop-color="#7EBDDB" offset="100%"></stop>
        </linearGradient>
        <linearGradient x1="49.9899644%" y1="104.520159%" x2="49.9899644%" y2="3.42930153%" id="linearGradient-6">
            <stop stop-color="#EA979A" offset="0%"></stop>
            <stop stop-color="#F2D38B" offset="41%"></stop>
            <stop stop-color="#7E9DAE" offset="50%"></stop>
            <stop stop-color="#90979D" offset="60%"></stop>
            <stop stop-color="#7EBDDB" offset="100%"></stop>
        </linearGradient>
        <linearGradient x1="50.0355427%" y1="-1.86980746%" x2="50.0355427%" y2="94.1580817%" id="linearGradient-7">
            <stop stop-color="#F48B94" offset="0%"></stop>
            <stop stop-color="#F4A9A6" offset="41%"></stop>
            <stop stop-color="#FED3B5" offset="50%"></stop>
            <stop stop-color="#DBECC2" offset="60%"></stop>
            <stop stop-color="#ADDCC8" offset="100%"></stop>
        </linearGradient>
        <linearGradient x1="50.0133615%" y1="246.770248%" x2="50.0133615%" y2="10.9961433%" id="linearGradient-8">
            <stop stop-color="#6B9C83" offset="0%"></stop>
            <stop stop-color="#A6A6A4" offset="40%"></stop>
            <stop stop-color="#9F9FC8" offset="50%"></stop>
            <stop stop-color="#9FCCEC" offset="59%"></stop>
            <stop stop-color="#FFE7B0" offset="100%"></stop>
        </linearGradient>
        <linearGradient x1="93.4606497%" y1="26.4048086%" x2="-109.908226%" y2="108.839378%" id="linearGradient-9">
            <stop stop-color="#F8809A" offset="0%"></stop>
            <stop stop-color="#FFE651" offset="76%"></stop>
            <stop stop-color="#FFEEC3" offset="100%"></stop>
        </linearGradient>
        <linearGradient x1="87.1326749%" y1="17.038526%" x2="10.0634861%" y2="63.2350068%" id="linearGradient-10">
            <stop stop-color="#F8809A" offset="0%"></stop>
            <stop stop-color="#FFE651" offset="76%"></stop>
            <stop stop-color="#FFEEC3" offset="100%"></stop>
        </linearGradient>
        <linearGradient x1="152.713734%" y1="8.13182131%" x2="-60.5101813%" y2="106.822563%" id="linearGradient-11">
            <stop stop-color="#F8809A" offset="0%"></stop>
            <stop stop-color="#FFE651" offset="76%"></stop>
            <stop stop-color="#FFEEC3" offset="100%"></stop>
        </linearGradient>
    </defs>
    <g id="Page-1" stroke="none" stroke-width="1" fill="none" fill-rule="evenodd">
        <g id="marginalia-teamwork-copy" transform="translate(-275.000000, -56.000000)">
            <rect id="Rectangle-path" fill-opacity="0" fill="#FFFFFF" fill-rule="nonzero" x="0" y="0.9" width="1280" height="720"></rect>
            <g id="Group" opacity="0.3" transform="translate(282.000000, 57.000000)">
                <path d="M688.5,2.4 L688.5,584.4 L2.5,584.4 L2.5,2.4 L688.5,2.4 Z M690.6,0.1 L0.3,0.1 L0.3,586.6 L690.7,586.6 L690.6,0.1 Z" id="Shape" fill="#C4ECFE" fill-rule="nonzero"></path>
                <path d="M0.3,417 L690.6,417" id="Shape" stroke="#C4ECFE" stroke-width="2.91"></path>
                <path d="M0.3,333 L690.6,333" id="Shape" stroke="#C4ECFE" stroke-width="2.91"></path>
                <path d="M0.3,417 L690.6,417" id="Shape" stroke="#C4ECFE" stroke-width="2.91"></path>
                <path d="M0.3,500.9 L690.6,500.9" id="Shape" stroke="#C4ECFE" stroke-width="2.91"></path>
                <path d="M0.3,249 L690.6,249" id="Shape" stroke="#C4ECFE" stroke-width="2.91"></path>
                <path d="M0.3,165 L690.6,165" id="Shape" stroke="#C4ECFE" stroke-width="2.91"></path>
                <path d="M0.3,81.1 L690.6,81.1" id="Shape" stroke="#C4ECFE" stroke-width="2.91"></path>
            </g>
            <path d="M765.8,643.6 C692.1,638.8 668.1,538.2 625.2,498.4 C582.3,458.6 489.5,487 469.4,378.6 C455.9,306.2 395.7,303 345.4,276.4 C318,261.9 284.9,281.8 284.9,312.8 L284.9,643.6 L765.8,643.6 Z" id="Shape" fill="url(#linearGradient-1)" fill-rule="nonzero"></path>
            <path d="M719.3,643.6 C791.4,643.6 789.1,534.2 851.9,519.7 C876.9,513.9 890.6,495.4 902.2,475.3 C921.5,441.8 972.7,455.3 972.7,494 L972.7,643.6 L719.3,643.6 Z" id="Shape" fill="url(#linearGradient-2)" fill-rule="nonzero"></path>
            <rect id="Rectangle-path" fill="#2B2B2B" fill-rule="nonzero" x="789.1" y="640.4" width="183.6" height="3.2"></rect>
            <path d="M863.6,237.9 L785.3,264.6 L782.8,265.4 C773.6,268.5 763.5,265.5 757.5,257.9 L729.7,223.4 L717.5,208.2 L734.6,190.1 L745.9,178.2 L782.1,209.5 L846.4,187.6 C860.2,182.7 875.4,189.9 880.3,203.7 C885.2,217.5 878,232.7 864.2,237.6 C864.1,237.7 863.9,237.8 863.6,237.9 Z" id="Shape" fill="url(#linearGradient-3)" fill-rule="nonzero"></path>
            <path d="M746,178.2 L734.7,190.1 L717.6,208.2 L706.5,194.5 C700,186.1 701.6,174 710,167.5 C717.1,162 727.1,162.1 734,167.9 L734.6,168.4 L746,178.2 Z" id="Shape" fill="#FDC068" fill-rule="nonzero"></path>
            <path d="M821.3,267.6 C823.7,240.8 841.9,243.6 836.5,225.1 C831.1,206.6 841.3,182 862,183.8 C877.8,185.2 879,184.7 885.7,185.2 C902,186.6 919.5,200.3 920.2,215.6 C920.8,228.7 910.1,268.6 909.6,274.9 L821.3,267.6 Z" id="Shape" fill="url(#linearGradient-4)" fill-rule="nonzero"></path>
            <path d="M897,291.9 C883.5,401.7 853.9,625.1 853.9,625.1 L801.8,625.8 C796.2,566 798.2,495 802.2,435.1 C803.1,421.6 821.3,267.7 821.3,267.7 L897,291.9 Z" id="_Path_" fill="url(#linearGradient-5)" fill-rule="nonzero"></path>
            <path d="M854,343.7 C857.5,366.6 860.4,401.6 851.3,422.5 C842.7,442.1 863,459.5 855.9,481.2 C848.7,502.9 865.7,539.2 863.5,556.2 L879.9,432.5 L854,343.7 Z" id="Shape" fill="#2B2B2B" fill-rule="nonzero"></path>
            <path d="M928.1,416.1 L914,274.8 L821.5,266 C820.6,277.1 828.8,291.4 842,299.1 C842,299.1 849.9,381 869.2,445.5 C894,528.1 921.6,617.9 921.1,618.2 L967.6,594.6 L928.1,416.1 Z" id="_Path_2" fill="url(#linearGradient-6)" fill-rule="nonzero"></path>
            <circle id="Oval" fill="#FFEAE0" fill-rule="nonzero" cx="897" cy="93.4" r="23.1"></circle>
            <circle id="Oval" fill="#2B2B2B" fill-rule="nonzero" cx="875" cy="113.6" r="19.5"></circle>
            <path d="M892.3,124 L891.3,152.1 C890.9,161.7 882.9,169.2 873.3,168.9 L854.7,168.2 C843.8,167.8 835.2,158.6 835.7,147.7 L836.2,133.2 L836.4,127 L836.5,122 C837,106.9 849.5,95.1 864.4,95.1 C864.8,95.1 865.1,95.1 865.4,95.1 C880.8,95.7 892.9,108.6 892.3,124 Z" id="Shape" fill="#FDC068" fill-rule="nonzero"></path>
            <path d="M854.8,168.2 L873.4,168.9 C883,169.3 891.1,161.7 891.4,152.1 L892.4,124 C892.9,108.6 880.9,95.7 865.5,95.1 C850.1,94.6 837.2,106.6 836.6,122 L835.7,147.7 C835.3,158.6 843.9,167.8 854.8,168.2 Z" id="Shape"></path>
            <path d="M838.9,130.1 C838.9,131.7 837.7,133 836.3,133.2 L836.5,127 C837.8,127.4 838.9,128.6 838.9,130.1 Z" id="Shape" fill="#2B2B2B" fill-rule="nonzero"></path>
            <path d="M882.9,195.7 L903.2,191.1 C903.2,191.1 893.6,185 885.8,185.2 L882.9,195.7 Z" id="Shape" fill="#2B2B2B" fill-rule="nonzero"></path>
            <path d="M868.3,200.5 L890.5,193.2 C891.7,192.8 892.5,191.7 892.5,190.5 L891.8,139.5 L862.1,138.5 L857.4,192 C857,196.6 860.4,200.5 864.9,200.9 C866.1,201 867.2,200.8 868.3,200.5 Z" id="Shape" fill="#FDC068" fill-rule="nonzero"></path>
            <path d="M843.1,140 C843,140 842.7,139.9 842.6,139.9 L839.9,138.2 C838.7,137 838.5,135.2 839.7,133.9 L843.8,129.3 C844.2,128.9 844.7,128.9 845.1,129.2 C845.5,129.6 845.5,130.1 845.2,130.5 L841,135 C840.6,135.5 840.6,136.3 841.1,136.8 L843.6,138.4 C844,138.7 844.1,139.2 843.9,139.6 C843.6,139.8 843.3,140 843.1,140 Z" id="Shape" fill="#2B2B2B" fill-rule="nonzero"></path>
            <path d="M845.8,150.4 C845.5,150.4 845.1,150.4 844.9,150.3 C842.4,149.8 841.1,147.5 841.1,147.4 C840.9,147 841,146.4 841.5,146.2 C841.9,146 842.5,146.1 842.7,146.6 C842.7,146.6 843.6,148.3 845.3,148.6 C846.5,148.8 847.9,148.3 849.4,147.1 C849.8,146.8 850.3,146.8 850.7,147.2 C851,147.6 851,148.1 850.6,148.5 C848.8,149.7 847.3,150.4 845.8,150.4 Z" id="Shape" fill="#2B2B2B" fill-rule="nonzero"></path>
            <polygon id="Shape" fill="#2B2B2B" fill-rule="nonzero" points="859.6 168.3 871.6 168.8 858.5 180.4"></polygon>
            <circle id="Oval" fill="#2B2B2B" fill-rule="nonzero" cx="853.8" cy="130.9" r="3.2"></circle>
            <path d="M763.4,643.6 L845.8,643.2 C850.1,643.2 853.6,639.7 853.7,635.4 L853.9,625 L801.8,625.7 L762.4,635.6 C757.8,636.8 758.7,643.6 763.4,643.6 Z" id="Shape" fill="#2B2B2B" fill-rule="nonzero"></path>
            <path d="M892.6,643.6 L910,643.5 L968.2,614.6 C972,612.6 973.7,608 971.9,604.1 L967.5,594.6 L921,618.2 L906.9,631.8 L891.6,635.6 C887,636.8 887.8,643.6 892.6,643.6 Z" id="Shape" fill="#2B2B2B" fill-rule="nonzero"></path>
            <path d="M934.3,393.4 L932.2,407.4 C930.6,417.9 920.9,425.1 910.4,423.5 C901,422.1 894,414 894,404.5 L894,385.8 L934.3,393.4 Z" id="Shape" fill="#FDC068" fill-rule="nonzero"></path>
            <polygon id="Shape" fill="#FFFFFF" fill-rule="nonzero" points="821.5 266 901.1 273.5 904.5 282.7 820.6 272.6"></polygon>
            <path d="M894.1,385.8 L894,310.5 L871.4,228 C867.3,213.9 875.5,199.2 889.6,195.1 C903.7,191 918.4,199.2 922.5,213.3 C922.6,213.5 922.6,213.8 922.7,214 L946.1,299.9 L946.5,301.5 C947.2,303.9 947.3,306.4 946.9,308.9 L934.2,393.5 L894.1,385.8 Z" id="Shape" fill="url(#linearGradient-7)" fill-rule="nonzero"></path>
            <path d="M836.6,122 L847.1,110.4 L853.3,116 C858.5,120.8 862.3,127 864.2,133.9 C866.3,141.4 868.8,150.4 868.9,150.8 C874,165.1 882.2,169.8 894.7,169.8 L901.1,169.8 L892.6,122 C892.6,106.9 879.7,94.8 864.7,94.8 L863.8,94.8 C848.8,94.8 836.6,107 836.6,122 Z" id="Shape" fill="#FFEAE0" fill-rule="nonzero"></path>
            <path d="M858,406.4 C857.6,406.4 857.2,406.1 857.1,405.7 C853.2,388.3 849.2,362.6 846.6,344.2 C846.5,343.7 846.9,343.3 847.4,343.2 C847.9,343.1 848.3,343.5 848.4,344 C851,362.5 854.9,388.1 858.8,405.4 C858.9,405.9 858.6,406.3 858.1,406.5 C858.2,406.4 858.1,406.4 858,406.4 Z" id="Shape" fill="#2B2B2B" fill-rule="nonzero"></path>
            <path d="M882.9,272.2 C882.5,272.2 882.2,271.9 882,271.5 L875.8,248.8 C875.7,248.3 875.9,247.9 876.5,247.7 C877,247.6 877.4,247.8 877.6,248.4 L883.8,271.1 C883.9,271.6 883.7,272 883.1,272.2 C883,272.2 882.9,272.2 882.9,272.2 Z" id="Shape" fill="#2B2B2B" fill-rule="nonzero"></path>
            <path d="M826.4,251.5 C826.3,251.5 826.2,251.5 826,251.4 C825.6,251.3 825.3,250.7 825.5,250.2 C827.1,246.1 829.2,243.5 831.1,241.3 C834.2,237.5 836.7,234.6 835.7,226.8 C835.6,226.3 836,225.9 836.5,225.8 C837,225.7 837.4,226.1 837.5,226.6 C838.7,235.1 835.7,238.7 832.6,242.5 C830.7,244.8 828.8,247.2 827.3,250.9 C827.1,251.3 826.8,251.5 826.4,251.5 Z" id="Shape" fill="#2B2B2B" fill-rule="nonzero"></path>
            <path d="M787.9,216.7 C787.7,216.7 787.4,216.6 787.2,216.4 L781.5,210 C781.1,209.6 781.2,209.1 781.6,208.7 C782,208.3 782.5,208.4 782.9,208.8 L788.6,215.2 C789,215.6 788.9,216.1 788.5,216.5 C788.4,216.7 788.1,216.7 787.9,216.7 Z" id="Shape" fill="#2B2B2B" fill-rule="nonzero"></path>
            <path d="M898.9,326 C898.5,326 898.2,325.8 898,325.4 L893.1,310.9 C893,310.4 893.2,309.9 893.7,309.7 C894.2,309.5 894.7,309.8 894.9,310.3 L899.8,324.8 C899.9,325.3 899.7,325.8 899.2,326 C899.1,326 899,326 898.9,326 Z" id="Shape" fill="#2B2B2B" fill-rule="nonzero"></path>
            <path d="M727.9,164.4 C717.8,161.1 706.9,166.5 703.6,176.6 C701.6,182.7 702.7,189.4 706.7,194.5 L717.8,208.2 L730,223.4 C733,221.7 734.8,218.6 734.8,215.1 L734.8,175.6 C730.9,173 728.4,168.9 727.9,164.4 Z" id="Shape" fill="#2B2B2B" fill-rule="nonzero"></path>
            <path d="M610.6,56.4 L716.2,56.4 C722.6,56.4 727.8,61.6 727.8,68 L727.8,210 C727.8,216.4 722.6,221.6 716.2,221.6 L610.6,221.6 C604.2,221.6 599,216.4 599,210 L599,68 C599.1,61.6 604.3,56.4 610.6,56.4 Z" id="Shape" fill="#F9D5FF" fill-rule="nonzero"></path>
            <rect id="Rectangle-path" fill="#FFFFFF" fill-rule="nonzero" x="610" y="69.6" width="113.7" height="130.6"></rect>
            <circle id="Oval" fill="#FFFFFF" fill-rule="nonzero" cx="668.7" cy="210.5" r="5.2"></circle>
            <path d="M683.4,83.2 C683.4,93.8 674.8,102.4 664.1,102.4 C653.4,102.4 644.9,93.8 644.9,83.1 C644.9,78 646.9,73 650.6,69.4 L677.8,69.4 C681.3,73.2 683.4,78.1 683.4,83.2 Z" id="Shape" fill="#EA7068" fill-rule="nonzero"></path>
            <circle id="Oval" fill="#2B2B2B" fill-rule="nonzero" cx="664.1" cy="106.4" r="19.3"></circle>
            <path d="M723.7,162.8 L723.7,200.2 L610,200.2 L610,159.1 C620.4,154.8 622.1,150.6 627.4,143.2 C627.5,142.4 627.8,141.6 627.9,140.9 C628.6,137.7 629.5,134.8 630.4,132.1 C631.5,128.8 632.8,125.7 634.3,122.7 C635.1,121.2 635.9,119.7 636.7,118.4 C638.9,114.7 641.7,111.3 644.8,108.3 C648.1,105.1 652,102.7 656.4,101.1 C657.6,100.7 658.8,100.4 660,100.2 C660,100.2 663.5,100.1 668.6,102.1 C673.9,104.3 678.7,107.5 682.6,111.7 C686.2,115.5 689.3,119.7 691.9,124.3 C692,124.5 692.2,124.8 692.3,125 C692.5,125.3 692.7,125.7 692.8,125.9 C701.8,151.9 722.4,160.8 723.7,162.8 Z" id="Shape" fill="#EA7068" fill-rule="nonzero"></path>
            <circle id="Oval" fill="#FDC068" fill-rule="nonzero" cx="691" cy="141.1" r="10.8"></circle>
            <path d="M697.3,200.2 L626.2,200.2 C628.4,198.5 630.8,197 633.3,195.7 L633.4,195.6 C637.5,193.6 641.7,192.3 646.2,191.6 C647.4,191.4 648.7,191.3 650,191.2 C651.3,191.1 652.5,191.1 653.9,191.2 L675,192.6 C676.9,192.7 678.7,192.9 680.5,193.2 C686.5,194.3 692.3,196.7 697.3,200.2 Z" id="Shape" fill="url(#linearGradient-8)" fill-rule="nonzero"></path>
            <polygon id="Shape" fill="#FFFFFF" fill-rule="nonzero" points="680.5 195.1 679.4 200.2 647.3 200.2 645.9 194.2 645.9 194 646 194 653.5 194.2"></polygon>
            <circle id="Oval" fill="#FDC068" fill-rule="nonzero" cx="638.6" cy="139.1" r="10.8"></circle>
            <path d="M653.9,191.3 L653.5,194.3 L652.8,200.2 L640,200.2 L633.3,195.7 L633.4,195.6 C634.1,195.2 638.7,192.6 646.2,191.6 C647.4,191.5 648.7,191.3 650,191.2 C651.4,191.2 652.5,191.2 653.9,191.3 Z" id="Shape" fill="#2B2B2B" fill-rule="nonzero"></path>
            <path d="M680.5,195.1 C680.5,196.8 680.3,198.5 679.8,200.2 L646.7,200.2 C646.1,198.2 645.9,196.2 646,194.2 C646,194.1 646,194.1 646,194 L646.1,191.7 L647.6,168.6 L649.3,143.3 L663.3,143.8 L679.9,144.4 L680.1,167.1 L680.1,168.9 L680.2,178.9 L680.3,193.4 L680.5,195.1 Z" id="Shape" fill="#FDC068" fill-rule="nonzero"></path>
            <polygon id="Shape" fill="#2B2B2B" fill-rule="nonzero" points="653.9 172.2 680.2 187.1 680.5 167"></polygon>
            <path d="M664.2,174.3 C677.7,174.3 688.9,164.1 690.4,150.7 L692.9,127.3 C692.9,111.4 679.9,98.5 664.1,98.6 C648.2,98.6 635.3,111.6 635.4,127.4 L638,150.8 C639.4,164.1 650.7,174.3 664.2,174.3 Z" id="_Path_3" fill="#FDC068" fill-rule="nonzero"></path>
            <path d="M663.3,144.6 C662.9,144.6 662.6,144.5 662.5,144.1 C662.3,143.7 662.4,143.1 662.9,142.9 L665.6,141.5 C666.2,141.1 666.3,140.3 665.9,139.7 C664.2,137.5 663.4,134.9 663.7,132.2 L663.8,131.4 C663.9,130.9 664.3,130.5 664.8,130.6 C665.3,130.7 665.7,131.1 665.6,131.6 L665.5,132.4 C665.3,134.6 665.9,136.9 667.3,138.6 L667.4,138.7 C668.4,140.1 668.1,142.1 666.6,143 L666.5,143.1 L663.8,144.5 C663.6,144.6 663.5,144.6 663.3,144.6 Z" id="Shape" fill="#2B2B2B" fill-rule="nonzero"></path>
            <path d="M668.7,152.3 C668,159.6 659.9,157.6 659.9,152.3 L668.7,152.3 Z" id="Shape" fill="#FFFFFF" fill-rule="nonzero"></path>
            <circle id="Oval" fill="#2B2B2B" fill-rule="nonzero" cx="677.4" cy="133.9" r="2.9"></circle>
            <circle id="Oval" fill="#2B2B2B" fill-rule="nonzero" cx="652.3" cy="133.9" r="3"></circle>
            <path d="M634.3,124.1 L694.6,124.1 C694.6,107.5 681.1,94 664.5,94 C647.8,94 634.3,107.5 634.3,124.1 Z" id="Shape" fill="#EA7068" fill-rule="nonzero"></path>
            <path d="M738.6,171.7 L729.2,163.7 C726.4,161.3 722.1,161.6 719.6,164.4 C716.9,167.3 717,171.8 719.8,174.5 L735.1,189.3 L738.6,171.7 Z" id="Shape" fill="#FDC068" fill-rule="nonzero"></path>
            <circle id="Oval" fill="#BFD9FF" fill-rule="nonzero" cx="558.1" cy="414.1" r="3"></circle>
            <circle id="Oval" fill="#BFD9FF" fill-rule="nonzero" cx="768.3" cy="489.2" r="3"></circle>
            <circle id="Oval" fill="#BFD9FF" fill-rule="nonzero" cx="782.2" cy="86.1" r="3"></circle>
            <circle id="Oval" fill="#BFD9FF" fill-rule="nonzero" cx="947.2" cy="168.3" r="3"></circle>
            <circle id="Oval" fill="#BFD9FF" fill-rule="nonzero" cx="331.7" cy="117.7" r="3"></circle>
            <circle id="Oval" fill="#BFD9FF" fill-rule="nonzero" cx="599.1" cy="261.6" r="2.7"></circle>
            <path d="M683.4,516.1 C668.1,542.8 707.6,570.9 681.4,585.4 C662.7,595.7 644.9,614.4 623.2,612 C601.5,609.5 605.8,557.9 605.8,557.9 L659.6,503.2 L683.4,516.1 Z" id="Shape" fill="#2B2B2B" fill-rule="nonzero"></path>
            <rect id="Rectangle-path" fill="#2B2B2B" fill-rule="nonzero" x="282.3" y="640.4" width="203.2" height="3.2"></rect>
            <path d="M474.6,424.5 C473.8,421.7 473.8,418.6 474.5,415.8 C475.7,411.2 472.9,406.4 468.3,405.2 L379.9,381.1 C374.8,379.7 371.9,386.7 376.6,389.3 L416.1,411.3 L419.6,431.9 L477.9,436.5 L474.6,424.5 Z" id="Shape" fill="#FDC068" fill-rule="nonzero"></path>
            <path d="M548.2,626.2 C548.3,630 548.9,633.7 549.7,637.4 L453.5,633.7 L429.5,491.2 L426,470.1 L419.6,431.9 L477.9,436.5 L480.4,445.5 L487.3,471.5 L508.5,550.7 L553.9,547.1 C551.6,551 549.8,555.2 548.5,559.5 C546.5,572.8 545.2,585.3 546.2,598.6 C546.7,607.9 547.8,617 548.2,626.2 Z" id="Shape" fill="#4C7DE0" fill-rule="nonzero"></path>
            <circle id="Oval" fill="#94B1EC" fill-rule="nonzero" cx="475.3" cy="516.1" r="14.1"></circle>
            <path d="M450.8,479.1 C450.8,486.8 444.5,493.2 436.7,493.2 C434.2,493.2 431.6,492.5 429.5,491.2 L426,470.1 C431,464.2 439.9,463.4 445.8,468.4 C449,471 450.8,475 450.8,479.1 Z" id="Shape" fill="#94B1EC" fill-rule="nonzero"></path>
            <path d="M487.2,471.6 C480.6,475.7 471.9,473.6 467.8,467 C463.7,460.4 465.8,451.7 472.4,447.6 C474.6,446.2 477.2,445.5 479.9,445.5 L480.3,445.5 L487.2,471.6 Z" id="Shape" fill="#94B1EC" fill-rule="nonzero"></path>
            <path d="M621.8,582.3 L611.3,544.7 C606.6,529.9 614.8,514.1 629.5,509.4 C644.3,504.7 660.1,512.9 664.8,527.6 C664.9,527.8 664.9,528 664.9,528.2 L674.7,563.3 L621.8,582.3 Z" id="Shape" fill="url(#linearGradient-9)" fill-rule="nonzero"></path>
            <path d="M674.7,563.3 L682,589 L761.7,605.5 C772,607.1 779.1,616.7 777.5,627.1 C776.1,636.3 768.2,643 758.9,643.1 L662.1,643.5 C651.4,644.2 630.1,638.6 626,628.7 L625.2,626.7 L621.8,582.3 L674.7,563.3 Z" id="Shape" fill="#FDC068" fill-rule="nonzero"></path>
            <path d="M545.4,547.9 C511,537.2 478.8,559 511,614.6 C524.5,637.9 558.7,639.9 558.7,639.9 L545.4,547.9 Z" id="Shape" fill="#4C7DE0" fill-rule="nonzero"></path>
            <path d="M558.1,640 L556.6,640.4 C546.6,642.6 536.3,643.8 526.1,643.8 L472.1,643.7 L444.1,643.7 L424.1,643.7 C412.7,643.7 402.5,636.6 398.6,626 C396.7,620.9 394.4,615 391.9,608.5 C388.8,600.5 385.3,591.6 381.7,582.2 C371.4,555.8 359.3,525.8 349.9,502 C346.4,493.2 343.2,485.3 340.6,478.8 C335.9,467.1 332.9,459.8 332.9,459.8 L390.2,450.7 L404.5,475.3 L416.7,496.1 L448.8,551.1 L546.2,553.1 L558.1,640 Z" id="Shape" fill="#4C7DE0" fill-rule="nonzero"></path>
            <path d="M382.8,437.9 C381.4,435.4 380.5,432.5 380.4,429.6 C380.3,424.8 376.3,421 371.6,421 L280,421 C274.7,421 273.8,428.5 278.9,429.8 L322.8,440.6 L332.9,459.6 L390.2,450.5 L382.8,437.9 Z" id="Shape" fill="#FDC068" fill-rule="nonzero"></path>
            <path d="M644.3,503.2 C646.1,505.2 648.1,507 649.7,509.4 C653.9,515.6 654,517 664,531.6 C676.9,550.6 658.6,573.9 637.6,578.6 C630.6,580.2 626.5,583.3 624.2,588 C611,615.5 593.1,623.5 581.8,630.7 C574.6,635.2 566.5,638.3 558.2,639.9 L545.5,547.9 C562.9,536.5 571.5,511.5 592.5,500.2 C606.7,492.4 634.2,492.1 644.3,503.2 Z" id="Shape" fill="url(#linearGradient-10)" fill-rule="nonzero"></path>
            <path d="M625.3,533.3 L622.8,527.7 C619.5,520.2 621.6,511.3 627.8,506 L664.3,484.1 L674.7,515.4 L649.3,537.5 C643.7,543.4 634.5,543.6 628.5,538 C627.2,536.7 626.1,535.1 625.3,533.3 Z" id="Shape" fill="#FDC068" fill-rule="nonzero"></path>
            <polygon id="Shape" fill="#2B2B2B" fill-rule="nonzero" points="647.5 507.9 654.3 533 671.6 518"></polygon>
            <path d="M679.8,521.7 L679.4,521.7 C657.5,522.7 639,505.8 638,483.9 L637.5,473 C636.7,455.9 649.9,441.4 667,440.7 C667.5,440.7 667.9,440.7 668.4,440.7 C685,440.7 698.6,453.7 699.4,470.3 L699.6,475.8 L699.9,482.7 L700.6,498.9 C701.3,510.9 692,521.2 679.8,521.7 Z" id="Shape" fill="#FDC068" fill-rule="nonzero"></path>
            <path d="M700,482.6 C698.1,482.3 696.8,480.5 697.1,478.5 C697.3,477.1 698.3,476 699.7,475.7 L700,482.6 Z" id="Shape" fill="#2B2B2B" fill-rule="nonzero"></path>
            <path d="M692.5,490.3 C692.1,490.3 691.8,490.2 691.6,489.8 C691.2,489.3 691.4,488.6 691.9,488.3 L694.6,486.5 C694.9,486.2 695,485.9 695,485.6 C695,485.2 694.9,484.9 694.6,484.7 L690,479.6 C689.6,479.2 689.6,478.4 690.1,478.1 C690.5,477.7 691.3,477.7 691.6,478.2 L696.2,483.3 C696.9,484 697.1,484.9 697.1,485.8 C697,486.7 696.7,487.6 696,488.2 L695.8,488.3 L693.1,490.1 C692.9,490.2 692.7,490.3 692.5,490.3 Z" id="Shape" fill="#2B2B2B" fill-rule="nonzero"></path>
            <path d="M689.5,501.8 C687.8,501.8 686.1,501.1 684.4,499.6 C684,499.2 683.9,498.5 684.3,498.1 C684.7,497.7 685.4,497.6 685.8,498 C687.5,499.4 689,499.9 690.3,499.6 C692.1,499.2 693,497.4 693.1,497.4 C693.4,496.9 694,496.7 694.5,497 C695,497.3 695.2,497.9 694.9,498.4 C694.8,498.5 693.5,501.1 690.6,501.7 C690.2,501.8 689.9,501.8 689.5,501.8 Z" id="Shape" fill="#2B2B2B" fill-rule="nonzero"></path>
            <circle id="Oval" fill="#2B2B2B" fill-rule="nonzero" cx="680.5" cy="480.1" r="3.5"></circle>
            <path d="M667.2,437.7 C667.3,451.1 687.5,466.9 699.8,466.8 C699.7,466.7 699,436.9 667.2,437.7 Z" id="Shape" fill="#2B2B2B" fill-rule="nonzero"></path>
            <path d="M672.4,437.6 C672.4,437.6 681.3,497.8 639.8,502 C639.8,502 637.3,482.5 637.2,468.2 C637.1,453.9 646.7,436.1 672.4,437.6 Z" id="Shape" fill="#2B2B2B" fill-rule="nonzero"></path>
            <rect id="Rectangle-path" fill="#F9D5FF" fill-rule="nonzero" x="628.1" y="632.4" width="87.3" height="10.9"></rect>
            <path d="M570.9,580.1 L567.1,532.5 C566.7,517.2 578.9,504.4 594.3,504.1 C609.6,503.7 622.4,515.9 622.7,531.3 C622.7,531.4 622.7,531.7 622.7,531.8 L623.6,576.4 L570.9,580.1 Z" id="Shape" fill="url(#linearGradient-11)" fill-rule="nonzero"></path>
            <path d="M623.7,576.4 L623.7,600.7 L690,606.8 C700.2,607.2 708.2,615.7 707.9,625.8 C707.6,634.8 700.7,642.4 691.8,643.5 L590.6,643.5 C580.5,640.2 573.5,630.9 573.4,620.3 L573.4,618.2 L571,580.1 L623.7,576.4 Z" id="Shape" fill="#FDC068" fill-rule="nonzero"></path>
            <path d="M707.6,623.2 C707.1,623.2 706.6,622.8 706.5,622.3 C705.1,614.2 698.2,608.1 689.9,607.8 L624,601.2 C623.4,601.1 623,600.6 623.1,600 C623.2,599.4 623.7,599 624.3,599.1 L690.1,605.7 C699.3,606 707.1,612.9 708.6,621.9 C708.7,622.5 708.3,623.1 707.7,623.1 C707.7,623.2 707.6,623.2 707.6,623.2 Z" id="Shape" fill="#2B2B2B" fill-rule="nonzero"></path>
            <path d="M723.5,542.1 L818.4,542.1 C821.8,542 824.6,544.7 824.6,548 C824.6,548.4 824.6,548.7 824.5,549 L814.4,636.5 C813.9,640.4 810.6,643.4 806.6,643.4 L704.9,643.4 L715.8,549 C716.3,545.2 719.6,542.3 723.5,542.1 Z" id="Shape" fill="#F9D5FF" fill-rule="nonzero"></path>
            <ellipse id="Oval" fill="#FFFFFF" fill-rule="nonzero" transform="translate(768.327810, 592.829900) rotate(-43.359026) translate(-768.327810, -592.829900) " cx="768.32781" cy="592.8299" rx="9.50044635" ry="8.50039936"></ellipse>
            <path d="M503.8,553.1 L448,553.1 L437.6,534.1 C437.3,533.6 437.5,532.9 438,532.7 C438.5,532.4 439.2,532.6 439.4,533.1 L449.2,550.9 L503.6,550.9 C504.2,550.9 504.7,551.4 504.7,552 C504.7,552.6 504.3,553.1 503.8,553.1 Z" id="Shape" fill="#2B2B2B" fill-rule="nonzero"></path>
            <path d="M660.1,554.3 C659.6,554 658.9,554.3 658.7,554.8 C653.9,564.8 644.7,577.6 628.2,581.6 L623.7,582.5 C623.7,582.7 623.7,582.9 623.8,583.1 C623.8,583.6 623.8,584.2 623.8,584.7 C623.9,584.7 623.9,584.7 624,584.7 L628.7,583.7 C646,579.4 655.6,566.1 660.7,555.7 C660.9,555.2 660.6,554.6 660.1,554.3 Z" id="Shape" fill="#2B2B2B" fill-rule="nonzero"></path>
            <path d="M624.1,601.3 C623.5,601.3 623,600.9 623,600.2 L622.1,552.8 C622.1,552.2 622.5,551.7 623.2,551.7 C623.8,551.7 624.3,552.1 624.3,552.8 L625.2,600.2 C625.3,600.8 624.7,601.3 624.1,601.3 C624.2,601.3 624.1,601.3 624.1,601.3 Z" id="Shape" fill="#2B2B2B" fill-rule="nonzero"></path>
            <path d="M641.3,452.2 C631.6,467.4 625.1,471.9 595.4,470.9 C519.4,468.6 492.7,534.6 531.9,572.1 C571,609.7 600.9,577.9 610.3,546 C619.8,514.1 635.9,505.9 650.3,499.3 C661.9,494 648,454.5 648,454.5 L641.3,452.2 Z" id="Shape" fill="#2B2B2B" fill-rule="nonzero"></path>
            <path d="M616.1,602.6 C615.6,602.6 615.1,602.2 615,601.7 C614.9,601.1 615.3,600.5 615.9,600.5 L623.4,599.4 C624,599.3 624.6,599.7 624.6,600.3 C624.7,600.9 624.3,601.5 623.7,601.5 L616.2,602.6 C616.3,602.6 616.2,602.6 616.1,602.6 Z" id="Shape" fill="#2B2B2B" fill-rule="nonzero"></path>
            <path d="M421.1,432 L477.8,436.3 C479.1,436.4 480.3,437.3 480.6,438.6 L483.2,447.9 C483.7,449.6 482.7,451.3 481,451.8 C480.6,451.9 480.3,451.9 480,451.9 L422.1,449.3 C420.6,449.2 419.3,448.1 419.1,446.6 L417.7,435.6 C417.5,433.9 418.7,432.3 420.4,432.1 C420.6,432 420.9,432 421.1,432 Z" id="Shape" fill="#4C7DE0" fill-rule="nonzero"></path>
            <path d="M334.9,459.3 L389.8,449.7 C391.8,449.3 393.7,450.4 394.6,452.1 L398.1,458.9 C399.3,461.1 398.4,463.8 396.1,465 C395.7,465.2 395.3,465.4 394.9,465.4 L339.5,476 C337.3,476.4 335.2,475.2 334.4,473.2 L331.4,465.4 C330.5,463.1 331.7,460.5 334.1,459.5 C334.4,459.4 334.6,459.4 334.9,459.3 Z" id="Shape" fill="#4C7DE0" fill-rule="nonzero"></path>
            <path d="M400.9,595.3 C400.9,601.1 397.4,606.3 391.9,608.4 C388.8,600.4 385.3,591.5 381.7,582.1 C388.9,579.3 397.1,582.9 399.9,590.1 C400.6,591.8 400.9,593.5 400.9,595.3 Z" id="Shape" fill="#94B1EC" fill-rule="nonzero"></path>
            <circle id="Oval" fill="#94B1EC" fill-rule="nonzero" cx="390.2" cy="537.9" r="14.1"></circle>
            <path d="M365.2,487.9 C365.2,495.6 358.9,502 351.2,502 C350.8,502 350.3,502 349.9,501.9 C346.4,493.1 343.2,485.2 340.6,478.7 C345.7,472.8 354.6,472.2 360.4,477.3 C363.4,480 365.2,483.9 365.2,487.9 Z" id="Shape" fill="#94B1EC" fill-rule="nonzero"></path>
            <path d="M416.6,495.8 C412.9,502.6 404.4,505.1 397.5,501.4 C390.6,497.7 388.2,489.2 391.9,482.3 C394.4,477.7 399.1,474.9 404.3,474.9 L404.6,474.9 L416.6,495.8 Z" id="Shape" fill="#94B1EC" fill-rule="nonzero"></path>
            <circle id="Oval" fill="#94B1EC" fill-rule="nonzero" cx="436.8" cy="578.5" r="14.1"></circle>
            <path d="M472.2,641.9 C472.2,642.5 472.2,643 472.1,643.6 L444.1,643.6 C444,643.1 444,642.5 444,642 C444,634.3 450.3,627.9 458.1,627.9 C465.9,627.9 472.2,634.2 472.2,641.9 Z" id="Shape" fill="#94B1EC" fill-rule="nonzero"></path>
            <circle id="Oval" fill="#94B1EC" fill-rule="nonzero" cx="493.9" cy="573.8" r="14.1"></circle>
            <circle id="Oval" fill="#94B1EC" fill-rule="nonzero" cx="528.1" cy="619.9" r="14.1"></circle>
            <path d="M482,453.3 L422.4,450.5 C421.8,450.5 421.3,450 421.4,449.3 C421.4,448.7 421.9,448.2 422.6,448.3 L482.2,451.1 C482.8,451.1 483.3,451.6 483.2,452.3 C483.1,452.8 482.6,453.3 482,453.3 Z" id="Shape" fill="#2B2B2B" fill-rule="nonzero"></path>
            <path d="M339.5,477.2 C339,477.2 338.6,476.8 338.4,476.3 C338.3,475.7 338.7,475.1 339.3,475 L397.6,464 C398.2,463.9 398.8,464.3 398.9,464.9 C399,465.5 398.6,466.1 398,466.2 L339.7,477.1 C339.7,477.2 339.6,477.2 339.5,477.2 Z" id="Shape" fill="#2B2B2B" fill-rule="nonzero"></path>
            <path d="M661.8,415.2 C661.5,415.2 661.2,415.1 661,414.9 C659.9,413.8 658.9,412.7 658,411.8 C657.6,411.4 657.6,410.6 658.1,410.3 C658.5,409.9 659.3,409.9 659.6,410.4 C660.5,411.4 661.6,412.4 662.6,413.5 C663,413.9 663,414.6 662.6,415 C662.3,415.2 662,415.2 661.8,415.2 Z" id="Shape" fill="#2B2B2B" fill-rule="nonzero"></path>
            <path d="M653.1,405.7 C652.8,405.7 652.4,405.6 652.2,405.3 C650.3,403.1 648.6,400.7 647,398.4 C646.6,397.9 646.8,397.2 647.3,396.9 C647.8,396.5 648.5,396.7 648.8,397.2 C650.4,399.4 652.1,401.7 653.9,403.9 C654.3,404.3 654.2,405.1 653.8,405.4 C653.5,405.6 653.3,405.7 653.1,405.7 Z M643.3,391.7 C642.9,391.7 642.6,391.5 642.4,391.1 C641,388.5 639.7,385.9 638.5,383.4 C638.3,382.8 638.5,382.2 639.1,382 C639.7,381.8 640.3,382 640.5,382.6 C641.6,385.1 642.8,387.7 644.3,390.1 C644.6,390.6 644.4,391.3 643.9,391.5 C643.6,391.6 643.5,391.7 643.3,391.7 Z M636.6,376 C636.1,376 635.7,375.7 635.6,375.2 C634.8,372.4 634.2,369.5 633.9,366.7 C633.8,366.1 634.3,365.5 634.8,365.5 C635.3,365.5 636,365.9 636,366.4 C636.3,369.1 636.9,371.8 637.7,374.6 C637.8,375.2 637.6,375.8 637,376 C636.8,376 636.7,376 636.6,376 Z M634.6,359.1 C633.9,359.1 633.5,358.5 633.5,357.9 C633.6,355 634.1,352 634.8,349.3 C634.9,348.7 635.5,348.4 636.1,348.5 C636.7,348.6 637,349.2 636.9,349.8 C636.2,352.5 635.8,355.2 635.7,358 C635.7,358.6 635.2,359.1 634.6,359.1 Z M638.6,342.6 C638.5,342.6 638.3,342.6 638.2,342.5 C637.6,342.3 637.4,341.6 637.6,341.1 C638.8,338.5 640.2,335.9 641.9,333.5 C642.3,333 642.9,332.8 643.4,333.2 C643.9,333.6 644.1,334.2 643.7,334.7 C642.1,337 640.7,339.5 639.6,342 C639.4,342.4 639,342.6 638.6,342.6 Z M702.2,334 C701.6,334 701.2,333.6 701.1,333.1 C701,332.5 701.5,331.9 702,331.9 C705,331.6 707.6,330.7 709.6,329.4 C710.1,329.1 710.8,329.3 711.1,329.7 C711.4,330.2 711.2,330.9 710.8,331.2 C708.6,332.6 705.6,333.6 702.3,333.9 C702.3,334 702.2,334 702.2,334 Z M693.7,333.6 C693.6,333.6 693.6,333.6 693.5,333.6 C690.7,333.1 687.9,332.2 685.1,331.1 C684.5,330.9 684.3,330.2 684.5,329.7 C684.7,329.2 685.4,328.9 685.9,329.1 C688.5,330.3 691.2,331.1 693.8,331.5 C694.4,331.6 694.8,332.2 694.7,332.7 C694.7,333.2 694.2,333.6 693.7,333.6 Z M648.1,328.5 C647.8,328.5 647.6,328.4 647.4,328.2 C647,327.8 647,327.1 647.3,326.7 C649.3,324.6 651.4,322.6 653.7,320.8 C654.1,320.4 654.9,320.5 655.2,320.9 C655.6,321.3 655.5,322.1 655.1,322.4 C652.9,324.1 650.8,326.1 648.9,328 C648.7,328.3 648.4,328.5 648.1,328.5 Z M678.1,326.9 C677.9,326.9 677.7,326.8 677.4,326.7 C675.1,325 672.8,323.1 670.8,320.9 C670.4,320.5 670.4,319.7 670.9,319.4 C671.3,319 672.1,319 672.4,319.5 C674.4,321.5 676.5,323.4 678.6,325 C679.1,325.4 679.2,326 678.8,326.5 C678.8,326.7 678.5,326.9 678.1,326.9 Z M714.1,324.3 C713.6,324.3 713.1,323.9 713,323.4 C712.7,321.4 711.3,319.1 708.9,317 C708.5,316.6 708.4,315.9 708.8,315.5 C709.2,315.1 709.9,315 710.3,315.4 C713.1,317.9 714.8,320.5 715.1,323.1 C715.2,323.7 714.7,324.3 714.2,324.3 C714.3,324.3 714.2,324.3 714.1,324.3 Z M661.5,317.8 C661.1,317.8 660.8,317.6 660.6,317.3 C660.3,316.8 660.5,316.1 661,315.8 C662.4,315 663.8,314.2 665.3,313.6 C663.9,311.4 662.6,309 661.3,306.5 C661,306 661.3,305.3 661.8,305.1 C662.3,304.8 663,305.1 663.2,305.6 C664.4,308.1 665.7,310.5 667.2,312.7 C667.7,312.5 668.2,312.3 668.8,312 C669.4,311.7 670,312.1 670.2,312.6 C670.4,313.2 670.1,313.8 669.6,314 C667,315.1 664.5,316.3 662.1,317.7 C661.9,317.8 661.7,317.8 661.5,317.8 Z M702.5,312.6 C702.4,312.6 702.2,312.6 702.1,312.5 C699.6,311.5 697,310.8 694.1,310.3 C693.5,310.2 693.1,309.6 693.2,309.1 C693.3,308.5 693.9,308.1 694.4,308.2 C697.4,308.6 700.3,309.4 702.9,310.5 C703.5,310.7 703.7,311.4 703.5,311.9 C703.3,312.3 702.9,312.6 702.5,312.6 Z M677.3,311.5 C676.8,311.5 676.4,311.1 676.2,310.7 C676.1,310.1 676.4,309.5 677,309.4 C679.9,308.7 682.8,308.2 685.6,308 C686.2,307.9 686.7,308.4 686.8,309 C686.9,309.6 686.4,310.1 685.8,310.2 C683.1,310.4 680.3,310.9 677.6,311.5 C677.4,311.4 677.4,311.5 677.3,311.5 Z M659,299.2 C658.6,299.2 658.1,298.9 658,298.5 C657.1,295.8 656.3,293.1 655.7,290.2 C655.6,289.6 655.9,289 656.5,288.9 C657.1,288.8 657.7,289.1 657.8,289.7 C658.5,292.5 659.2,295.3 660.1,297.8 C660.3,298.4 660,299 659.4,299.2 C659.3,299.2 659.1,299.2 659,299.2 Z M655.1,282.6 C654.6,282.6 654.1,282.2 654,281.7 C653.6,279 653.3,276.1 653.1,273.2 C653,272.6 653.5,272.1 654.1,272 C654.7,271.9 655.2,272.4 655.3,273 C655.5,275.9 655.8,278.7 656.2,281.4 C656.2,281.9 655.8,282.5 655.1,282.6 C655.2,282.6 655.2,282.6 655.1,282.6 Z M653.8,265.6 C653.2,265.6 652.7,265.1 652.7,264.5 C652.7,263.8 652.7,263.3 652.7,262.6 C652.7,260.4 652.8,258.1 652.8,255.9 C652.8,255.3 653.3,254.8 654,254.9 C654.6,254.9 655.1,255.4 655,256.1 C654.9,258.3 654.9,260.6 654.9,262.8 C654.9,263.5 654.9,264 654.9,264.7 C655,265.1 654.5,265.5 653.8,265.6 C653.9,265.6 653.8,265.6 653.8,265.6 Z" id="Shape" fill="#2B2B2B" fill-rule="nonzero"></path>
            <path d="M654.6,248.4 C653.9,248.3 653.5,247.8 653.5,247.2 C653.6,245.8 653.8,244.3 653.9,242.9 C654,242.3 654.5,241.9 655.1,242 C655.7,242.1 656.1,242.6 656,243.2 C655.9,244.6 655.7,246.1 655.6,247.5 C655.6,248 655.1,248.4 654.6,248.4 Z" id="Shape" fill="#2B2B2B" fill-rule="nonzero"></path>
            <polygon id="Shape" fill="#F9D5FF" fill-rule="nonzero" points="400.3 216 500.7 164.6 458 256.3"></polygon>
            <polygon id="Shape" fill="#F3ADFF" fill-rule="nonzero" points="500.7 164.6 421.1 229.7 434.1 239.6"></polygon>
            <polygon id="Shape" fill="#F3ADFF" fill-rule="nonzero" points="421.1 229.7 426.6 256.3 434.1 239.6"></polygon>
        </g>
    </g>
</svg>