<svg xmlns="http://www.w3.org/2000/svg" xmlns:xlink="http://www.w3.org/1999/xlink" width="831px" height="531px" viewBox="0 0 831 531"><title>download</title><desc>Created with Sketch.</desc><defs><linearGradient x1="-0.00120055225%" y1="49.9996999%" x2="100.0009%" y2="49.9996999%" id="linearGradient-1"><stop stop-color="#FFE0C2" offset="0%"></stop><stop stop-color="#7AAEFC" offset="40.1%"></stop><stop stop-color="#B8C1FC" offset="59.1%"></stop><stop stop-color="#D2D4D4" offset="100%"></stop></linearGradient><linearGradient x1="50.0138377%" y1="119.968394%" x2="50.0138377%" y2="-4.09201695%" id="linearGradient-2"><stop stop-color="#F89D9A" offset="0%"></stop><stop stop-color="#F5943B" offset="26.3%"></stop><stop stop-color="#F05052" offset="49.9%"></stop><stop stop-color="#ECE674" offset="75.8%"></stop><stop stop-color="#E1EEC3" offset="100%"></stop></linearGradient><linearGradient x1="49.9994487%" y1="-0.535804538%" x2="49.9994487%" y2="144.297921%" id="linearGradient-3"><stop stop-color="#9774AC" offset="0%"></stop><stop stop-color="#47A6D3" offset="40.1%"></stop><stop stop-color="#A7A7AE" offset="50.1%"></stop><stop stop-color="#E89AC0" offset="59.1%"></stop><stop stop-color="#BFE7D1" offset="100%"></stop></linearGradient><linearGradient x1="50.0013455%" y1="-471.453758%" x2="50.0013455%" y2="-688.333859%" id="linearGradient-4"><stop stop-color="#F89D9A" offset="0%"></stop><stop stop-color="#F5943B" offset="26.3%"></stop><stop stop-color="#F05052" offset="49.9%"></stop><stop stop-color="#ECE674" offset="75.8%"></stop><stop stop-color="#E1EEC3" offset="100%"></stop></linearGradient><linearGradient x1="49.997439%" y1="0.13507924%" x2="49.997439%" y2="93.3721505%" id="linearGradient-5"><stop stop-color="#9774AC" offset="0%"></stop><stop stop-color="#47A6D3" offset="40.1%"></stop><stop stop-color="#A7A7AE" offset="50.1%"></stop><stop stop-color="#E89AC0" offset="59.1%"></stop><stop stop-color="#BFE7D1" offset="100%"></stop></linearGradient><linearGradient x1="49.994507%" y1="-291.259519%" x2="49.994507%" y2="-423.381744%" id="linearGradient-6"><stop stop-color="#F89D9A" offset="0%"></stop><stop stop-color="#F5943B" offset="26.3%"></stop><stop stop-color="#F05052" offset="49.9%"></stop><stop stop-color="#ECE674" offset="75.8%"></stop><stop stop-color="#E1EEC3" offset="100%"></stop></linearGradient><linearGradient x1="1.78591838%" y1="49.9998214%" x2="99.9999405%" y2="49.9998214%" id="linearGradient-7"><stop stop-color="#C0DDFC" offset="0%"></stop><stop stop-color="#D3E7FD" offset="18.6%"></stop><stop stop-color="#EBF4FE" offset="48.8%"></stop><stop stop-color="#FAFCFF" offset="76.6%"></stop><stop stop-color="#FFFFFF" offset="99.6%"></stop></linearGradient><linearGradient x1="0.000860252054%" y1="49.9995699%" x2="100.000215%" y2="49.9995699%" id="linearGradient-8"><stop stop-color="#C0DDFC" offset="0%"></stop><stop stop-color="#D3E7FD" offset="18.6%"></stop><stop stop-color="#EBF4FE" offset="48.8%"></stop><stop stop-color="#FAFCFF" offset="76.6%"></stop><stop stop-color="#FFFFFF" offset="99.6%"></stop></linearGradient><linearGradient x1="0%" y1="49.9980951%" x2="100.000797%" y2="49.9980951%" id="linearGradient-9"><stop stop-color="#FFF3EC" offset="0%"></stop><stop stop-color="#FFFFFF" offset="99.6%"></stop></linearGradient></defs><g id="Page-1" stroke="none" stroke-width="1" fill="none" fill-rule="evenodd"><g id="download" transform="translate(-1.000000, 0.000000)" fill-rule="nonzero"><g id="Group" transform="translate(522.734290, 356.453581) rotate(61.119235) translate(-522.734290, -356.453581) translate(416.734290, 175.953581)"><g transform="translate(0.273715, 0.634172)"><path d="M105.685289,42.4225584 C73.3231827,42.4225584 50.0068403,68.9311343 47.0892456,101.33596 C40.5875263,173.571154 33.8904868,244.09295 47.0892456,315.557361 L164.281333,315.557361 C176.840418,243.901482 171.62537,173.578518 164.281333,101.33596 C160.99263,68.9679552 138.047396,42.4225584 105.685289,42.4225584 Z" id="Shape" fill="#FBAC62"></path><ellipse id="Oval" fill="url(#linearGradient-1)" cx="105.685289" cy="160.897409" rx="40.6729788" ry="40.8932647"></ellipse><path d="M198.347608,359.884786 L174.972669,359.884786 C168.231683,359.884786 162.76516,354.388657 162.76516,347.611161 L162.76516,226.315831 L209.66641,343.013461 C212.908725,351.082142 207.002732,359.884786 198.347608,359.884786 Z" id="Shape" fill="#FBAC62"></path><polygon id="Shape" fill="#2B2B2B" points="41.3663653 253.371811 69.038347 315.557361 36.908183 315.687461"></polygon><polygon id="Shape" fill="#2B2B2B" points="114.191482 266.453041 141.863463 315.557361 109.733299 315.687461"></polygon><path d="M12.2270411,359.884786 L35.6019795,359.884786 C42.3429661,359.884786 47.8094886,354.388657 47.8094886,347.611161 L47.8094886,226.315831 L0.908238677,343.013461 C-2.33407574,351.082142 3.57191716,359.884786 12.2270411,359.884786 Z" id="Shape" fill="#FBAC62"></path><path d="M93.9758466,359.884786 L117.81467,359.884786 C125.459013,359.884786 131.223398,352.901093 129.81221,345.345449 L107.584778,226.315831 L82.0442272,345.016516 C80.3986549,352.662985 86.1923388,359.884786 93.9758466,359.884786 Z" id="Shape" fill="#FBAC62"></path><g transform="translate(104.984578, 0.000000)" fill="#2B2B2B" id="Shape"><path d="M2.44150182,59.3233405 C1.76764732,59.3233405 1.22075091,58.7734821 1.22075091,58.0959779 L1.22075091,3.2721485 C1.22075091,2.59464439 1.76764732,2.04478597 2.44150182,2.04478597 C3.11535632,2.04478597 3.66225273,2.59464439 3.66225273,3.2721485 L3.66225273,58.0959779 C3.66225273,58.7734821 3.11535632,59.3233405 2.44150182,59.3233405 Z"></path></g></g></g><g id="Group" transform="translate(490.423927, 282.507791) rotate(-24.375875) translate(-490.423927, -282.507791) translate(357.923927, 164.007791)"><g id="man_sit" transform="translate(132.468765, 118.699156) scale(-1, 1) translate(-132.468765, -118.699156) translate(0.017531, 0.800000)"><g id="Layer_2hq7XG62R9nrfvFkVcGzod"><g id="Layer_1-2hq7XG62R9nrfvFkVcGzod"><path d="M228.817786,84.3265321 L178.379883,117.504184 L177.390046,118.142064 C172.313255,121.476995 165.743389,121.467618 160.6761,118.118209 C155.608812,114.7688 153.014723,108.720927 154.076658,102.73223 L164.367646,45.2637966 C165.416709,39.400327 170.796829,35.3364121 176.711555,35.9397299 C182.626281,36.5430478 187.078674,41.6099053 186.92693,47.5649038 L185.415172,105.936638 L161.141118,91.1698178 L211.578627,57.9921658 C218.836449,53.2223813 228.579193,55.2508557 233.339656,62.5228902 C238.100118,69.7949246 236.075608,79.5567476 228.817786,84.3265321 Z" id="Shape" fill="url(#linearGradient-2)"></path><path d="M211.200984,94.6653204 L116.342642,88.4610995 C112.279719,88.452906 108.290818,89.5502034 104.801645,91.6358848 L16.8043562,144.298693 L32.5025869,170.571838 L34.0722917,170.076938 L35.6132199,169.552416 L38.7238529,168.503765 C40.7878847,167.775831 42.823534,167.018275 44.8867774,166.291921 C46.9216383,165.563593 48.9564992,164.777204 50.9917544,164.019647 C53.0270095,163.262091 55.0323054,162.476096 57.0675606,161.689312 C65.1198861,158.54336 73.1146584,155.22283 81.0219182,151.815011 C84.9461803,150.096488 88.9291781,148.378754 92.8246635,146.60138 L98.6982451,143.950722 L104.541867,141.242004 C108.436959,139.46463 112.303667,137.571924 116.17077,135.736884 L119.077996,134.338683 L120.745857,133.511611 L123.525756,133.6696 L130.706111,134.047983 C133.089839,134.166475 135.502738,134.281017 137.886466,134.368701 L145.067215,134.659795 C147.450943,134.747084 149.863842,134.80554 152.24757,134.892828 C154.631298,134.951284 157.044197,135.067801 159.427925,135.096634 L166.608674,135.242379 C168.992402,135.300835 171.405301,135.300835 173.789029,135.329668 C183.382676,135.417351 192.947154,135.358895 202.540013,135.096634 L209.720762,134.863601 C212.10449,134.745109 214.517389,134.689023 216.901117,134.543278 L220.506077,134.339473 L224.110643,134.106439 L227.715603,133.844178 L229.517886,133.698828 L231.320168,133.523855 L211.200984,94.6653204 Z" id="Shape" fill="url(#linearGradient-3)"></path><path d="M155.496567,98.3480398 C143.591521,97.9058405 133.395715,106.81569 132.214715,118.693445 L130.731734,134.047193 C133.107184,134.163315 135.511016,134.279042 137.885677,134.366331 L145.066426,134.657425 C147.450154,134.744714 149.863053,134.80317 152.246781,134.890459 C154.630509,134.948915 157.043408,135.065431 159.427136,135.094264 L166.607885,135.240009 C168.991613,135.298465 171.404512,135.298465 173.78824,135.327298 C183.381888,135.414982 192.946365,135.356526 202.539225,135.094264 L209.719974,134.861231 C212.103702,134.742739 214.516601,134.686653 216.900329,134.540908 L220.505289,134.337103 L224.109854,134.104069 L227.714814,133.841808 L229.517097,133.696458 L231.31938,133.521486 L216.705988,105.299548 L210.185918,102.896143 L155.496567,98.3480398 Z" id="Shape" fill="#2B2B2B"></path><path d="M210.038093,101.131408 C210.780676,99.0652089 211.173711,96.8892738 211.200984,94.6933634 C211.288102,90.9940552 202.449741,85.1686125 202.915686,73.9545662 C203.293724,65.3327213 212.82903,52.8077627 227.829132,53.3322856 L239.891655,54.1475079 C253.060698,54.6135749 263.264568,66.3813721 263.613435,75.5549929 L263.671777,75.5549929 C263.671777,75.8172543 263.642606,76.0791208 263.642606,76.3121543 L263.642606,76.5451878 L263.613435,76.5451878 C262.509675,91.8080926 251.898202,90.8759586 255.648228,101.798911 L210.038093,101.131408 Z" id="Shape" fill="url(#linearGradient-4)"></path><path d="M255.708146,101.80128 L211.258931,94.6941534 L156.722135,100.811085 C144.954841,102.679405 136.666767,113.394842 137.797377,125.278419 L148.175483,231.245075 L178.554514,228.243287 L178.757921,226.553992 L178.932157,224.864301 L179.310195,221.48571 C179.513602,219.213831 179.74618,216.970785 179.920811,214.728133 C180.298455,210.213208 180.618545,205.72751 180.909071,201.241813 C181.490516,192.270418 181.868554,183.328251 182.131091,174.386084 C182.249351,169.929614 182.39284,165.443916 182.422011,160.987447 L182.509129,154.287931 L182.5383,147.588415 C182.547366,146.218652 182.546184,144.848494 182.542242,143.478336 L183.119745,143.423435 C184.718621,143.27769 186.346667,143.073885 187.974319,142.898912 C189.601971,142.723939 191.201241,142.549362 192.829288,142.345951 L197.684256,141.734139 C199.312303,141.530334 200.911178,141.2973 202.53883,141.062687 C205.998331,140.538559 219.603359,138.091707 231.522787,135.936345 C243.413342,133.752423 253.061639,125.042876 256.465405,113.420568 L255.708146,101.80128 Z" id="Shape" fill="url(#linearGradient-5)"></path><path d="M220.881355,43.3710906 L231.899248,43.7498688 C234.634309,43.8533873 237.297767,42.8604695 239.300137,40.990872 C241.302506,39.1212745 242.478655,36.529179 242.568274,33.7882788 L243.149719,17.1564008 C243.306885,12.7677084 241.716098,8.49647829 238.72788,5.28385239 C235.739662,2.0712265 231.599232,0.180839596 227.218911,0.0292279315 C222.838767,-0.128351355 218.575825,1.46551483 215.369455,4.45960663 C212.163084,7.45369843 210.276423,11.6022986 210.125211,15.9912333 L209.602108,31.2541381 C209.489134,34.3609479 210.615138,37.3850211 212.731449,39.6585096 C214.84776,41.9319981 217.780271,43.2678644 220.881355,43.3710906 Z" id="SVGIDhq7XG62R9nrfvFkVcGzod" fill="#FDC068"></path><path d="M211.433562,20.7680252 C211.428691,21.6719591 210.780675,22.4436593 209.892633,22.6030654 L210.008922,18.962213 C210.840816,19.1657417 211.428,19.9100322 211.433562,20.7680252 Z" id="Shape" fill="#2B2B2B"></path><path d="M223.090847,60.26523 L216.665385,55.5464989 C216.665385,55.5464989 221.868827,53.2453918 225.793483,53.3346554 L223.090847,60.26523 Z" id="Shape" fill="#2B2B2B"></path><path d="M228.876128,62.5371092 L243.207667,57.8183781 L242.830023,26.3023736 L225.271168,25.6905619 L222.509402,57.4399949 C222.348514,59.0803943 223.026889,60.6909712 224.312093,61.7198884 C225.597298,62.7488057 227.3148,63.0563359 228.876128,62.5371092 Z" id="Shape" fill="#FDC068"></path><path d="M208.933545,24.7295949 C205.706622,24.7295949 203.206605,22.9818435 203.206605,20.7680252 C203.206605,18.5542069 205.735793,16.8068506 208.933545,16.8068506 C212.160072,16.8068506 214.660484,18.5542069 214.660484,20.7680252 C214.660484,22.9818435 212.158496,24.7295949 208.933545,24.7295949 Z M208.933545,17.8570812 C206.404357,17.8570812 204.252813,19.1972214 204.252813,20.7700001 C204.252813,22.3427788 206.404357,23.6829189 208.933545,23.6829189 C211.462732,23.6829189 213.613882,22.3427788 213.613882,20.7700001 C213.613882,19.1972214 211.462338,17.8551064 208.933545,17.8551064 L208.933545,17.8570812 Z" id="Shape" fill="#2B2B2B"></path><path d="M220.794237,24.7295949 C217.567315,24.7295949 215.067298,22.9818435 215.067298,20.7680252 C215.067298,18.5542069 217.598457,16.8068506 220.794237,16.8068506 C224.021159,16.8068506 226.521176,18.5542069 226.521176,20.7680252 C226.521176,22.9818435 224.021159,24.7295949 220.794237,24.7295949 Z M220.794237,17.8570812 C218.265049,17.8570812 216.113899,19.1972214 216.113899,20.7700001 C216.113899,22.3427788 218.265049,23.6829189 220.794237,23.6829189 C223.323425,23.6829189 225.474575,22.3427788 225.474575,20.7700001 C225.474575,19.1972214 223.323425,17.8551064 220.794237,17.8551064 L220.794237,17.8570812 Z" id="Shape" fill="#2B2B2B"></path><path d="M214.747602,20.5642196 L212.303561,23.2729379 C212.065193,23.5289455 211.945185,23.8735451 211.972851,24.2225633 C212.000517,24.5715815 212.173309,24.8928804 212.449021,25.1079781 L213.932396,26.0681551" id="Shape" fill="#FDC068"></path><path d="M213.932396,26.593468 C213.829254,26.5917468 213.728586,26.561542 213.641476,26.5061791 L212.131296,25.5151943 C211.735415,25.2163757 211.490418,24.7584888 211.461156,24.2627379 C211.42265,23.7618549 211.590775,23.2670557 211.926312,22.8937648 L214.368381,20.1846515 C214.498371,20.0439649 214.693396,19.9834497 214.879991,20.0259014 C215.066586,20.0683531 215.216403,20.2073223 215.273008,20.3904606 C215.329613,20.5735989 215.284406,20.7730833 215.154416,20.9137699 L212.712741,23.6224882 C212.574201,23.7723691 212.500874,23.9713226 212.508939,24.1754491 C212.542548,24.363842 212.634061,24.5370072 212.770688,24.670744 L214.224104,25.6028781 C214.345597,25.6752164 214.430783,25.7957754 214.458514,25.9346254 C214.486245,26.0734753 214.45392,26.2175953 214.369564,26.3312065 C214.286047,26.4953485 214.11624,26.5972176 213.932396,26.593468 Z" id="Shape" fill="#2B2B2B"></path><path d="M214.282446,33.9920843 C214.097244,33.9870815 213.912718,33.9675363 213.730566,33.9336285 C212.771413,33.6966049 211.951506,33.0752939 211.462732,32.2151051 C211.39698,32.0877188 211.38455,31.9393442 211.42819,31.8027581 C211.47183,31.666172 211.567948,31.5526147 211.69531,31.4871716 C211.953477,31.3537468 212.270657,31.4426761 212.422215,31.6909772 C212.753776,32.2812945 213.309582,32.7121073 213.963144,32.8853727 C214.660878,33.0307224 215.474507,32.7104 216.346872,31.9820716 C216.57208,31.7937395 216.906538,31.8217312 217.097442,32.044889 C217.288346,32.2680468 217.264802,32.6034977 217.044606,32.7976889 C216.084729,33.5840782 215.154416,33.9920843 214.282446,33.9920843 Z" id="Shape" fill="#2B2B2B"></path><polygon id="Shape" fill="#2B2B2B" points="223.701463 43.4876073 230.881818 43.7206408 223.090847 50.5659014"></polygon><ellipse id="Oval" fill="#2B2B2B" cx="220.29991" cy="21.2048643" rx="1.86062449" ry="1.86426806"></ellipse><path d="M215.590402,20.3311861 L214.311617,20.3311861 C214.121235,20.3364221 213.943035,20.2376472 213.846303,20.0732663 C213.749572,19.9088854 213.749572,19.7048361 213.846303,19.5404552 C213.943035,19.3760742 214.121235,19.2772994 214.311617,19.2825354 L215.590402,19.2825354 C215.780784,19.2772994 215.958983,19.3760742 216.055715,19.5404552 C216.152446,19.7048361 216.152446,19.9088854 216.055715,20.0732663 C215.958983,20.2376472 215.780784,20.3364221 215.590402,20.3311861 Z" id="Shape" fill="#2B2B2B"></path><path d="M234.166687,19.867094 L225.794271,19.867094 C225.510853,19.8592992 225.285138,19.6268492 225.285138,19.3427686 C225.285138,19.0586879 225.510853,18.8262379 225.794271,18.8184432 L234.166687,18.8184432 C234.357069,18.8132072 234.535269,18.9119821 234.632,19.076363 C234.728732,19.2407439 234.728732,19.4447932 234.632,19.6091742 C234.535269,19.7735551 234.357069,19.87233 234.166687,19.867094 Z" id="Shape" fill="#2B2B2B"></path><path d="M0.234154861,126.210553 L20.4380928,170.717583 C21.5003465,173.046282 24.2193766,174.104965 26.5722406,173.105979 L32.2412322,170.688355 L19.1880842,142.696686 L4.24790031,123.763701 C2.53076466,121.549883 -0.928735443,123.647184 0.234154861,126.210553 Z" id="Shape" fill="#2B2B2B"></path><path d="M125.732882,235.758815 L174.542739,235.671131 C177.093804,235.672647 179.175788,233.626119 179.223077,231.070497 L179.368537,224.895109 L148.52435,225.273887 L125.151437,231.098145 C122.418842,231.740369 122.911592,235.758815 125.732882,235.758815 Z" id="Shape" fill="#2B2B2B"></path><path d="M230.64924,0 L223.439714,0 C216.313015,0.0043576464 210.536769,5.79191447 210.53242,12.9325697 L215.617601,5.59240922 L219.978243,11.1852134 C220.823322,12.2911839 222.135891,12.937648 223.526044,12.9325697 C224.722461,12.9284602 225.871071,13.4027933 226.717145,14.2503757 C227.563219,15.097958 228.036826,16.2487342 228.032934,17.4474952 L228.032934,24.7876557 L231.986761,24.7876557 L231.986761,23.5936553 C231.986134,23.187543 232.249729,22.8284315 232.636825,22.7080315 C233.023922,22.5876315 233.444141,22.7340543 233.673149,23.0691324 L242.976271,36.992292 L243.586887,16.1377679 L243.586887,12.9325697 C243.568635,5.7858243 237.782041,0.00150057309 230.64924,0 Z" id="Shape" fill="#9F70A7"></path><ellipse id="Oval" fill="#FDC068" cx="237.917107" cy="22.4865486" rx="6.19209522" ry="6.20422092"></ellipse><path d="M190.734903,92.8579283 L217.97413,101.042934 L234.922369,65.534947 C238.66449,57.6683803 248.062726,54.3307966 255.913918,58.080245 C263.765111,61.8296934 267.096172,71.2463342 263.354051,79.1129011 L240.678873,126.734681 L240.126993,127.899848 C236.69779,135.097997 228.095033,138.149248 220.909738,134.715881 L220.67716,134.597389 L181.896936,115.198337" id="Shape" fill="url(#linearGradient-6)"></path><path d="M181.868554,115.200312 L174.804094,111.675582 C169.525865,109.03124 167.141908,102.782093 169.314071,97.2843951 C171.486233,91.7866978 177.493285,88.8658687 183.147733,90.5580061 L190.734903,92.8298853 L181.868554,115.200312 Z" id="Shape" fill="#FDC068"></path><path d="M163.827198,48.2493903 L165.464705,40.7844186 C166.694621,35.19914 171.984863,31.4851074 177.644183,32.2337741 C183.303503,32.9824409 187.45042,37.9449075 187.191438,43.6586302 L186.849272,51.3210879 L163.827198,48.2493903 Z" id="Shape" fill="#FDC068"></path><path d="M203.729709,95.2186763 L203.671367,95.2186763 C203.532447,95.2036004 203.405268,95.1336249 203.318023,95.0242624 C203.230778,94.9148999 203.190675,94.7751857 203.206605,94.6360925 C203.497131,91.6066569 203.177435,89.5385833 200.619076,86.6841203 C200.423223,86.4663374 200.438332,86.1313028 200.652989,85.932105 C200.867646,85.7329072 201.202201,85.7434601 201.403928,85.9557918 C204.224036,89.0725162 204.60168,91.4609122 204.281589,94.7241713 C204.238375,94.9995146 204.007616,95.2062829 203.729709,95.2186763 Z" id="Shape" fill="#2B2B2B"></path><path d="M220.009385,96.8495159 C219.928524,96.8476625 219.849083,96.8278311 219.776807,96.791455 C219.649263,96.7260919 219.552999,96.6124669 219.509342,96.475755 C219.465686,96.3390431 219.478242,96.1905321 219.544229,96.0631265 L222.88744,89.3055497 C222.972875,89.1288011 223.147239,89.0123615 223.342935,89.0013716 C223.538631,88.9903817 223.724889,89.0865695 223.829501,89.2526454 C223.934114,89.4187214 223.940632,89.6285724 223.846529,89.8008447 L220.503712,96.5584215 C220.408266,96.7423888 220.216234,96.8554708 220.009385,96.8495159 Z" id="Shape" fill="#2B2B2B"></path></g></g></g></g><g id="Group" transform="translate(0.882800, 0.120000)"><ellipse id="Oval" fill="#BFD9FF" cx="17.4494848" cy="173.246402" rx="3.394951" ry="3.39353467"></ellipse><ellipse id="Oval" fill="#BFD9FF" cx="472.30021" cy="504.382707" rx="3.394951" ry="3.39353467"></ellipse><ellipse id="Oval" fill="#BFD9FF" cx="699.042667" cy="251.705818" rx="3.394951" ry="3.39353467"></ellipse><ellipse id="Oval" fill="#BFD9FF" cx="280.913343" cy="7.13986853" rx="3.394951" ry="3.39353467"></ellipse><ellipse id="Oval" fill="#BFD9FF" cx="3.788023" cy="36.2728325" rx="3.394951" ry="3.39353467"></ellipse><ellipse id="Oval" fill="#BFD9FF" cx="134.925975" cy="54.3284496" rx="3.1466218" ry="3.14530907"></ellipse><g transform="translate(643.006400, 0.544000)" id="Oval"><ellipse fill="url(#linearGradient-7)" cx="94.046295" cy="94.0350133" rx="93.9579256" ry="93.9187275"></ellipse><ellipse fill="#FFFFFF" cx="134.313658" cy="92.3578133" rx="23.4894814" ry="23.4796819"></ellipse><ellipse fill="#FFFFFF" cx="36.1621008" cy="63.0079315" rx="14.2610314" ry="14.2550819"></ellipse><ellipse fill="#FFFFFF" cx="84.8189636" cy="153.572259" rx="9.22845" ry="9.2246"></ellipse></g><path d="M27.0056846,133.54596 L26.5806166,137.144113 C26.5112634,137.733369 26.6701046,138.327098 27.0247008,138.802305 L29.1925476,141.706097 C30.0896648,142.906972 29.627683,144.630016 28.2495678,145.221508 L24.9194956,146.652719 C24.3736188,146.887527 23.939602,147.321363 23.704696,147.867012 L22.272888,151.195695 C21.6811486,152.572117 19.957386,153.033906 18.7560096,152.138281 L15.8510054,149.971339 C15.3756004,149.61689 14.7816238,149.456997 14.1921216,149.52744 L10.5924668,149.95233 C9.1036102,150.127877 7.8418294,148.866623 8.0174496,147.378387 L8.4425176,143.780234 C8.5118708,143.190978 8.3530296,142.597249 7.9984334,142.122043 L5.8305866,139.21825 C4.9334694,138.017375 5.3954512,136.294332 6.7735664,135.702839 L10.1036386,134.271629 C10.6495154,134.036821 11.0835322,133.602985 11.3184382,133.057336 L12.7502462,129.728653 C13.3419856,128.352231 15.0657482,127.890442 16.2671246,128.786066 L19.1721288,130.953009 C19.6475338,131.307457 20.2415104,131.46735 20.8310126,131.396908 L24.4306674,130.972017 C25.919524,130.79647 27.1813048,132.057725 27.0056846,133.54596 Z" id="Shape" fill="#BFD9FF"></path><path d="M701.487927,359.956779 L701.062859,363.554932 C700.993505,364.144188 701.152347,364.737917 701.506943,365.213123 L703.67479,368.116916 C704.571907,369.317791 704.109925,371.040834 702.73181,371.632327 L699.401738,373.063538 C698.855861,373.298346 698.421844,373.732181 698.186938,374.27783 L696.75513,377.606513 C696.163391,378.982935 694.439628,379.444725 693.238252,378.5491 L690.333247,376.382157 C689.857842,376.027709 689.263866,375.867816 688.674364,375.938258 L685.074709,376.363149 C683.585852,376.538696 682.324071,375.277442 682.499692,373.789206 L682.92476,370.191053 C682.994113,369.601797 682.835272,369.008068 682.480675,368.532861 L680.312829,365.629069 C679.415711,364.428194 679.877693,362.70515 681.255808,362.113658 L684.585881,360.682447 C685.131757,360.447639 685.565774,360.013803 685.80068,359.468154 L687.232488,356.139471 C687.824228,354.763049 689.54799,354.30126 690.749367,355.196885 L693.654371,357.363827 C694.129776,357.718276 694.723752,357.878169 695.313255,357.807726 L698.912909,357.382836 C700.401766,357.207289 701.663547,358.468543 701.487927,359.956779 Z" id="Shape" fill="#BFD9FF"></path><path d="M404.346378,34.4044317 L403.92131,38.0025848 C403.851957,38.5918411 404.010798,39.1855699 404.365395,39.6607765 L406.533241,42.5645688 C407.430359,43.765444 406.968377,45.4884875 405.590262,46.07998 L402.260189,47.5111907 C401.714313,47.7459987 401.280296,48.1798344 401.04539,48.7254835 L399.613582,52.0541664 C399.021842,53.4305885 397.29808,53.8923776 396.096703,52.9967528 L393.191699,50.8298104 C392.716294,50.4753621 392.122318,50.3154691 391.532815,50.3859115 L387.933161,50.8108021 C386.444304,50.9863491 385.182523,49.7250947 385.358143,48.2368592 L385.783211,44.6387061 C385.852565,44.0494499 385.693723,43.4557211 385.339127,42.9805144 L383.17128,40.0767221 C382.274163,38.8758469 382.736145,37.1528035 384.11426,36.5613109 L387.444332,35.1301003 C387.990209,34.8952923 388.424226,34.4614565 388.659132,33.9158075 L390.09094,30.5871245 C390.682679,29.2107024 392.406442,28.7489133 393.607818,29.6445381 L396.512823,31.8114805 C396.988228,32.1659288 397.582204,32.3258219 398.171706,32.2553795 L401.771361,31.8304888 C403.260218,31.6549419 404.521999,32.9161963 404.346378,34.4044317 Z" id="Shape" fill="#F9D5FF"></path><path d="M572.882485,108.201232 L572.457417,111.799385 C572.388063,112.388641 572.546905,112.98237 572.901501,113.457577 L575.069348,116.361369 C575.966465,117.562244 575.504483,119.285287 574.126368,119.87678 L570.796296,121.307991 C570.250419,121.542799 569.816402,121.976634 569.581496,122.522283 L568.149688,125.850966 C567.557949,127.227389 565.834186,127.689178 564.63281,126.793553 L561.727805,124.62661 C561.2524,124.272162 560.658424,124.112269 560.068922,124.182711 L556.469267,124.607602 C554.98041,124.783149 553.718629,123.521895 553.89425,122.033659 L554.319318,118.435506 C554.388671,117.84625 554.22983,117.252521 553.875233,116.777314 L551.707387,113.873522 C550.810269,112.672647 551.272251,110.949603 552.650366,110.358111 L555.980439,108.9269 C556.526315,108.692092 556.960332,108.258257 557.195238,107.712607 L558.627046,104.383925 C559.218786,103.007502 560.942548,102.545713 562.143925,103.441338 L565.048929,105.608281 C565.524334,105.962729 566.11831,106.122622 566.707813,106.052179 L570.307467,105.627289 C571.796324,105.451742 573.058105,106.712996 572.882485,108.201232 Z" id="Shape" fill="#F9D5FF"></path><path d="M165.325049,386.708119 L164.899981,390.306272 C164.830628,390.895528 164.989469,391.489257 165.344065,391.964463 L167.511912,394.868256 C168.409029,396.069131 167.947047,397.792174 166.568932,398.383667 L163.23886,399.814878 C162.692983,400.049686 162.258966,400.483521 162.02406,401.02917 L160.592252,404.357853 C160.000513,405.734275 158.27675,406.196065 157.075374,405.30044 L154.17037,403.133497 C153.694965,402.779049 153.100988,402.619156 152.511486,402.689598 L148.911831,403.114489 C147.422975,403.290036 146.161194,402.028782 146.336814,400.540546 L146.761882,396.942393 C146.831235,396.353137 146.672394,395.759408 146.317798,395.284201 L144.149951,392.380409 C143.252834,391.179534 143.714816,389.45649 145.092931,388.864998 L148.423003,387.433787 C148.96888,387.198979 149.402897,386.765143 149.637803,386.219494 L151.069611,382.890811 C151.66135,381.514389 153.385113,381.0526 154.586489,381.948225 L157.491493,384.115167 C157.966898,384.469616 158.560875,384.629509 159.150377,384.559066 L162.750032,384.134176 C164.238888,383.957511 165.500669,385.219883 165.325049,386.708119 Z" id="Shape" fill="#F9D5FF"></path><ellipse id="Oval" fill="url(#linearGradient-8)" cx="169.95046" cy="210.300223" rx="52.0126628" ry="51.9909637"></ellipse><path d="M233.708423,222.039505 L102.837816,222.039505 C96.3510544,222.039505 91.0936344,216.78316 91.0936344,210.300223 C91.0936344,203.816167 96.352173,198.560941 102.837816,198.560941 L233.707304,198.560941 C240.194066,198.560941 245.451486,203.817286 245.451486,210.300223 C245.452604,216.78316 240.194066,222.039505 233.708423,222.039505 Z" id="Shape" fill="url(#linearGradient-9)"></path></g></g></g></svg>