<svg width="696px" height="588px" viewBox="0 0 696 588" version="1.1" xmlns="http://www.w3.org/2000/svg" xmlns:xlink="http://www.w3.org/1999/xlink">

    <defs>
        <linearGradient x1="68.4463604%" y1="24.2675306%" x2="21.025519%" y2="99.4605866%" id="linearGradient-1">
            <stop stop-color="#86CC84" offset="0%"></stop>
            <stop stop-color="#FFFFFF" offset="100%"></stop>
        </linearGradient>
        <linearGradient x1="31.5659828%" y1="24.3100646%" x2="78.9728987%" y2="99.5322173%" id="linearGradient-2">
            <stop stop-color="#C0DDFC" offset="0%"></stop>
            <stop stop-color="#D3E7FD" offset="19%"></stop>
            <stop stop-color="#EBF4FE" offset="49%"></stop>
            <stop stop-color="#FAFCFF" offset="77%"></stop>
            <stop stop-color="#FFFFFF" offset="100%"></stop>
        </linearGradient>
        <linearGradient x1="50.0283708%" y1="17.9348243%" x2="50.0283708%" y2="96.7289445%" id="linearGradient-3">
            <stop stop-color="#C0DDFC" offset="0%"></stop>
            <stop stop-color="#D3E7FD" offset="19%"></stop>
            <stop stop-color="#EBF4FE" offset="49%"></stop>
            <stop stop-color="#FAFCFF" offset="77%"></stop>
            <stop stop-color="#FFFFFF" offset="100%"></stop>
        </linearGradient>
        <linearGradient x1="-14.3342952%" y1="42.1909601%" x2="135.166545%" y2="63.1846862%" id="linearGradient-4">
            <stop stop-color="#F8809A" offset="0%"></stop>
            <stop stop-color="#FFE651" offset="76%"></stop>
            <stop stop-color="#FFEEC3" offset="100%"></stop>
        </linearGradient>
        <linearGradient x1="49.9605916%" y1="-3.73528396%" x2="49.9605916%" y2="149.272393%" id="linearGradient-5">
            <stop stop-color="#F8809A" offset="0%"></stop>
            <stop stop-color="#FFE651" offset="76%"></stop>
            <stop stop-color="#FFEEC3" offset="100%"></stop>
        </linearGradient>
        <linearGradient x1="50.0190674%" y1="104.356532%" x2="50.0190674%" y2="0.882765901%" id="linearGradient-6">
            <stop stop-color="#9774AC" offset="0%"></stop>
            <stop stop-color="#47A6D3" offset="40%"></stop>
            <stop stop-color="#A7A7AE" offset="50%"></stop>
            <stop stop-color="#E89AC0" offset="59%"></stop>
            <stop stop-color="#BFE7D1" offset="100%"></stop>
        </linearGradient>
        <linearGradient x1="49.9621329%" y1="108.526462%" x2="49.9621329%" y2="-1.1412261%" id="linearGradient-7">
            <stop stop-color="#9774AC" offset="0%"></stop>
            <stop stop-color="#47A6D3" offset="40%"></stop>
            <stop stop-color="#A7A7AE" offset="50%"></stop>
            <stop stop-color="#E89AC0" offset="59%"></stop>
            <stop stop-color="#BFE7D1" offset="100%"></stop>
        </linearGradient>
        <linearGradient x1="50.0186571%" y1="920.024347%" x2="50.0186571%" y2="11.9725146%" id="linearGradient-8">
            <stop stop-color="#9774AC" offset="0%"></stop>
            <stop stop-color="#47A6D3" offset="40%"></stop>
            <stop stop-color="#A7A7AE" offset="50%"></stop>
            <stop stop-color="#E89AC0" offset="59%"></stop>
            <stop stop-color="#BFE7D1" offset="100%"></stop>
        </linearGradient>
        <linearGradient x1="50.0761492%" y1="-7.48947785%" x2="50.0761492%" y2="108.113054%" id="linearGradient-9">
            <stop stop-color="#F8809A" offset="0%"></stop>
            <stop stop-color="#FFE651" offset="76%"></stop>
            <stop stop-color="#FFEEC3" offset="100%"></stop>
        </linearGradient>
        <linearGradient x1="49.9764438%" y1="-8.81940223%" x2="49.9764438%" y2="111.001621%" id="linearGradient-10">
            <stop stop-color="#86CC84" offset="0%"></stop>
            <stop stop-color="#A4FF82" offset="100%"></stop>
        </linearGradient>
    </defs>
    <g id="Page-1" stroke="none" stroke-width="1" fill="none" fill-rule="evenodd">
        <g id="marginalia-ecology-care-copy-2" transform="translate(-54.000000, -56.000000)">
            <rect id="Rectangle-path-Copy-2" fill-opacity="0" fill="#FFFFFF" fill-rule="nonzero" x="0" y="0" width="800" height="781.5"></rect>
            <g id="Group" opacity="0.3" transform="translate(54.000000, 56.000000)" fill="#C4ECFE" fill-rule="nonzero">
                <path d="M689,2.4 L689,584.4 L3,584.4 L3,2.4 L689,2.4 Z M691.2,0.2 L0.8,0.2 L0.8,586.7 L691.2,586.7 L691.2,0.2 Z" id="Shape"></path>
                <g transform="translate(0.000000, 415.000000)" id="Rectangle-path">
                    <rect x="0.8" y="0.9" width="690.4" height="2.1"></rect>
                </g>
                <g transform="translate(0.000000, 332.000000)" id="Rectangle-path">
                    <rect x="0.8" y="0" width="690.4" height="2.1"></rect>
                </g>
                <g transform="translate(0.000000, 415.000000)" id="Rectangle-path">
                    <rect x="0.8" y="0.9" width="690.4" height="2.1"></rect>
                </g>
                <g transform="translate(0.000000, 499.000000)" id="Rectangle-path">
                    <rect x="0.8" y="0.9" width="690.4" height="2.1"></rect>
                </g>
                <g transform="translate(0.000000, 248.000000)" id="Rectangle-path">
                    <rect x="0.8" y="0" width="690.4" height="2.1"></rect>
                </g>
                <g transform="translate(0.000000, 164.000000)" id="Rectangle-path">
                    <rect x="0.8" y="0" width="690.4" height="2.1"></rect>
                </g>
                <g transform="translate(0.000000, 80.000000)" id="Rectangle-path">
                    <rect x="0.8" y="0" width="690.4" height="2.1"></rect>
                </g>
            </g>
            <circle id="Oval" fill="#BFD9FF" fill-rule="nonzero" cx="330.6" cy="413.2" r="3"></circle>
            <circle id="Oval" fill="#BFD9FF" fill-rule="nonzero" cx="674.7" cy="332.5" r="3"></circle>
            <circle id="Oval" fill="#BFD9FF" fill-rule="nonzero" cx="554.7" cy="85.1" r="3"></circle>
            <circle id="Oval" fill="#BFD9FF" fill-rule="nonzero" cx="719.7" cy="167.4" r="3"></circle>
            <circle id="Oval" fill="#BFD9FF" fill-rule="nonzero" cx="104.2" cy="116.7" r="3"></circle>
            <circle id="Oval" fill="#BFD9FF" fill-rule="nonzero" cx="224.7" cy="363.1" r="2.7"></circle>
            <polygon id="Shape" fill="#F9D5FF" fill-rule="nonzero" points="301.4 642.8 270.3 642.8 278.4 237.6 278.9 218.7 292.8 218.7 293.3 238"></polygon>
            <path d="M293.3,238 C288.4,239.2 283.2,239.1 278.5,237.6 L279,218.7 L292.8,218.7 L293.3,238 Z" id="Shape" fill="#181818" fill-rule="nonzero"></path>
            <path d="M290,202.4 L245.5,86.8 C245,85.7 243.8,85.2 242.7,85.6 C241.8,86 241.3,86.9 241.4,87.8 L250.5,176.9 L284.7,207.8 L290,202.4 Z" id="Shape" fill="#F9D5FF" fill-rule="nonzero"></path>
            <path d="M292.3,218.1 L414.8,235.6 C416,235.7 417,234.8 417.2,233.6 C417.3,232.7 416.8,231.8 415.9,231.4 L333.7,195.9 L290,210.7 L292.3,218.1 Z" id="Shape" fill="#F9D5FF" fill-rule="nonzero"></path>
            <path d="M277.4,212.4 L202.3,310.8 C201.6,311.8 201.9,313.1 202.8,313.8 C203.6,314.4 204.6,314.3 205.4,313.7 L276.5,259.3 L284.9,213.9 L277.4,212.4 Z" id="Shape" fill="#F9D5FF" fill-rule="nonzero"></path>
            <g id="Group" transform="translate(272.000000, 197.000000)" fill-rule="nonzero">
                <circle id="Oval" fill="#FFFFFF" cx="14.5" cy="13.9" r="13"></circle>
                <path d="M14.5,28 C6.8,28 0.5,21.7 0.5,14 C0.5,6.3 6.8,0 14.5,0 C22.2,0 28.5,6.3 28.5,14 C28.6,21.7 22.3,28 14.5,28 Z M14.5,2.1 C8,2.1 2.6,7.5 2.6,14 C2.6,20.5 8,25.9 14.5,25.9 C21,25.9 26.4,20.5 26.4,14 C26.4,7.4 21.1,2.1 14.5,2.1 Z" id="Shape" fill="#2B2B2B"></path>
            </g>
            <polygon id="Shape" fill="#F9D5FF" fill-rule="nonzero" points="167.824219 564.867187 151.35 564.867187 145.8 297.3 146.2 283.2 156.4 283.2 156.9 297.5"></polygon>
            <path d="M156.9,297.5 C153.3,298.4 149.4,298.3 145.8,297.2 L146.2,283.2 L156.5,283.2 L156.9,297.5 Z" id="Shape" fill="#181818" fill-rule="nonzero"></path>
            <path d="M156.4,272.4 L155.5,180.2 C155.5,179.3 154.8,178.6 153.9,178.5 C153.1,178.5 152.4,179.1 152.3,179.9 L135.4,244.4 L151.2,274.9 L156.4,272.4 Z" id="Shape" fill="#F9D5FF" fill-rule="nonzero"></path>
            <path d="M154,283.9 L234.9,328 C235.7,328.4 236.6,328.1 237.1,327.3 C237.5,326.6 237.3,325.8 236.7,325.3 L188.7,279.1 L154.4,278 L154,283.9 Z" id="Shape" fill="#F9D5FF" fill-rule="nonzero"></path>
            <path d="M145.1,276.1 L67.1,325.2 C66.3,325.6 65.9,326.6 66.4,327.4 C66.8,328.2 67.8,328.6 68.6,328.1 L132.3,308.6 L150,279.1 L145.1,276.1 Z" id="Shape" fill="#F9D5FF" fill-rule="nonzero"></path>
            <g id="Group" transform="translate(141.000000, 266.000000)" fill-rule="nonzero">
                <circle id="Oval" fill="#FFFFFF" cx="10.8" cy="11.4" r="9.6"></circle>
                <path d="M10.8,22.1 C4.9,22.1 0.1,17.3 0.1,11.4 C0.1,5.5 4.9,0.7 10.8,0.7 C16.7,0.7 21.5,5.5 21.5,11.4 C21.5,17.3 16.7,22.1 10.8,22.1 Z M10.8,2.8 C6.1,2.8 2.3,6.6 2.3,11.3 C2.3,16 6.1,19.8 10.8,19.8 C15.5,19.8 19.3,16 19.3,11.3 C19.3,6.6 15.5,2.8 10.8,2.8 Z" id="Shape" fill="#2B2B2B"></path>
            </g>
            <path d="M313.1,533.5 C280.8,503.6 211.1,525 196,443.6 C185.9,389.2 140.6,386.8 102.8,366.8 C82.2,355.9 57.4,370.8 57.4,394.2 C53.5100838,481.064569 83.5382088,546.4966 147.484375,590.496094 C201.491056,627.656517 262.571614,643.536456 354.324219,642.8 C365.58176,642.709641 387.040354,642.709641 418.7,642.8 C363.3,639 345.3,563.4 313.1,533.5 Z" id="Shape" fill="url(#linearGradient-1)" fill-rule="nonzero"></path>
            <path d="M531.7,551.4 C558.7,526.4 616.9,544.3 629.6,476.2 C638.1,430.7 676,428.7 707.5,411.9 C724.7,402.8 745.5,415.2 745.5,434.8 C754.65625,515.534896 748.615885,572.6875 727.378906,606.257812 C722.817375,613.468444 718.839399,622.151973 707.5,627.382812 C679.86461,640.130956 591.797943,645.203352 443.3,642.6 C489.5,639.6 504.7,576.3 531.7,551.4 Z" id="Shape" fill="url(#linearGradient-2)" fill-rule="nonzero"></path>
            <path d="M660.2,555.6 C677.8,551.5 687.4,538.5 695.5,524.3 C709.1,500.7 745.1,510.3 745.1,537.5 C741.871567,575.311719 725.338234,603.026563 695.5,620.644531 C665.661766,638.2625 622.861766,645.580989 567.1,642.6 C617.8,642.6 616.2,565.8 660.2,555.6 Z" id="Shape" fill="url(#linearGradient-3)" fill-rule="nonzero"></path>
            <polygon id="Rectangle-path" fill="#2B2B2B" fill-rule="nonzero" points="267.179688 639.4 652.1 639.4 652.1 642.6 258.199219 642.6"></polygon>
            <circle id="Oval" fill="#2B2B2B" fill-rule="nonzero" cx="438.1" cy="109.8" r="13.1"></circle>
            <circle id="Oval" fill="#2B2B2B" fill-rule="nonzero" cx="435.2" cy="131" r="13.1"></circle>
            <path d="M456.8,253.4 L536.3,286.3 C545.9,290.4 550.2,301.6 546,311 C542.2,319.5 532.8,324.1 523.9,321.6 L430.5,294.5 C424.3,292.8 419.4,288.3 416.8,282.5 L416.3,281.3 L456.8,253.4 Z" id="Shape" fill="#EA7068" fill-rule="nonzero"></path>
            <path d="M416.3,281.4 L379,194.2 C373.9,181.9 379.9,167.8 392.2,162.8 C404.2,157.9 418,163.4 423.3,175.2 L456.8,253.4 L416.3,281.4 Z" id="Shape" fill="url(#linearGradient-4)" fill-rule="nonzero"></path>
            <path d="M479.6,642.9 L393.2,642.5 C388.7,642.5 385,638.9 385,634.3 L384.8,623.4 L439.4,624.1 L480.7,634.5 C485.5,635.8 484.6,642.9 479.6,642.9 Z" id="Shape" fill="#2B2B2B" fill-rule="nonzero"></path>
            <path d="M440.9,248.6 C438.4,220.5 419.3,223.5 425,204 C430.7,184.5 419.9,158.8 398.3,160.7 C381.7,162.1 380.5,161.9 373.5,162.2 C325.7,164.5 339.1,199.3 336.1,256.1 L440.9,248.6 Z" id="Shape" fill="url(#linearGradient-5)" fill-rule="nonzero"></path>
            <path d="M361.5,273.7 L380.1,436.5 L384.7,625.7 L438.8,624.3 C446.3,586.2 458,465.9 458,444.3 C458,417.7 444,274.3 440.7,246.8 L361.5,273.7 Z" id="Shape" fill="url(#linearGradient-6)" fill-rule="nonzero"></path>
            <path d="M381.2,479.5 L382.1,519.2 L436.3,542.6 C441.4,544.8 447.4,542.5 449.6,537.4 C450,536.4 450.3,535.4 450.4,534.3 L454,497.8 L381.2,479.5 Z" id="Shape" fill="#2B2B2B" fill-rule="nonzero"></path>
            <path d="M336.1,256.2 C336.1,256.2 295.5,393.5 282.6,429.1 C274.4,451.6 228.8,592.6 229.1,592.8 L280.3,611.8 C282.4,608.4 309.8,563.5 316.5,549.3 C349.6,479.2 376.3,407.6 395.2,332.3 C399.3,316 403.8,299.4 406.2,282.8 L336.1,256.2 Z" id="Shape" fill="url(#linearGradient-7)" fill-rule="nonzero"></path>
            <path d="M333.5,264.8 L330.6,298.4 C329.5,311 334.7,323.4 344.4,331.5 L421.1,395.2 L437.5,362.6 L351.2,268.4 L336,256.2 L333.5,264.8 Z" id="Shape" fill="#2B2B2B" fill-rule="nonzero"></path>
            <path d="M336.1,256.2 C337.4,271 354.8,291.9 380.7,289.8 L401.5,287.5 C425.1,285.6 442.2,263 440.7,247 L336.1,256.2 Z" id="Shape" fill="url(#linearGradient-8)" fill-rule="nonzero"></path>
            <path d="M402,160.6 C402,160.6 411.8,160.8 416.8,167.3 L400.2,176.6 L402,160.6 Z" id="Shape" fill="#2B2B2B" fill-rule="nonzero"></path>
            <path d="M391.7,178.3 L366.4,170 L377.7,132.1 L408.8,131 L403.1,169.4 C403.5,174.2 399.9,178.4 395.1,178.7 C393.9,178.7 392.8,178.7 391.7,178.3 Z" id="Shape" fill="#EA7068" fill-rule="nonzero"></path>
            <polygon id="Shape" fill="#2B2B2B" fill-rule="nonzero" points="405.5 152.6 390.4 147.5 403 169.2"></polygon>
            <path d="M312.6,642 L231,613.5 C226.7,612 224.4,607.4 225.8,603.1 L229.1,592.7 L280.5,611.2 L316.2,634.4 C320.4,637.2 317.2,643.6 312.6,642 Z" id="Shape" fill="#2B2B2B" fill-rule="nonzero"></path>
            <path d="M376.5,399.6 C376.4,399.6 376.3,399.6 376.2,399.5 C375.6,399.4 375.3,398.7 375.5,398.1 L388.9,352.4 C389,351.8 389.7,351.5 390.3,351.7 C390.9,351.8 391.2,352.5 391,353.1 L377.6,398.8 C377.4,399.3 376.9,399.6 376.5,399.6 Z" id="Shape" fill="#2B2B2B" fill-rule="nonzero"></path>
            <path d="M282.6,456.2 C282,456.2 281.5,455.7 281.5,455.1 L281.5,429 C281.5,428.4 282,427.9 282.6,427.9 C283.2,427.9 283.7,428.4 283.7,429 L283.7,455.1 C283.6,455.8 283.1,456.2 282.6,456.2 Z" id="Shape" fill="#2B2B2B" fill-rule="nonzero"></path>
            <path d="M381.1,468.8 C380.9,468.8 380.6,468.7 380.4,468.5 C380,468.1 379.9,467.4 380.3,467 L387.4,458.6 C387.8,458.2 388.5,458.1 388.9,458.5 C389.3,458.9 389.4,459.6 389,460 L381.9,468.4 C381.8,468.7 381.4,468.8 381.1,468.8 Z" id="Shape" fill="#2B2B2B" fill-rule="nonzero"></path>
            <path d="M446.3,109.6 C446.3,112.9 445.7,116.2 444.6,119.4 L442.9,124.3 L440.7,130.4 L435.6,144.8 C431.8,155.6 419.9,161.2 409.1,157.3 L390.7,150.7 C381.2,147.3 376.2,136.9 379.6,127.3 L389.5,99.6 C394.9,84.4 411.7,76.4 426.9,81.9 C438.9,86.3 446.3,97.6 446.3,109.6 Z" id="Shape" fill="#EA7068" fill-rule="nonzero"></path>
            <path d="M409,157.4 L390.6,150.8 C381.1,147.4 376.1,136.9 379.5,127.4 L389.4,99.7 C394.8,84.5 411.6,76.5 426.8,82 C442,87.4 450,104.2 444.5,119.4 L435.5,144.8 C431.7,155.6 419.8,161.3 409,157.4 Z" id="Shape"></path>
            <path d="M442.8,124.4 L440.6,130.5 C439.7,129.9 439,128.9 439,127.7 C439,125.9 440.4,124.4 442.3,124.4 C442.5,124.4 442.7,124.4 442.8,124.4 Z" id="Shape" fill="#2B2B2B" fill-rule="nonzero"></path>
            <path d="M431.7,134.7 C431.3,134.7 431,134.5 430.8,134.1 C430.5,133.6 430.7,132.9 431.2,132.7 L434.8,130.7 C435.2,130.6 435.4,130.3 435.5,130 C435.6,129.7 435.6,129.4 435.6,129.1 L433.1,124.4 C432.8,123.9 433,123.2 433.5,123 C434,122.7 434.7,122.9 434.9,123.4 L437.5,128.3 C437.8,129.2 437.8,130 437.4,130.8 C437,131.6 436.4,132.2 435.5,132.5 C435.5,132.5 435.5,132.5 435.4,132.5 L432.1,134.3 C432.1,134.6 431.8,134.7 431.7,134.7 Z" id="Shape" fill="#2B2B2B" fill-rule="nonzero"></path>
            <path d="M430.4,143.6 C430,143.6 429.7,143.5 429.3,143.5 C425.9,142.7 424.2,138.7 424.1,138.4 C423.9,137.8 424.1,137.2 424.7,137 C425.3,136.8 425.9,137 426.1,137.6 C426.5,138.5 427.9,140.9 429.8,141.4 C430.9,141.7 432.2,141.2 433.5,140 C433.9,139.6 434.7,139.6 435,140.1 C435.3,140.6 435.4,141.3 434.9,141.6 C433.4,143 431.9,143.6 430.4,143.6 Z" id="Shape" fill="#2B2B2B" fill-rule="nonzero"></path>
            <circle id="Oval" fill="#2B2B2B" fill-rule="nonzero" cx="424.5" cy="121.4" r="3.3"></circle>
            <circle id="Oval" fill="#2B2B2B" fill-rule="nonzero" cx="385.7" cy="105" r="13.1"></circle>
            <circle id="Oval" fill="#2B2B2B" fill-rule="nonzero" transform="translate(376.967230, 120.314960) rotate(-80.781636) translate(-376.967230, -120.314960) " cx="376.96723" cy="120.31496" r="13.1001994"></circle>
            <path d="M448.3,109.8 C446.7,111.6 440.8,120.3 432.5,105 C430.2,100.7 426.5,101.2 423.2,98.3 C421.6,96.9 419.2,97 417.8,98.6 C417.6,98.9 417.4,99.2 417.2,99.5 L410.8,112.6 C409.6,114.9 407.3,116.5 404.7,116.7 L398.3,117.1 L390.6,128.9 C387.6,133.6 381.6,135.6 376.3,133.5 C376.3,133.5 386.1,107.7 390.5,96.6 C395,85.4 409.4,76 426.9,82 C444.4,87.9 448.3,109.8 448.3,109.8 Z" id="Shape" fill="#2B2B2B" fill-rule="nonzero"></path>
            <circle id="Oval" fill="#2B2B2B" fill-rule="nonzero" cx="421.9" cy="97" r="13.8"></circle>
            <path d="M396.2,122.2 L395.5,121.9 C392.8,120.9 391.3,117.8 392.3,115 L394.5,109 C395.5,106.3 398.6,104.8 401.4,105.8 L402.1,106.1 C404.8,107.1 406.3,110.2 405.3,113 L403.1,119 C402,121.8 399,123.2 396.2,122.2 Z" id="Shape" fill="#EA7068" fill-rule="nonzero"></path>
            <path d="M423.6,373.7 L503,410.5 L459.7,503.9 C455.2,513.6 443.8,517.8 434.1,513.3 L389.7,492.8 C380,488.3 375.8,476.9 380.3,467.2 L423.6,373.7 Z" id="Shape" fill="#4C7DE0" fill-rule="nonzero"></path>
            <path d="M490.2,438.1 L410.8,401.3 L426.1,368.4 C436.2,346.5 462.3,336.9 484.2,347.1 C506.1,357.2 515.7,383.3 505.5,405.2 L490.2,438.1 Z M430,394.3 L483.1,418.9 L492.3,399.1 C499.4,384.6 493.5,367 478.9,359.9 C464.4,352.8 446.8,358.7 439.7,373.3 C439.5,373.7 439.3,374.1 439.1,374.5 L430,394.3 Z" id="Shape" fill="#4C7DE0" fill-rule="nonzero"></path>
            <polygon id="Shape" fill="#4C7DE0" fill-rule="nonzero" points="546.2 458.9 550 450.7 466.8 471.6 456.1 508.2"></polygon>
            <polygon id="Shape" fill="#4C7DE0" fill-rule="nonzero" points="574.2 475.4 546.2 458.9 544.1 452.6 556.7 422.7"></polygon>
            <polygon id="Shape" fill="#2B2B2B" fill-rule="nonzero" points="539.4 453.3 539.1 462.8 546.2 458.9 544.3 452.1"></polygon>
            <path d="M444.1,383.1 L482.7,401 C486.8,402.9 488.5,407.7 486.6,411.7 C484.7,415.8 479.9,417.5 475.9,415.6 L437.3,397.7 C433.2,395.8 431.5,391 433.4,387 C435.2,383 440,381.3 444.1,383.1 Z" id="Shape" fill="#2B2B2B" fill-rule="nonzero"></path>
            <path d="M443.1,464.6 C440.5,470.8 433.4,473.7 427.2,471.1 C421,468.5 418.1,461.4 420.7,455.2 C420.8,454.9 420.9,454.7 421.1,454.4 C423.9,448.3 440.9,440.5 440.9,440.5 C440.9,440.5 445.9,458.5 443.1,464.6 Z" id="Shape" fill="#98B4ED" fill-rule="nonzero"></path>
            <path d="M433.1,436.7 C429.9,439.7 424.9,439.6 421.8,436.5 C419,433.5 418.8,428.9 421.5,425.8 C424.5,422.6 436.7,421.4 436.7,421.4 C436.7,421.4 436.2,433.5 433.1,436.7 Z" id="Shape" fill="#98B4ED" fill-rule="nonzero"></path>
            <path d="M448.5,444.4 C447.9,448.7 451,452.8 455.3,453.4 C459.4,454 463.3,451.2 464.2,447.2 C464.9,442.9 458.8,432.4 458.8,432.4 C458.8,432.4 449.2,440.1 448.5,444.4 Z" id="Shape" fill="#98B4ED" fill-rule="nonzero"></path>
            <path d="M388.2,180.1 C386.5,180.7 384.7,180.9 382.8,180.9 C373.7,180.9 366.6,174.7 364.1,166.5 C363.4,166.5 362.7,166.5 361.9,166.6 C346,167.5 333.8,181.2 334.7,197.2 L340.3,292.9 L397.4,278.3 L392.4,193.9 C392.3,188.9 390.7,184.2 388.2,180.1 Z" id="Shape" fill="url(#linearGradient-9)" fill-rule="nonzero"></path>
            <path d="M397.5,278.1 L464.1,342.1 C473.1,350.7 473.4,365 464.8,374 C456.9,382.2 444.1,383.3 435,376.4 L350.6,313.1 C344.7,308.7 341,301.9 340.5,294.5 L340.4,292.8 L397.5,278.1 Z" id="Shape" fill="#EA7068" fill-rule="nonzero"></path>
            <path d="M390.7,92.8 C390.7,92.8 399.7,57.1 407.7,56.9 C415.7,56.7 416.5,65.4 421.2,65.8 C425.8,66.2 427.9,57.1 436.4,59.1 C444.9,61.1 445.5,96.8 445.5,96.8 L390.7,92.8 Z" id="Shape" fill="#BE6361" fill-rule="nonzero"></path>
            <polygon id="Shape" fill="#2B2B2B" fill-rule="nonzero" points="393.8 82.3 445 86 445.6 96.8 390.7 92.8"></polygon>
            <path d="M476.4,100.2 L361.7,92 C361,91.9 360.5,91.3 360.6,90.7 C360.7,90.1 361.3,89.5 361.9,89.6 L476.5,97.8 C477.2,97.9 477.7,98.5 477.6,99.1 C477.5,99.7 477,100.2 476.4,100.2 Z" id="Shape" fill="#BE6361" fill-rule="nonzero"></path>
            <path d="M396,253 C395.4,253 395,252.6 394.9,252 L392.4,210.1 C392.4,209.5 392.8,209 393.4,208.9 C394,208.9 394.5,209.3 394.6,209.9 L397.1,251.8 C397.1,252.4 396.7,252.9 396,253 Z" id="Shape" fill="#2B2B2B" fill-rule="nonzero"></path>
            <path d="M440.7,248 C440.1,248 439.7,247.6 439.6,247.1 C438.2,234.7 433.4,229.1 429.1,224 C424.6,218.7 420.8,214.2 423.9,203.7 C424,203.1 424.7,202.8 425.3,203 C425.9,203.1 426.2,203.8 426,204.4 C423.3,213.7 426.4,217.5 430.8,222.6 C435,227.6 440.2,233.8 441.7,246.8 C441.8,247.4 441.4,248 440.7,248 C440.8,248 440.7,248 440.7,248 Z" id="Shape" fill="#2B2B2B" fill-rule="nonzero"></path>
            <path d="M576,555.8 C576,560.6 572.1,564.5 567.3,564.5 C562.5,564.5 558.6,560.6 558.6,555.8 C558.6,551 567.3,531.7 567.3,531.7 C567.3,531.7 576,551 576,555.8 Z" id="Shape" fill="#98B4ED" fill-rule="nonzero"></path>
            <path d="M615.3,597.1 C615.2,599.8 612.9,601.9 610.2,601.9 C607.6,601.8 605.5,599.7 605.4,597.1 C605.4,594.4 610.3,583.4 610.3,583.4 C610.3,583.4 615.3,594.4 615.3,597.1 Z" id="Shape" fill="#98B4ED" fill-rule="nonzero"></path>
            <path d="M588.3,519.2 C588.2,521.9 585.9,524 583.2,524 C580.6,523.9 578.5,521.8 578.4,519.2 C578.4,516.5 583.3,505.5 583.3,505.5 C583.3,505.5 588.3,516.5 588.3,519.2 Z" id="Shape" fill="#98B4ED" fill-rule="nonzero"></path>
            <circle id="Oval" fill="url(#linearGradient-10)" fill-rule="nonzero" cx="593.1" cy="228.7" r="98.7"></circle>
            <path d="M593.1,642.5 C592.5,642.5 592,642 592,641.4 L592,291.3 C592,290.7 592.5,290.2 593.1,290.2 C593.7,290.2 594.2,290.7 594.2,291.3 L594.2,641.4 C594.1,642 593.7,642.5 593.1,642.5 Z" id="Shape" fill="#2B2B2B" fill-rule="nonzero"></path>
            <path d="M576.6,641.4 C576.6,632.3 584,625 593.1,625 C602.1,625 609.5,632.4 609.5,641.4 L576.6,641.4 Z" id="Shape" fill="#2B2B2B" fill-rule="nonzero"></path>
            <path d="M600.1,641.4 C600.1,634.7 605.5,629.2 612.3,629.2 C619.1,629.2 624.5,634.6 624.5,641.4 L600.1,641.4 Z" id="Shape" fill="#2B2B2B" fill-rule="nonzero"></path>
            <path d="M563.9,641.4 C563.9,634.7 569.3,629.2 576.1,629.2 C582.9,629.2 588.3,634.6 588.3,641.4 L563.9,641.4 Z" id="Shape" fill="#2B2B2B" fill-rule="nonzero"></path>
            <path d="M593.1,419.9 C592.8,419.9 592.5,419.8 592.3,419.6 C591.9,419.2 591.9,418.5 592.3,418.1 L633,377.4 C633.4,377 634.1,377 634.5,377.4 C634.9,377.8 634.9,378.5 634.5,378.9 L593.8,419.6 C593.6,419.8 593.3,419.9 593.1,419.9 Z" id="Shape" fill="#2B2B2B" fill-rule="nonzero"></path>
            <path d="M593.1,374.2 C592.8,374.2 592.5,374.1 592.3,373.9 L563.1,344.7 C562.7,344.3 562.7,343.6 563.1,343.2 C563.5,342.8 564.2,342.8 564.6,343.2 L593.8,372.4 C594.2,372.8 594.2,373.5 593.8,373.9 C593.6,374 593.3,374.2 593.1,374.2 Z" id="Shape" fill="#2B2B2B" fill-rule="nonzero"></path>
            <circle id="Oval" fill="#9CF480" fill-rule="nonzero" cx="633.8" cy="266.4" r="6.5"></circle>
            <circle id="Oval" fill="#9CF480" fill-rule="nonzero" cx="624.7" cy="297.8" r="6.5"></circle>
            <circle id="Oval" fill="#9CF480" fill-rule="nonzero" cx="578.5" cy="209.9" r="6.5"></circle>
            <circle id="Oval" fill="#9CF480" fill-rule="nonzero" cx="580.2" cy="274.9" r="6.5"></circle>
            <circle id="Oval" fill="#9CF480" fill-rule="nonzero" cx="563.9" cy="240.4" r="6.5"></circle>
            <circle id="Oval" fill="#9CF480" fill-rule="nonzero" cx="663.2" cy="262.7" r="6.5"></circle>
            <circle id="Oval" fill="#9CF480" fill-rule="nonzero" cx="615.4" cy="216.5" r="6.5"></circle>
            <circle id="Oval" fill="#9CF480" fill-rule="nonzero" cx="531.8" cy="262.7" r="6.5"></circle>
            <path d="M713.6,423.4 C711.4,423.4 709.6,421.6 709.6,419.4 L709.6,336.8 C709.6,334.6 711.4,332.8 713.6,332.8 C715.8,332.8 717.6,334.6 717.6,336.8 L717.6,419.4 C717.6,421.6 715.8,423.4 713.6,423.4 Z" id="Shape" fill="#DCECFD" fill-rule="nonzero"></path>
            <path d="M713.6,366.6 C713.4,366.6 713.2,366.6 712.9,366.5 C710.7,366.1 709.3,364.1 709.6,361.9 C711.4,351.1 721,343.6 731.8,344.5 C734,344.6 735.6,346.6 735.5,348.8 C735.4,351 733.4,352.6 731.2,352.5 C724.5,352 718.5,356.6 717.5,363.3 C717.2,365.2 715.6,366.6 713.6,366.6 Z" id="Shape" fill="#DCECFD" fill-rule="nonzero"></path>
            <path d="M713.6,366.6 C711.7,366.6 710,365.2 709.7,363.3 C708.6,356.6 702.7,352 696,352.5 C693.8,352.6 691.9,351.1 691.7,348.8 C691.6,346.6 693.1,344.7 695.4,344.5 C706.3,343.7 715.8,351.2 717.6,361.9 C718,364.1 716.5,366.1 714.3,366.5 C714,366.6 713.8,366.6 713.6,366.6 Z" id="Shape" fill="#DCECFD" fill-rule="nonzero"></path>
            <path d="M713.6,386.5 C713.4,386.5 713.2,386.5 712.9,386.4 C710.7,386 709.3,384 709.6,381.8 C711.4,371 721,363.5 731.8,364.4 C734,364.5 735.6,366.5 735.5,368.7 C735.4,370.9 733.4,372.5 731.2,372.4 C724.5,371.9 718.5,376.5 717.5,383.2 C717.2,385.1 715.6,386.5 713.6,386.5 Z" id="Shape" fill="#DCECFD" fill-rule="nonzero"></path>
            <path d="M713.6,386.5 C711.7,386.5 710,385.1 709.7,383.2 C708.6,376.5 702.7,371.9 696,372.4 C693.8,372.5 691.9,371 691.7,368.7 C691.6,366.5 693.1,364.6 695.4,364.4 C706.3,363.6 715.8,371.1 717.6,381.8 C718,384 716.5,386 714.3,386.4 C714,386.5 713.8,386.5 713.6,386.5 Z" id="Shape" fill="#DCECFD" fill-rule="nonzero"></path>
            <path d="M665.8,455.5 C663.6,455.5 661.8,453.7 661.8,451.5 L661.8,368.9 C661.8,366.7 663.6,364.9 665.8,364.9 C668,364.9 669.8,366.7 669.8,368.9 L669.8,451.5 C669.8,453.8 667.9,455.5 665.8,455.5 Z" id="Shape" fill="#DCECFD" fill-rule="nonzero"></path>
            <path d="M665.8,398.6 C665.6,398.6 665.4,398.6 665.1,398.5 C662.9,398.1 661.5,396.1 661.8,393.9 C663.6,383.1 673.2,375.6 684,376.5 C686.2,376.6 687.8,378.6 687.7,380.8 C687.6,383 685.6,384.6 683.4,384.5 C676.7,384 670.7,388.6 669.7,395.3 C669.4,397.3 667.7,398.6 665.8,398.6 Z" id="Shape" fill="#DCECFD" fill-rule="nonzero"></path>
            <path d="M665.8,398.6 C663.9,398.6 662.2,397.2 661.9,395.3 C660.8,388.6 654.9,384 648.2,384.5 C646,384.6 644.1,383.1 643.9,380.8 C643.8,378.6 645.3,376.7 647.6,376.5 C658.5,375.6 668.1,383.2 669.8,393.9 C670.2,396.1 668.7,398.1 666.5,398.5 C666.2,398.6 666,398.6 665.8,398.6 Z" id="Shape" fill="#DCECFD" fill-rule="nonzero"></path>
            <path d="M665.8,418.6 C665.6,418.6 665.4,418.6 665.1,418.5 C662.9,418.1 661.5,416.1 661.8,413.9 C663.6,403.1 673.2,395.7 684,396.5 C686.2,396.6 687.8,398.6 687.7,400.8 C687.6,403 685.6,404.6 683.4,404.5 C676.7,404 670.7,408.6 669.7,415.3 C669.4,417.2 667.7,418.6 665.8,418.6 Z" id="Shape" fill="#DCECFD" fill-rule="nonzero"></path>
            <path d="M665.8,418.6 C663.9,418.6 662.2,417.2 661.9,415.3 C660.8,408.6 654.9,404 648.2,404.5 C646,404.6 644.1,403.1 643.9,400.8 C643.8,398.6 645.3,396.7 647.6,396.5 C658.5,395.7 668,403.2 669.8,413.9 C670.2,416.1 668.7,418.1 666.5,418.5 C666.2,418.6 666,418.6 665.8,418.6 Z" id="Shape" fill="#DCECFD" fill-rule="nonzero"></path>
            <path d="M221.9,508.8 C219.7,508.8 217.9,507 217.9,504.8 L217.9,422.2 C217.9,420 219.7,418.2 221.9,418.2 C224.1,418.2 225.9,420 225.9,422.2 L225.9,504.8 C225.9,507 224.2,508.8 221.9,508.8 Z" id="Shape" fill="#86CC84" fill-rule="nonzero"></path>
            <path d="M221.9,452 C221.7,452 221.5,452 221.2,451.9 C219,451.5 217.6,449.5 217.9,447.3 C219.7,436.5 229.3,429.1 240.1,429.9 C242.3,430 243.9,432 243.8,434.2 C243.7,436.4 241.7,438 239.5,437.9 C232.8,437.4 226.8,442 225.8,448.7 C225.5,450.5 223.9,452 221.9,452 Z" id="Shape" fill="#86CC84" fill-rule="nonzero"></path>
            <path d="M221.9,452 C220,452 218.3,450.6 218,448.7 C216.9,442 211,437.4 204.3,437.9 C202.1,438 200.2,436.5 200,434.2 C199.9,432 201.4,430.1 203.7,429.9 C214.6,429.1 224.1,436.6 225.9,447.3 C226.3,449.5 224.8,451.5 222.6,451.9 C222.4,451.9 222.1,452 221.9,452 Z" id="Shape" fill="#86CC84" fill-rule="nonzero"></path>
            <path d="M221.9,471.9 C221.7,471.9 221.5,471.9 221.2,471.8 C219,471.4 217.6,469.4 217.9,467.2 C219.7,456.4 229.3,449 240.1,449.8 C242.3,449.9 243.9,451.9 243.8,454.1 C243.7,456.3 241.7,457.9 239.5,457.8 C232.8,457.3 226.8,461.9 225.8,468.6 C225.5,470.5 223.9,471.9 221.9,471.9 Z" id="Shape" fill="#86CC84" fill-rule="nonzero"></path>
            <path d="M221.9,471.9 C220,471.9 218.3,470.5 218,468.6 C216.9,461.9 211,457.3 204.3,457.8 C202.1,457.9 200.2,456.4 200,454.1 C199.9,451.9 201.4,450 203.7,449.8 C214.6,449 224.2,456.5 225.9,467.2 C226.3,469.4 224.8,471.4 222.6,471.8 C222.4,471.9 222.1,471.9 221.9,471.9 Z" id="Shape" fill="#86CC84" fill-rule="nonzero"></path>
        </g>
    </g>
</svg>