<svg width="692px" fill="#d0e0fd" height="587px" viewBox="0 0 692 587" version="1.1" xmlns="http://www.w3.org/2000/svg" xmlns:xlink="http://www.w3.org/1999/xlink">
    <defs>
        <linearGradient x1="50.0271065%" y1="-57.5144968%" x2="50.0271065%" y2="56.2082348%" id="linearGradient-1">
            <stop stop-color="#F8809A" offset="0%"></stop>
            <stop stop-color="#FFE651" offset="76%"></stop>
            <stop stop-color="#FFEEC3" offset="100%"></stop>
        </linearGradient>
        <linearGradient x1="50.0042853%" y1="25.8046849%" x2="50.0042853%" y2="100.966572%" id="linearGradient-2">
            <stop stop-color="#F9D5FF" offset="0%"></stop>
            <stop stop-color="#F4C5A1" offset="100%"></stop>
        </linearGradient>
        <linearGradient x1="50.0493741%" y1="-220.761468%" x2="50.0493741%" y2="416.594266%" id="linearGradient-3">
            <stop stop-color="#F8809A" offset="0%"></stop>
            <stop stop-color="#FFE651" offset="76%"></stop>
            <stop stop-color="#FFEEC3" offset="100%"></stop>
        </linearGradient>
        <linearGradient x1="49.9976427%" y1="-91.8869908%" x2="49.9976427%" y2="90.6932326%" id="linearGradient-4">
            <stop stop-color="#F8809A" offset="0%"></stop>
            <stop stop-color="#FFE651" offset="76%"></stop>
            <stop stop-color="#FFEEC3" offset="100%"></stop>
        </linearGradient>
        <linearGradient x1="49.9992458%" y1="1.83294301%" x2="49.9992458%" y2="218.762763%" id="linearGradient-5">
            <stop stop-color="#F8809A" offset="0%"></stop>
            <stop stop-color="#FFE651" offset="76%"></stop>
            <stop stop-color="#FFEEC3" offset="100%"></stop>
        </linearGradient>
        <linearGradient x1="49.9970453%" y1="25.7451027%" x2="49.9970453%" y2="100.954666%" id="linearGradient-6">
            <stop stop-color="#F9D5FF" offset="0%"></stop>
            <stop stop-color="#F4C5A1" offset="100%"></stop>
        </linearGradient>
        <linearGradient x1="50.0323121%" y1="-63.2078509%" x2="50.0323121%" y2="60.6231627%" id="linearGradient-7">
            <stop stop-color="#F8809A" offset="0%"></stop>
            <stop stop-color="#FFE651" offset="76%"></stop>
            <stop stop-color="#FFEEC3" offset="100%"></stop>
        </linearGradient>
    </defs>
    <g id="Page-1" stroke="none" stroke-width="1" fill="none" fill-rule="evenodd">
        <g id="marginalia-robots-and-drones-(1)-copy-2" transform="translate(-54.000000, -56.000000)">
            <rect id="Rectangle-path" fill-opacity="0" fill="#FFFFFF" fill-rule="nonzero" x="0" y="0" width="800" height="781.5"></rect>
            <g id="Group" opacity="0.3" transform="translate(54.000000, 56.000000)">
                <path d="M689,2.4 L689,584.4 L3,584.4 L3,2.4 L689,2.4 Z M691.2,0.2 L0.8,0.2 L0.8,586.7 L691.2,586.7 L691.2,0.2 Z" id="Shape" fill="#C4ECFE" fill-rule="nonzero"></path>
                <path d="M0.8,417 L691.2,417" id="Shape" stroke="#C4ECFE" stroke-width="2.91"></path>
                <path d="M0.8,333 L691.2,333" id="Shape" stroke="#C4ECFE" stroke-width="2.91"></path>
                <path d="M0.8,417 L691.2,417" id="Shape" stroke="#C4ECFE" stroke-width="2.91"></path>
                <path d="M0.8,500.9 L691.2,500.9" id="Shape" stroke="#C4ECFE" stroke-width="2.91"></path>
                <path d="M0.8,249.1 L691.2,249.1" id="Shape" stroke="#C4ECFE" stroke-width="2.91"></path>
                <path d="M0.8,165.1 L691.2,165.1" id="Shape" stroke="#C4ECFE" stroke-width="2.91"></path>
                <path d="M0.8,81.1 L691.2,81.1" id="Shape" stroke="#C4ECFE" stroke-width="2.91"></path>
            </g>
            <circle id="Oval" fill="#BFD9FF" fill-rule="nonzero" cx="426.3" cy="432.1" r="3"></circle>
            <circle id="Oval" fill="#BFD9FF" fill-rule="nonzero" cx="492.3" cy="597" r="3"></circle>
            <circle id="Oval" fill="#BFD9FF" fill-rule="nonzero" cx="648.6" cy="73.5" r="3"></circle>
            <circle id="Oval" fill="#BFD9FF" fill-rule="nonzero" cx="690.5" cy="173.2" r="3"></circle>
            <circle id="Oval" fill="#BFD9FF" fill-rule="nonzero" cx="104.2" cy="116.7" r="3"></circle>
            <circle id="Oval" fill="#BFD9FF" fill-rule="nonzero" cx="397.4" cy="255.6" r="2.7"></circle>
            <path d="M646.9,247.5 L646,240.3 C671.8,237.2 684.4,223.7 696.8,210.6 C709.5,197.1 721.4,184.5 745.2,184.5 L745.2,191.7 C724.5,191.7 714.1,202.8 702.1,215.5 C689.4,229 675.2,244.1 646.9,247.5 Z" id="Shape" fill="#F9D5FF" fill-rule="nonzero"></path>
            <g id="Group" transform="translate(322.000000, 439.000000)" fill-rule="nonzero">
                <path d="M43.3,24.7 C40.8,26.1 37.7,26.3 35,25.1 L24.3,20.1 L13.7,23.3 C8.9,24.7 3.9,22 2.4,17.2 C1,12.4 3.7,7.4 8.5,5.9 L22.3,1.8 C24.4,1.1 26.7,1.4 28.7,2.3 L42.5,8.8 C47.1,10.9 49,16.3 46.8,20.8 C46.2,22.4 44.9,23.8 43.3,24.7 Z" id="Shape" fill="#FFFFFF"></path>
                <path d="M38.8,27 C37.4,27 35.9,26.7 34.5,26.1 L24.2,21.3 L14.1,24.3 C8.7,25.9 3.1,22.9 1.4,17.5 C-0.2,12.1 2.8,6.5 8.2,4.8 L22,0.7 C24.4,-3.33066907e-16 26.9,0.2 29.2,1.2 L43.1,7.7 C48.2,10.1 50.3,16.1 48,21.2 C47.1,23.1 45.7,24.7 43.8,25.8 C43.7,25.9 43.7,25.9 43.6,25.9 C42,26.6 40.4,27 38.8,27 Z M24.2,19 C24.3,19 24.5,19 24.6,19.1 L35.3,24.1 C37.6,25.2 40.4,25.1 42.6,23.8 C42.7,23.7 42.7,23.7 42.8,23.7 C44.2,22.9 45.2,21.7 45.9,20.2 C47.8,16.2 46,11.4 42.1,9.6 L28.2,3.1 C26.4,2.3 24.4,2.2 22.6,2.7 L8.8,6.8 C4.6,8 2.2,12.5 3.4,16.7 C4.6,20.9 9.1,23.3 13.3,22.1 L23.9,18.9 C24,19 24.1,19 24.2,19 Z" id="Shape" fill="#2B2B2B"></path>
            </g>
            <g id="Group" transform="translate(301.000000, 470.000000)" fill-rule="nonzero">
                <path d="M43.8,52.9 C40.4,54.9 36.1,54.3 33.2,51.7 L17.6,37.5 C17,37 16.6,36.5 16.2,35.8 L2.7,15.7 C-0.1,11.6 1,5.9 5.2,3.1 C9.3,0.3 15,1.4 17.8,5.6 L30.7,24.8 L45.5,38.3 C49.2,41.7 49.5,47.4 46.1,51.1 C45.4,51.9 44.7,52.4 43.8,52.9 Z" id="Shape" fill="#FFFFFF"></path>
                <path d="M39.3,55.2 C36.8,55.2 34.4,54.3 32.5,52.5 L16.9,38.3 C16.3,37.7 15.7,37.1 15.3,36.4 L1.8,16.3 C-1.3,11.7 -0.1,5.3 4.5,2.2 C6.7,0.7 9.4,0.2 12.1,0.7 C14.8,1.2 17.1,2.7 18.6,5 L31.4,24.1 L46.1,37.5 C48.1,39.3 49.3,41.8 49.4,44.5 C49.5,47.2 48.6,49.8 46.7,51.8 C46,52.5 45.3,53.2 44.5,53.7 C44.4,53.8 44.4,53.8 44.3,53.8 C42.8,54.7 41,55.2 39.3,55.2 Z M10.2,2.7 C8.6,2.7 7.1,3.1 5.8,4.1 C2.2,6.6 1.2,11.6 3.6,15.2 L17.1,35.3 C17.5,35.8 17.9,36.3 18.4,36.7 L34,50.9 C36.5,53.1 40.2,53.6 43.1,52.1 C43.2,52 43.2,52 43.3,52 C44,51.6 44.7,51.1 45.3,50.4 C48.3,47.1 48,42.1 44.8,39.1 L29.9,25.7 C29.8,25.6 29.8,25.6 29.8,25.5 L16.9,6.3 C15.7,4.6 13.9,3.3 11.8,2.9 C11.2,2.7 10.7,2.7 10.2,2.7 Z" id="Shape" fill="#2B2B2B"></path>
            </g>
            <g id="Group" transform="translate(313.000000, 469.000000)" fill-rule="nonzero">
                <path d="M47.2,43.9 C44.6,45.3 41.5,45.5 38.8,44.2 L17.4,34 C16,33.3 14.8,32.3 13.9,31 L3.3,15.9 C0.4,11.8 1.3,6.2 5.3,3.2 C9.4,0.3 15,1.2 18,5.2 C18.1,5.3 18.1,5.3 18.1,5.4 L27.3,18.6 L46.5,27.8 C51,30 52.9,35.4 50.8,39.9 C50.1,41.6 48.8,42.9 47.2,43.9 Z" id="Shape" fill="#FFFFFF"></path>
                <path d="M42.7,46.1 C41.2,46.1 39.7,45.7 38.4,45.1 L17,34.9 C15.4,34.2 14,33 13.1,31.6 L2.5,16.5 C-0.8,12 0.3,5.6 4.8,2.3 C7,0.7 9.6,0.1 12.3,0.5 C15,0.9 17.3,2.4 18.9,4.6 C19,4.7 19,4.7 19,4.8 L28,17.7 L47,26.7 C52.1,29.1 54.2,35.2 51.8,40.2 C50.9,42.1 49.5,43.6 47.7,44.6 C46.2,45.7 44.5,46.1 42.7,46.1 Z M10.7,2.6 C9,2.6 7.4,3.1 6.1,4.1 C2.6,6.7 1.8,11.7 4.3,15.2 L14.9,30.3 C15.7,31.5 16.8,32.3 18,32.9 L39.4,43.1 C41.8,44.3 44.5,44.1 46.8,42.8 C48.2,42 49.3,40.8 50.1,39.3 C52,35.3 50.3,30.5 46.3,28.7 L27.1,19.5 C27,19.4 26.8,19.3 26.7,19.1 L17.5,5.9 C17.4,5.8 17.4,5.8 17.4,5.7 C16.2,4 14.3,2.8 12.2,2.5 C11.5,2.6 11.1,2.6 10.7,2.6 Z" id="Shape" fill="#2B2B2B"></path>
            </g>
            <g id="Group" transform="translate(324.000000, 458.000000)" fill-rule="nonzero">
                <path d="M48.9,40.5 C46.6,41.8 43.8,42 41.3,41.2 L19,33 C17.6,32.4 16.3,31.6 15.2,30.3 L3.3,16.3 C0.1,12.4 0.8,6.7 4.7,3.6 C8.5,0.6 14,1 17.2,4.6 L27.5,16.8 L47.5,24.2 C52.2,25.9 54.6,31.1 52.9,35.8 C52.2,37.7 50.8,39.4 48.9,40.5 Z" id="Shape" fill="#FFFFFF"></path>
                <path d="M44.5,42.7 C43.3,42.7 42.1,42.5 41,42 L18.8,33.8 C17.1,33.2 15.7,32.1 14.6,30.8 L2.7,16.8 C-0.8,12.5 -0.2,6 4.2,2.5 C8.4,-0.9 14.5,-0.4 18.2,3.7 L28.4,15.8 L48.2,23.1 C53.4,25.1 56.2,30.8 54.2,36.1 C53.4,38.3 51.7,40.2 49.7,41.5 C47.9,42.3 46.2,42.7 44.5,42.7 Z M10.4,2.5 C8.7,2.5 6.9,3.1 5.4,4.3 C2,7 1.4,12.1 4.2,15.5 L16.1,29.5 C17,30.6 18.1,31.4 19.4,31.8 L41.6,40 C43.8,40.8 46.2,40.7 48.3,39.4 C50,38.5 51.2,37 51.8,35.2 C53.3,31.1 51.2,26.5 47.1,25 L27.1,17.6 C27,17.5 26.7,17.5 26.7,17.3 L16.4,5.1 C14.8,3.4 12.6,2.5 10.4,2.5 Z" id="Shape" fill="#2B2B2B"></path>
            </g>
            <circle id="Oval" stroke="#2B2B2B" stroke-width="3" fill="#2B2B2B" fill-rule="nonzero" stroke-linecap="round" stroke-linejoin="round" cx="313.2" cy="461.2" r="29.2"></circle>
            <path d="M328.8,289.8 L292,367.7 L328.5,419.5 C340.8,436.5 337,460.2 320,472.5 C318.8,473.3 317.7,474.1 316.5,474.8 C299.6,484.4 278.4,479.6 267,464 L225.8,405.8 L217.3,393.9 C209.2,382.7 207.8,367.9 213.7,355.5 L218.2,345.9 L260,257.2 C269,238.2 291.6,230.1 310.6,239 C329.6,248.2 337.8,270.8 328.8,289.8 Z" id="Shape" fill="url(#linearGradient-1)" fill-rule="nonzero"></path>
            <g id="Group" transform="translate(209.000000, 344.000000)" fill-rule="nonzero">
                <path d="M26.5,17.1 C35.2,32.3 31,51.6 16.9,62 L8.4,50.1 C0.3,38.9 -1.1,24.1 4.8,11.7 L9.3,2.1 C16.5,5 22.6,10.3 26.5,17.1 Z" id="Shape" fill="#FFFFFF"></path>
                <path d="M16.8,63 C16.7,63 16.7,63 16.7,63 C16.4,62.9 16.2,62.8 16,62.6 L7.5,50.7 C-0.8,39.2 -2.3,24 3.8,11.1 L8.3,1.5 C8.5,1 9.2,0.8 9.7,0.9 C17.2,3.9 23.5,9.4 27.5,16.3 C36.4,32 32.1,51.9 17.6,62.6 C17.3,62.9 17.1,63 16.8,63 Z M9.8,3.5 L5.7,12.1 C2.84217094e-14,24.3 1.3,38.6 9.2,49.4 L17.1,60.3 C30.1,50.2 33.7,31.9 25.6,17.5 C22,11.4 16.4,6.4 9.8,3.5 Z" id="Shape" fill="#2B2B2B"></path>
            </g>
            <path d="M239.7,374.2 C239.1,374.2 238.7,373.8 238.6,373.3 C238.5,372.7 239,372.1 239.5,372.1 L292,366.7 C292.6,366.6 293.2,367.1 293.2,367.6 C293.3,368.2 292.8,368.8 292.3,368.8 L239.7,374.2 C239.7,374.2 239.7,374.2 239.7,374.2 Z" id="Shape" fill="#2B2B2B" fill-rule="nonzero"></path>
            <path d="M389.3,494.6 L300.2,602.3 C297.1,606.1 293.3,609.2 289.1,611.6 C286.7,613 284.2,614.1 281.5,614.9 C268.3,619.2 253.9,616.4 243.3,607.7 C242.5,607 241.7,606.3 241,605.7 C238.3,603.2 236.1,600.3 234.2,597.1 C225.6,582.5 227.1,564 237.9,550.9 L307.1,467.3 L277.1,425.8 L253.3,392.9 C240.1,375 243.8,349.7 261.8,336.5 C279.8,323.3 305,327 318.2,345 C318.3,345.2 318.6,345.4 318.7,345.7 L329.2,360.2 L390.8,445.2 C401.7,460.1 401,480.4 389.3,494.6 Z" id="Shape" fill="url(#linearGradient-2)" fill-rule="nonzero"></path>
            <path d="M281.5,615 C268.3,619.3 253.9,616.5 243.3,607.8 C242.5,607.1 241.7,606.4 241,605.8 C250.7,606.3 268.6,608.4 281.5,615 Z" id="Shape" fill="#2B2B2B" fill-rule="nonzero"></path>
            <path d="M342.3,378.1 C342.3,378.1 301.9,374.3 277.2,425.8 L253.4,392.9 C240.2,375 243.9,349.7 261.9,336.5 C279.9,323.3 305.1,327 318.3,345 C318.4,345.2 318.7,345.4 318.8,345.7 L342.3,378.1 Z" id="Shape" fill="#D68CDC" fill-rule="nonzero"></path>
            <circle id="Oval" fill="#D68CDC" fill-rule="nonzero" cx="366.3" cy="467.8" r="32"></circle>
            <path d="M334.3,468.9 L307.1,468.3 C306.5,468.3 306,467.8 306,467.2 C306,466.6 306.5,466.1 307.1,466.1 L334.3,466.7 C334.9,466.7 335.4,467.2 335.4,467.8 C335.4,468.5 334.9,468.9 334.3,468.9 Z" id="Shape" fill="#2B2B2B" fill-rule="nonzero"></path>
            <path d="M335.7,617 L243,617 C229.8,617 220.5,629.3 220.5,642.6 L370.2,642.6 L353.3,624.6 C348.8,619.8 342.4,617 335.7,617 Z" id="Shape" fill="#F9D5FF" fill-rule="nonzero"></path>
            <path d="M301.7,617 L243,617 C229.8,617 220.5,629.3 220.5,642.6 L336.1,642.6 L319.2,624.6 C314.7,619.8 308.3,617 301.7,617 Z" id="Shape" fill="#D68CDC" fill-rule="nonzero"></path>
            <path d="M178.1,208.7 L224.8,208.7 C253.7,208.7 277,232.1 277,260.9 L277,349.4 C277,378.3 253.6,401.6 224.8,401.6 L178.1,401.6 C149.2,401.6 125.9,378.2 125.9,349.4 L125.9,260.9 C125.9,232.1 149.3,208.7 178.1,208.7 Z" id="Shape" fill="#2B2B2B" fill-rule="nonzero"></path>
            <polygon id="Shape" fill="url(#linearGradient-3)" fill-rule="nonzero" points="295.9 191.1 233.1 191.1 224 234.7 286.8 234.7"></polygon>
            <path d="M321.1,270 L321.1,351.7 C321.1,371.2 305.3,386.9 285.8,386.9 L204.2,386.9 C184.7,386.9 169,371.1 168.9,351.7 L168.9,270 C168.9,250.5 184.7,234.7 204.1,234.7 L285.7,234.7 C305.4,234.7 321.1,250.5 321.1,270 Z" id="Shape" fill="#FFFFFF" fill-rule="nonzero"></path>
            <path d="M249.6,270 L249.6,351.7 C249.6,371.2 233.8,386.9 214.4,386.9 L204.3,386.9 C184.8,386.9 169,371.1 169,351.7 L169,270 C169,250.5 184.8,234.7 204.2,234.7 L214.3,234.7 C233.8,234.7 249.6,250.5 249.6,270 Z" id="Shape" fill="url(#linearGradient-4)" fill-rule="nonzero"></path>
            <path d="M259.2,92.5 L339.5,92.5 C361.3,92.5 378.9,110.2 378.9,131.9 L378.9,181.2 C378.9,203 361.2,220.6 339.5,220.6 L259.2,220.6 C237.4,220.6 219.8,202.9 219.8,181.2 L219.8,131.9 C219.8,110.2 237.5,92.5 259.2,92.5 Z" id="Shape" fill="url(#linearGradient-5)" fill-rule="nonzero"></path>
            <path d="M259.2,221.8 C248,221.8 237.1,217.1 229.5,208.8 C229.1,208.4 229.1,207.6 229.6,207.3 C230,206.9 230.8,206.9 231.1,207.4 C238.3,215.2 248.5,219.7 259.2,219.7 C259.2,219.7 259.2,219.7 259.3,219.7 L289.9,219.7 C290.5,219.7 291,220.2 291,220.8 C291,221.4 290.5,221.9 289.9,221.9 L259.2,221.9 L259.2,221.8 Z" id="Shape" fill="#2B2B2B" fill-rule="nonzero"></path>
            <g id="Group" transform="translate(270.000000, 130.000000)" fill-rule="nonzero">
                <path d="M20,1.3 L80.7,1.3 C90.7,1.3 98.9,9.4 98.9,19.5 L98.9,34 C98.9,44 90.8,52.2 80.7,52.2 L20,52.2 C10,52.2 1.8,44.1 1.8,34 L1.8,19.5 C1.9,9.4 10,1.3 20,1.3 Z" id="Shape" fill="#FFFFFF"></path>
                <path d="M80.7,53.1 L20,53.1 C9.4,53.1 0.8,44.5 0.8,33.9 L0.8,19.4 C0.8,8.8 9.4,0.2 20,0.2 L80.7,0.2 C91.3,0.2 99.9,8.8 99.9,19.4 L99.9,33.9 C99.9,44.5 91.3,53.1 80.7,53.1 Z M20,2.3 C10.6,2.3 2.9,10 2.9,19.4 L2.9,33.9 C2.9,43.3 10.6,51 20,51 L80.7,51 C90.1,51 97.8,43.3 97.8,33.9 L97.8,19.4 C97.8,10 90.1,2.3 80.7,2.3 L20,2.3 Z" id="Shape" fill="#FDD668"></path>
            </g>
            <g id="Group" transform="translate(288.000000, 144.000000)" fill-rule="nonzero">
                <path d="M6.9,1.4 L7,1.4 C10,1.4 12.4,3.8 12.4,6.8 L12.4,18.6 C12.4,21.6 10,24 7,24 L6.9,24 C3.9,24 1.5,21.6 1.5,18.6 L1.5,6.8 C1.5,3.8 3.9,1.4 6.9,1.4 Z" id="Shape" fill="#FFFFFF"></path>
                <path d="M7.1,25 L7,25 C3.5,25 0.5,22.1 0.5,18.5 L0.5,6.7 C0.5,3.2 3.4,0.2 7,0.2 L7.1,0.2 C10.6,0.2 13.6,3.1 13.6,6.7 L13.6,18.5 C13.6,22.1 10.6,25 7.1,25 Z M6.9,2.5 C4.5,2.5 2.6,4.5 2.6,6.8 L2.6,18.6 C2.6,21 4.6,22.9 6.9,22.9 L7,22.9 C9.4,22.9 11.3,20.9 11.3,18.6 L11.3,6.8 C11.3,4.4 9.3,2.5 7,2.5 L6.9,2.5 Z" id="Shape" fill="#2B2B2B"></path>
            </g>
            <g id="Group" transform="translate(346.000000, 144.000000)" fill-rule="nonzero">
                <path d="M6.7,1.4 L6.8,1.4 C9.8,1.4 12.2,3.8 12.2,6.8 L12.2,18.6 C12.2,21.6 9.8,24 6.8,24 L6.7,24 C3.7,24 1.3,21.6 1.3,18.6 L1.3,6.8 C1.3,3.8 3.7,1.4 6.7,1.4 Z" id="Shape" fill="#FFFFFF"></path>
                <path d="M6.9,25 L6.8,25 C3.3,25 0.3,22.1 0.3,18.5 L0.3,6.7 C0.3,3.2 3.2,0.2 6.8,0.2 L6.9,0.2 C10.4,0.2 13.4,3.1 13.4,6.7 L13.4,18.5 C13.3,22.1 10.4,25 6.9,25 Z M6.7,2.5 C4.3,2.5 2.4,4.5 2.4,6.8 L2.4,18.6 C2.4,21 4.4,22.9 6.7,22.9 L6.8,22.9 C9.2,22.9 11.1,20.9 11.1,18.6 L11.1,6.8 C11.1,4.4 9.1,2.5 6.8,2.5 L6.7,2.5 Z" id="Shape" fill="#2B2B2B"></path>
            </g>
            <path d="M323.6,165.3 C318.8,165.3 315,161.5 315,156.7 C315,156.1 315.5,155.6 316.1,155.6 C316.7,155.6 317.2,156.1 317.2,156.7 C317.2,160.2 320.1,163.1 323.6,163.1 C327.1,163.1 330,160.2 330,156.7 C330,156.1 330.5,155.6 331.1,155.6 C331.7,155.6 332.2,156.1 332.2,156.7 C332.2,161.4 328.4,165.3 323.6,165.3 Z" id="Shape" fill="#2B2B2B" fill-rule="nonzero"></path>
            <path d="M304.6,494.6 L215.5,602.3 C201.3,619.4 175.8,621.9 158.7,607.7 C158.7,607.7 158.7,607.7 158.6,607.7 C157.9,607.2 157.4,606.6 156.7,606.1 L156.3,605.7 C141.1,591.1 139.8,567.2 153.2,550.9 L222.4,467.3 L168.7,392.9 C156.8,376.4 158.9,353.6 173.8,339.7 C175,338.5 176.3,337.5 177.7,336.5 C195.8,323.4 221,327.5 234.1,345.5 L306.2,445.1 C316.9,460.1 316.3,480.4 304.6,494.6 Z" id="Shape" fill="url(#linearGradient-6)" fill-rule="nonzero"></path>
            <path d="M197,615 C183.8,619.3 169.4,616.6 158.7,607.8 C158,607.3 157.5,606.7 156.8,606.2 L156.4,605.8 C166,606.3 183.9,608.4 197,615 Z" id="Shape" fill="#2B2B2B" fill-rule="nonzero"></path>
            <path d="M229.7,586.3 C229.5,586.3 229.2,586.2 229,586.1 C228.6,585.7 228.5,585 228.9,584.6 L303.9,494 C315.3,480.2 315.9,460.4 305.4,446 L283.3,414.2 C282.9,413.7 283.1,413 283.6,412.7 C284.1,412.3 284.8,412.5 285.1,413 L307.2,444.8 C318.3,460.1 317.6,481 305.5,495.5 L230.5,585.9 C230.2,586.2 230,586.3 229.7,586.3 Z" id="Shape" fill="#2B2B2B" fill-rule="nonzero"></path>
            <circle id="Oval" fill="#D68CDC" fill-rule="nonzero" cx="281.6" cy="467.8" r="32"></circle>
            <circle id="Oval" fill="#D68CDC" fill-rule="nonzero" transform="translate(199.422060, 369.688130) rotate(-78.691191) translate(-199.422060, -369.688130) " cx="199.42206" cy="369.68813" r="32.0005051"></circle>
            <path d="M249.6,468.9 C249.6,468.9 249.6,468.9 249.6,468.9 L222.4,468.3 C221.8,468.3 221.3,467.8 221.3,467.2 C221.3,466.6 221.8,466.1 222.4,466.1 L249.6,466.7 C250.2,466.7 250.7,467.2 250.7,467.8 C250.7,468.5 250.2,468.9 249.6,468.9 Z" id="Shape" fill="#2B2B2B" fill-rule="nonzero"></path>
            <path d="M251.1,617 L158.3,617 C145.1,617 135.8,629.3 135.8,642.6 L285.5,642.6 L268.6,624.6 C264,619.8 257.7,617 251.1,617 Z" id="Shape" fill="#F9D5FF" fill-rule="nonzero"></path>
            <path d="M217,617 L158.3,617 C145.1,617 135.8,629.3 135.8,642.6 L251.4,642.6 L234.5,624.6 C230,619.8 223.7,617 217,617 Z" id="Shape" fill="#D68CDC" fill-rule="nonzero"></path>
            <path d="M166,482.5 C163.1,482.2 160.5,480.5 159.1,477.9 L153.3,467.6 L142.9,464 C138.2,462.3 135.7,457.2 137.3,452.5 C138.9,447.8 144.1,445.3 148.8,446.9 L162.5,451.6 C164.6,452.3 166.3,453.8 167.4,455.7 L174.9,469.1 C177.4,473.4 175.8,479 171.4,481.4 C169.8,482.3 167.9,482.7 166,482.5 Z" id="Shape" fill="#F9D5FF" fill-rule="nonzero"></path>
            <path d="M111.9,519.3 C108,518.9 104.8,516 104,512.1 L99.6,491.5 C99.5,490.8 99.4,490.1 99.4,489.3 L100.2,465.1 C100.6,460.1 105,456.4 110,456.8 C114.6,457.2 118.2,461 118.3,465.7 L117.5,488.9 L121.6,508.4 C122.6,513.3 119.5,518.1 114.7,519.1 C113.8,519.4 112.9,519.4 111.9,519.3 Z" id="Shape" fill="#F9D5FF" fill-rule="nonzero"></path>
            <path d="M126.8,520.5 C123.9,519.8 121.5,517.8 120.4,515.1 L111.6,493.1 C111,491.7 110.8,490.1 111,488.5 L113.5,470.3 C114.2,465.4 118.8,461.9 123.7,462.6 C128.6,463.3 132.1,467.8 131.4,472.7 L129.3,488.6 L137.3,508.4 C139.2,513 136.9,518.3 132.2,520.2 C130.5,520.8 128.7,520.9 126.8,520.5 Z" id="Shape" fill="#F9D5FF" fill-rule="nonzero"></path>
            <path d="M120.5,516.1 C120.1,516.1 119.6,515.8 119.5,515.4 L110.7,493.4 C110,491.8 109.8,490 110,488.3 L112,472.8 C112.1,472.2 112.7,471.8 113.2,471.9 C113.8,472 114.2,472.6 114.1,473.1 L112,488.6 C111.8,490 112,491.3 112.5,492.7 L121.3,514.7 C121.5,515.3 121.2,515.9 120.7,516.1 C120.8,516.1 120.6,516.1 120.5,516.1 Z" id="Shape" fill="#2B2B2B" fill-rule="nonzero"></path>
            <path d="M145.2,516.5 C142.6,515.8 140.4,514.1 139.3,511.7 L128.9,490.4 C128.2,489 127.9,487.4 128,485.9 L129.1,467.5 C129.4,462.5 133.7,458.7 138.7,459 C143.7,459.3 147.5,463.6 147.2,468.6 L146.3,484.6 L155.7,503.8 C157.9,508.3 156.1,513.7 151.6,516 C149.4,516.8 147.2,517 145.2,516.5 Z" id="Shape" fill="#F9D5FF" fill-rule="nonzero"></path>
            <path d="M136.8,507.8 C136.4,507.8 136,507.6 135.9,507.2 L127.9,490.8 C127.1,489.2 126.8,487.5 126.9,485.7 L128,467.3 C128,466.7 128.6,466.2 129.2,466.3 C129.8,466.3 130.3,466.9 130.2,467.5 L129.1,485.9 C129,487.3 129.3,488.6 129.9,489.9 L137.9,506.3 C138.2,506.8 138,507.5 137.4,507.7 C137,507.7 136.9,507.8 136.8,507.8 Z" id="Shape" fill="#2B2B2B" fill-rule="nonzero"></path>
            <circle id="Oval" fill="#D68CDC" fill-rule="nonzero" cx="123.2" cy="447.5" r="29.2"></circle>
            <path d="M221.3,306.1 L150.9,355.8 L157.1,418.9 C159.4,439.7 144.4,458.6 123.5,460.9 C122.1,461 120.7,461.1 119.3,461.1 C100,461.1 83.7,446.5 81.6,427.3 L74.5,356.4 L73,341.9 C71.5,328.2 77.6,314.6 88.8,306.7 L97.4,300.6 L177.5,244.1 C194.4,231.7 218.2,235.2 230.6,252.1 C243,269 239.5,292.8 222.6,305.2 C222.3,305.4 221.8,305.8 221.3,306.1 Z" id="Shape" fill="url(#linearGradient-7)" fill-rule="nonzero"></path>
            <path d="M150.9,356.9 C150.8,356.9 150.6,356.9 150.5,356.8 L102.2,335.7 C101.6,335.5 101.4,334.8 101.6,334.3 C101.8,333.8 102.5,333.5 103,333.7 L151.3,354.8 C151.9,355 152.1,355.7 151.9,356.2 C151.7,356.6 151.4,356.9 150.9,356.9 Z" id="Shape" fill="#2B2B2B" fill-rule="nonzero"></path>
            <g id="Group" transform="translate(71.000000, 299.000000)" fill-rule="nonzero">
                <path d="M34,23.1 C34,40.6 20.9,55.3 3.5,57.3 L1.9,42.8 C0.4,29.1 6.5,15.5 17.7,7.6 L26.3,1.5 C31.3,7.7 34,15.3 34,23.1 Z" id="Shape" fill="#FFFFFF"></path>
                <path d="M3.5,58.4 C3.3,58.4 3,58.3 2.8,58.2 C2.6,58.1 2.4,57.8 2.4,57.5 L0.9,43 C-0.7,28.9 5.6,15 17.2,6.7 L25.8,0.6 C26.2,0.2 26.9,0.4 27.2,0.8 C32.3,7.1 35,15 35,23 C35,41.1 21.5,56.3 3.5,58.4 C3.6,58.4 3.6,58.4 3.5,58.4 Z M26.2,3 L18.5,8.5 C7.5,16.2 1.6,29.3 3.1,42.7 L4.5,56.1 C20.8,53.6 32.9,39.7 32.9,23.1 C32.9,15.8 30.5,8.8 26.2,3 Z" id="Shape" fill="#FDD668"></path>
            </g>
            <path d="M167.4,346.2 C167,346.2 166.7,346.1 166.5,345.8 C166.1,345.3 166.3,344.6 166.7,344.3 L220.6,305.2 C221.1,304.8 221.8,305 222.1,305.4 C222.5,305.9 222.3,306.6 221.9,306.9 L168.1,346 C167.9,346.2 167.7,346.2 167.4,346.2 Z" id="Shape" fill="#2B2B2B" fill-rule="nonzero"></path>
            <path d="M321.1,352.7 C320.5,352.7 320,352.2 320,351.6 L320,306 C320,305.4 320.5,304.9 321.1,304.9 C321.7,304.9 322.2,305.4 322.2,306 L322.2,351.6 C322.2,352.2 321.7,352.7 321.1,352.7 Z" id="Shape" fill="#2B2B2B" fill-rule="nonzero"></path>
            <path d="M264,388 C263.6,388 263.3,387.9 263.1,387.6 L233.2,346.3 C232.8,345.8 233,345.1 233.4,344.8 C233.9,344.4 234.6,344.6 234.9,345 L264.8,386.3 C265.2,386.8 265,387.5 264.6,387.8 C264.4,387.9 264.2,388 264,388 Z" id="Shape" fill="#2B2B2B" fill-rule="nonzero"></path>
            <path d="M302.6,346.2 L269.8,346.2 C263.4,346.2 258.2,341 258.2,334.6 L258.2,289.7 C258.2,283.3 263.4,278.1 269.8,278.1 L302.6,278.1 C309,278.1 314.2,283.3 314.2,289.7 L314.2,334.6 C314.3,341.1 309,346.2 302.6,346.2 Z M269.8,280.3 C264.6,280.3 260.4,284.5 260.4,289.7 L260.4,334.6 C260.4,339.8 264.6,344 269.8,344 L302.6,344 C307.8,344 312,339.8 312,334.6 L312,289.7 C312,284.5 307.8,280.3 302.6,280.3 L269.8,280.3 Z" id="Shape" fill="#D68CDC" fill-rule="nonzero"></path>
            <path d="M313.2,295.7 L259.4,295.7 C258.8,295.7 258.3,295.2 258.3,294.6 C258.3,294 258.8,293.5 259.4,293.5 L313.2,293.5 C313.8,293.5 314.3,294 314.3,294.6 C314.3,295.2 313.7,295.7 313.2,295.7 Z" id="Shape" fill="#D68CDC" fill-rule="nonzero"></path>
            <path d="M313.2,307.2 L259.4,307.2 C258.8,307.2 258.3,306.7 258.3,306.1 C258.3,305.5 258.8,305 259.4,305 L313.2,305 C313.8,305 314.3,305.5 314.3,306.1 C314.3,306.7 313.7,307.2 313.2,307.2 Z" id="Shape" fill="#D68CDC" fill-rule="nonzero"></path>
            <path d="M313.2,318.6 L259.4,318.6 C258.8,318.6 258.3,318.1 258.3,317.5 C258.3,316.9 258.8,316.4 259.4,316.4 L313.2,316.4 C313.8,316.4 314.3,316.9 314.3,317.5 C314.3,318.1 313.7,318.6 313.2,318.6 Z" id="Shape" fill="#D68CDC" fill-rule="nonzero"></path>
            <path d="M313.2,330 L259.4,330 C258.8,330 258.3,329.5 258.3,328.9 C258.3,328.3 258.8,327.8 259.4,327.8 L313.2,327.8 C313.8,327.8 314.3,328.3 314.3,328.9 C314.3,329.5 313.7,330 313.2,330 Z" id="Shape" fill="#D68CDC" fill-rule="nonzero"></path>
            <path d="M453,323.4 C452.4,323.4 451.9,322.9 451.9,322.3 L451.9,296.6 C451.9,296 452.4,295.5 453,295.5 C453.6,295.5 454.1,296 454.1,296.6 L454.1,322.3 C454.1,322.9 453.5,323.4 453,323.4 Z" id="Shape" fill="#2B2B2B" fill-rule="nonzero"></path>
            <path d="M463.7,330.5 L442.3,330.5 L442.3,325.1 C442.3,319.2 447.1,314.5 453,314.4 C458.9,314.4 463.7,319.2 463.7,325.1 L463.7,330.5 Z" id="Shape" fill="#96B5C8" fill-rule="nonzero"></path>
            <rect id="Rectangle-path" fill="#F9D5FF" fill-rule="nonzero" x="421.6" y="298.5" width="62.5" height="6.9"></rect>
            <path d="M668.2,323.4 C667.6,323.4 667.1,322.9 667.1,322.3 L667.1,296.6 C667.1,296 667.6,295.5 668.2,295.5 C668.8,295.5 669.3,296 669.3,296.6 L669.3,322.3 C669.2,322.9 668.7,323.4 668.2,323.4 Z" id="Shape" fill="#2B2B2B" fill-rule="nonzero"></path>
            <path d="M668.2,314.4 C674.1,314.4 678.9,319.2 678.9,325.1 L678.9,330.5 L657.5,330.5 L657.5,325.1 C657.5,319.2 662.2,314.4 668.2,314.4 Z" id="Shape" fill="#96B5C8" fill-rule="nonzero"></path>
            <path d="M643,380.6 L640.3,380.6 C639,380.6 637.8,379.9 637,378.9 L615.6,348.5 L606.3,335.2 L639.2,335.2 L643,342 C637.8,342 633.5,346.3 633.5,351.5 C633.5,353.3 634,355.1 635,356.6 L646.4,374.4 C647.6,376.3 647.1,378.7 645.2,380 C644.5,380.4 643.7,380.6 643,380.6 Z" id="Shape" fill="#96B5C8" fill-rule="nonzero"></path>
            <path d="M514.9,335.2 L505.6,348.5 L484.2,378.9 C483.5,380 482.2,380.6 480.9,380.6 L478.2,380.6 C476,380.6 474.1,378.8 474.2,376.5 C474.2,375.7 474.4,375 474.9,374.3 L486.3,356.5 C487.9,354.1 488.3,351.1 487.3,348.4 C486.1,344.5 482.4,341.9 478.3,341.9 L482.1,335.1 L514.9,335.1 L514.9,335.2 Z" id="Shape" fill="#96B5C8" fill-rule="nonzero"></path>
            <path d="M596,335.2 L585.4,348.5 L585.1,348.9 C581.4,353.5 574.5,356.4 566.9,356.4 L554.2,356.4 C546.7,356.4 539.7,353.5 536,348.9 L535.7,348.5 L525.1,335.2 L596,335.2 Z" id="Shape" fill="#96B5C8" fill-rule="nonzero"></path>
            <path d="M482,335.2 L514.9,335.2 L505.6,348.5 L487.3,348.5 C486.1,344.6 482.4,342 478.3,342 L482,335.2 Z" id="Shape" fill="#181818" fill-rule="nonzero"></path>
            <polygon id="Shape" fill="#181818" fill-rule="nonzero" points="525.1 335.2 596 335.2 585.5 348.5 535.7 348.5"></polygon>
            <path d="M642.8,342 C638.7,342 635.1,344.6 633.8,348.5 L615.5,348.5 L606.2,335.2 L639.1,335.2 L642.8,342 Z" id="Shape" fill="#181818" fill-rule="nonzero"></path>
            <path d="M554.2,284 L566.9,284 C574.4,284 581.4,286.9 585.1,291.5 L596,305.2 L525,305.2 L535.9,291.5 C539.7,286.9 546.7,284 554.2,284 Z" id="Shape" fill="#96B5C8" fill-rule="nonzero"></path>
            <path d="M453,328.4 C502.6,328.4 502.8,294.7 560.6,294.7 C618.4,294.7 618.6,328.4 668.2,328.4" id="Shape" fill="#F9D5FF" fill-rule="nonzero"></path>
            <circle id="Oval" stroke="#3A3A3A" stroke-width="3" fill="#3A3A3A" fill-rule="nonzero" stroke-linecap="round" stroke-linejoin="round" cx="560.6" cy="309.6" r="18.8"></circle>
            <circle id="Oval" fill="#181818" fill-rule="nonzero" cx="560.6" cy="309.6" r="11.7"></circle>
            <circle id="Oval" fill="#FFFFFF" fill-rule="nonzero" opacity="0.5" cx="553" cy="300.6" r="3.3"></circle>
            <circle id="Oval" fill="#FFFFFF" fill-rule="nonzero" opacity="0.5" cx="565.6" cy="315" r="2.7"></circle>
            <g id="Group" transform="translate(420.000000, 327.000000)" fill-rule="nonzero">
                <path d="M8.2,1.4 L273,1.4 C276.8,1.4 279.8,4.4 279.8,8.2 C279.8,12 276.8,15 273,15 L8.2,15 C4.4,15 1.4,12 1.4,8.2 C1.4,4.4 4.5,1.4 8.2,1.4 Z" id="Shape" fill="#FFFFFF"></path>
                <path d="M272.9,16.1 L8.2,16.1 C3.9,16.1 0.3,12.6 0.3,8.2 C0.3,3.8 3.8,0.3 8.2,0.3 L273,0.3 C277.3,0.3 280.9,3.8 280.9,8.2 C280.8,12.5 277.3,16.1 272.9,16.1 Z M8.2,2.5 C5.1,2.5 2.5,5 2.5,8.2 C2.5,11.4 5,13.9 8.2,13.9 L273,13.9 C276.1,13.9 278.7,11.4 278.7,8.2 C278.7,5 276.2,2.5 273,2.5 L8.2,2.5 Z" id="Shape" fill="#2B2B2B"></path>
            </g>
            <rect id="Rectangle-path" fill="#F9D5FF" fill-rule="nonzero" x="636.9" y="298.5" width="62.5" height="6.9"></rect>
            <rect id="Rectangle-path" fill="#96B5C8" fill-rule="nonzero" x="663" y="298.5" width="10.3" height="6.9"></rect>
            <rect id="Rectangle-path" fill="#96B5C8" fill-rule="nonzero" x="447.8" y="298.5" width="10.3" height="6.9"></rect>
            <g id="Group" transform="translate(429.000000, 82.000000)" fill-rule="nonzero">
                <path d="M189.3,109.1 L1.7,109.1 L42.7,85.9 L42.7,42.3 C42.7,19.5 61.2,1.1 83.9,1.1 L189.3,1.1 C212.1,1.1 230.5,19.6 230.5,42.3 L230.5,67.8 C230.5,90.6 212,109.1 189.3,109.1 Z" id="Shape" fill="#FFFFFF"></path>
                <path d="M189.3,110.2 L1.7,110.2 C1.2,110.2 0.8,109.8 0.6,109.4 C0.5,108.9 0.7,108.4 1.1,108.2 L41.5,85.3 L41.5,42.3 C41.5,18.9 60.5,-1.42108547e-14 83.8,-1.42108547e-14 L189.2,-1.42108547e-14 C212.6,-1.42108547e-14 231.5,19 231.5,42.3 L231.5,67.8 C231.6,91.2 212.6,110.2 189.3,110.2 Z M5.8,108 L189.2,108 C211.3,108 229.4,90 229.4,67.8 L229.4,42.3 C229.4,20.2 211.4,2.1 189.2,2.1 L83.9,2.1 C61.8,2.1 43.7,20.1 43.7,42.3 L43.7,85.9 C43.7,86.3 43.5,86.6 43.1,86.8 L5.8,108 Z" id="Shape" fill="#FDD668"></path>
            </g>
            <g id="Group" transform="translate(498.000000, 122.000000)" fill="#000000" fill-rule="nonzero">
                <polygon id="Shape" points="13.9 34.7 9.8 34.7 9.8 6.4 0.1 10.5 0.1 6.2 13.8 0.3 13.8 34.7"></polygon>
                <polygon id="Shape" points="34.2 34.7 30.1 34.7 30.1 6.4 20.4 10.5 20.4 6.2 34.1 0.3 34.1 34.7"></polygon>
                <path d="M70.4,17.7 C70.4,28.6 64.1,35.1 56.4,35.1 C48.7,35.1 42.4,28.6 42.4,17.7 C42.4,6.8 48.7,0.3 56.4,0.3 C64.1,0.4 70.4,6.9 70.4,17.7 Z M46.6,17.7 C46.6,26.4 51,31.2 56.4,31.2 C61.8,31.2 66.2,26.4 66.2,17.7 C66.2,9 61.9,4.2 56.4,4.2 C51,4.3 46.6,9 46.6,17.7 Z" id="Shape"></path>
            </g>
            <path d="M602.7,139.7 C602.7,150.6 596.4,157.1 588.7,157.1 C581,157.1 574.7,150.6 574.7,139.7 C574.7,128.8 581,122.3 588.7,122.3 C596.3,122.4 602.7,128.9 602.7,139.7 Z M578.9,139.7 C578.9,148.4 583.3,153.2 588.7,153.2 C594.1,153.2 598.5,148.4 598.5,139.7 C598.5,131 594.2,126.2 588.7,126.2 C583.3,126.3 578.9,131 578.9,139.7 Z" id="Shape" fill="#000000" fill-rule="nonzero"></path>
            <polygon id="Shape" fill="#000000" fill-rule="nonzero" points="621.1 156.7 617 156.7 617 128.4 607.3 132.5 607.3 128.2 621 122.3 621 156.7"></polygon>
            <g id="Group" transform="translate(471.000000, 404.000000)" fill-rule="nonzero">
                <path d="M189,1 L162.085684,29.9211103 L42.8222459,29.9211103 C19.7099521,29.9211103 1,48.6347699 1,71.7516435 L1,96.1694668 C1,119.28634 19.7099521,138 42.8222459,138 L147.177754,138 C170.290048,138 189,119.28634 189,96.1694668 L189,1 Z" id="Shape" fill="#FFFFFF"></path>
                <path d="M147.122567,139 L42.8774329,139 C19.1899001,139 0,119.807671 0,96.1171394 L0,71.7268877 C0,48.0363564 19.1899001,28.8440272 42.8774329,28.8440272 L161.514992,28.8440272 L188.100999,0.355413504 C188.400842,-0.044426688 188.900579,-0.044426688 189.300368,0.05553336 C189.700158,0.155493408 190,0.655293648 190,1.05513384 L190,96.1171394 C190,119.807671 170.710153,139 147.122567,139 Z M42.8774329,31.0431482 C20.4892162,31.0431482 2.19884271,49.2358769 2.19884271,71.7268877 L2.19884271,96.1171394 C2.19884271,118.50819 20.3892688,136.800879 42.8774329,136.800879 L147.122567,136.800879 C169.510784,136.800879 187.801157,118.60815 187.801157,96.1171394 L187.801157,3.85401518 L162.814308,30.643308 C162.614413,30.8432281 162.314571,31.0431482 162.014729,31.0431482 L42.8774329,31.0431482 Z" id="Shape" fill="#FDD668"></path>
            </g>
            <path d="M523.4,490.4 C523.4,501.3 517.1,507.8 509.4,507.8 C501.7,507.8 495.4,501.3 495.4,490.4 C495.4,479.5 501.7,473 509.4,473 C517.1,473 523.4,479.6 523.4,490.4 Z M499.6,490.4 C499.6,499.1 504,503.9 509.4,503.9 C514.8,503.9 519.2,499.1 519.2,490.4 C519.2,481.7 514.9,476.9 509.4,476.9 C504,477.1 499.6,481.8 499.6,490.4 Z" id="Shape" fill="#000000" fill-rule="nonzero"></path>
            <path d="M557.7,490.4 C557.7,501.3 551.4,507.8 543.7,507.8 C536,507.8 529.7,501.3 529.7,490.4 C529.7,479.5 536,473 543.7,473 C551.4,473.1 557.7,479.6 557.7,490.4 Z M533.9,490.4 C533.9,499.1 538.3,503.9 543.7,503.9 C549.1,503.9 553.5,499.1 553.5,490.4 C553.5,481.7 549.2,476.9 543.7,476.9 C538.3,477.1 533.9,481.8 533.9,490.4 Z" id="Shape" fill="#000000" fill-rule="nonzero"></path>
            <polygon id="Shape" fill="#000000" fill-rule="nonzero" points="576 507.4 572 507.4 572 479.1 562.3 483.2 562.3 479 576 473.1"></polygon>
            <path d="M612.2,490.4 C612.2,501.3 605.9,507.8 598.2,507.8 C590.5,507.8 584.2,501.3 584.2,490.4 C584.2,479.5 590.5,473 598.2,473 C605.9,473.1 612.2,479.6 612.2,490.4 Z M588.4,490.4 C588.4,499.1 592.8,503.9 598.2,503.9 C603.6,503.9 608,499.1 608,490.4 C608,481.7 603.7,476.9 598.2,476.9 C592.8,477.1 588.4,481.8 588.4,490.4 Z" id="Shape" fill="#000000" fill-rule="nonzero"></path>
            <polygon id="Shape" fill="#000000" fill-rule="nonzero" points="630.6 507.4 626.5 507.4 626.5 479.1 616.8 483.2 616.8 479 630.5 473.1 630.5 507.4"></polygon>
        </g>
    </g>
</svg>